<ttFont>
    <TTGlyph name=".ttfautohint" xMin="0" yMin="0" xMax="0" yMax="0">
      <contour>
        <pt x="0" y="0" on="1"/>
      </contour>
    </TTGlyph>
    <TTGlyph name="A" xMin="-51" yMin="0" xMax="497" yMax="653">
      <contour>
        <pt x="9" y="52" on="1"/>
        <pt x="284" y="653" on="1"/>
        <pt x="326" y="653" on="1"/>
        <pt x="439" y="49" on="1"/>
        <pt x="497" y="37" on="1"/>
        <pt x="494" y="0" on="1"/>
        <pt x="283" y="0" on="1"/>
        <pt x="286" y="37" on="1"/>
        <pt x="356" y="52" on="1"/>
        <pt x="356" y="75" on="1"/>
        <pt x="336" y="186" on="1"/>
        <pt x="125" y="186" on="1"/>
        <pt x="72" y="69" on="1"/>
        <pt x="72" y="52" on="1"/>
        <pt x="140" y="37" on="1"/>
        <pt x="136" y="0" on="1"/>
        <pt x="-51" y="0" on="1"/>
        <pt x="-46" y="37" on="1"/>
      </contour>
      <contour>
        <pt x="275" y="521" on="1"/>
        <pt x="151" y="243" on="1"/>
        <pt x="325" y="243" on="1"/>
      </contour>
    </TTGlyph>
    <TTGlyph name="AE" xMin="-101" yMin="0" xMax="711" yMax="648">
      <contour>
        <pt x="-41" y="52" on="1"/>
        <pt x="358" y="648" on="1"/>
        <pt x="711" y="648" on="1"/>
        <pt x="690" y="492" on="1"/>
        <pt x="641" y="492" on="1"/>
        <pt x="641" y="602" on="1"/>
        <pt x="540" y="602" on="1"/>
        <pt x="460" y="597" on="1"/>
        <pt x="421" y="324" on="1"/>
        <pt x="552" y="324" on="1"/>
        <pt x="573" y="383" on="1"/>
        <pt x="609" y="383" on="1"/>
        <pt x="588" y="221" on="1"/>
        <pt x="552" y="221" on="1"/>
        <pt x="547" y="280" on="1"/>
        <pt x="415" y="280" on="1"/>
        <pt x="382" y="51" on="1"/>
        <pt x="388" y="50" on="0"/>
        <pt x="439" y="45" on="0"/>
        <pt x="475" y="45" on="1"/>
        <pt x="577" y="45" on="1"/>
        <pt x="615" y="152" on="1"/>
        <pt x="657" y="152" on="1"/>
        <pt x="638" y="0" on="1"/>
        <pt x="229" y="0" on="1"/>
        <pt x="233" y="37" on="1"/>
        <pt x="304" y="51" on="1"/>
        <pt x="336" y="280" on="1"/>
        <pt x="173" y="280" on="1"/>
        <pt x="30" y="69" on="1"/>
        <pt x="30" y="52" on="1"/>
        <pt x="98" y="37" on="1"/>
        <pt x="94" y="0" on="1"/>
        <pt x="-101" y="0" on="1"/>
        <pt x="-96" y="37" on="1"/>
      </contour>
      <contour>
        <pt x="382" y="596" on="1"/>
        <pt x="378" y="596" on="1"/>
        <pt x="200" y="324" on="1"/>
        <pt x="342" y="324" on="1"/>
      </contour>
    </TTGlyph>
    <TTGlyph name="AEacute" xMin="-101" yMin="0" xMax="711" yMax="836">
      <component glyphName=".ttfautohint" x="0" y="0" flags="0x0"/>
      <component glyphName="AE" x="0" y="0" flags="0x0"/>
      <component glyphName="acutecomb.case" x="522" y="0" flags="0x0"/>
    </TTGlyph>
    <TTGlyph name="Aacute" xMin="-57" yMin="0" xMax="491" yMax="836">
      <contour>
        <pt x="374" y="836" on="1"/>
        <pt x="389" y="829" on="0"/>
        <pt x="408" y="801" on="0"/>
        <pt x="408" y="786" on="1"/>
        <pt x="408" y="768" on="0"/>
        <pt x="384" y="745" on="0"/>
        <pt x="358" y="735" on="1"/>
        <pt x="228" y="681" on="1"/>
        <pt x="206" y="716" on="1"/>
      </contour>
      <contour>
        <pt x="3" y="52" on="1"/>
        <pt x="278" y="653" on="1"/>
        <pt x="320" y="653" on="1"/>
        <pt x="433" y="49" on="1"/>
        <pt x="491" y="37" on="1"/>
        <pt x="488" y="0" on="1"/>
        <pt x="277" y="0" on="1"/>
        <pt x="280" y="37" on="1"/>
        <pt x="350" y="52" on="1"/>
        <pt x="350" y="75" on="1"/>
        <pt x="330" y="186" on="1"/>
        <pt x="119" y="186" on="1"/>
        <pt x="66" y="69" on="1"/>
        <pt x="66" y="52" on="1"/>
        <pt x="134" y="37" on="1"/>
        <pt x="130" y="0" on="1"/>
        <pt x="-57" y="0" on="1"/>
        <pt x="-52" y="37" on="1"/>
      </contour>
      <contour>
        <pt x="269" y="521" on="1"/>
        <pt x="145" y="243" on="1"/>
        <pt x="319" y="243" on="1"/>
      </contour>
    </TTGlyph>
    <TTGlyph name="Abreve" xMin="-57" yMin="0" xMax="491" yMax="829">
      <contour>
        <pt x="458" y="806" on="0"/>
        <pt x="409" y="746" on="0"/>
        <pt x="329" y="695" on="0"/>
        <pt x="279" y="695" on="1"/>
        <pt x="242" y="695" on="0"/>
        <pt x="189" y="724" on="0"/>
        <pt x="161" y="766" on="0"/>
        <pt x="161" y="785" on="1"/>
        <pt x="161" y="796" on="0"/>
        <pt x="189" y="818" on="0"/>
        <pt x="208" y="826" on="1"/>
        <pt x="208" y="823" on="0"/>
        <pt x="227" y="788" on="0"/>
        <pt x="264" y="758" on="0"/>
        <pt x="292" y="758" on="1"/>
        <pt x="330" y="758" on="0"/>
        <pt x="394" y="790" on="0"/>
        <pt x="437" y="827" on="0"/>
        <pt x="437" y="829" on="1"/>
        <pt x="458" y="810" on="1"/>
      </contour>
      <contour>
        <pt x="3" y="52" on="1"/>
        <pt x="278" y="653" on="1"/>
        <pt x="320" y="653" on="1"/>
        <pt x="433" y="49" on="1"/>
        <pt x="491" y="37" on="1"/>
        <pt x="488" y="0" on="1"/>
        <pt x="277" y="0" on="1"/>
        <pt x="280" y="37" on="1"/>
        <pt x="350" y="52" on="1"/>
        <pt x="350" y="75" on="1"/>
        <pt x="330" y="186" on="1"/>
        <pt x="119" y="186" on="1"/>
        <pt x="66" y="69" on="1"/>
        <pt x="66" y="52" on="1"/>
        <pt x="134" y="37" on="1"/>
        <pt x="130" y="0" on="1"/>
        <pt x="-57" y="0" on="1"/>
        <pt x="-52" y="37" on="1"/>
      </contour>
      <contour>
        <pt x="269" y="521" on="1"/>
        <pt x="145" y="243" on="1"/>
        <pt x="319" y="243" on="1"/>
      </contour>
    </TTGlyph>
    <TTGlyph name="Acircumflex" xMin="-57" yMin="0" xMax="491" yMax="834">
      <contour>
        <pt x="240" y="781" on="1"/>
        <pt x="266" y="800" on="0"/>
        <pt x="276" y="809" on="1"/>
        <pt x="281" y="813" on="0"/>
        <pt x="304" y="829" on="0"/>
        <pt x="313" y="834" on="0"/>
        <pt x="316" y="834" on="1"/>
        <pt x="324" y="833" on="0"/>
        <pt x="377" y="788" on="0"/>
        <pt x="381" y="785" on="1"/>
        <pt x="441" y="730" on="1"/>
        <pt x="408" y="689" on="1"/>
        <pt x="302" y="756" on="1"/>
        <pt x="194" y="695" on="1"/>
        <pt x="169" y="728" on="1"/>
      </contour>
      <contour>
        <pt x="3" y="52" on="1"/>
        <pt x="278" y="653" on="1"/>
        <pt x="320" y="653" on="1"/>
        <pt x="433" y="49" on="1"/>
        <pt x="491" y="37" on="1"/>
        <pt x="488" y="0" on="1"/>
        <pt x="277" y="0" on="1"/>
        <pt x="280" y="37" on="1"/>
        <pt x="350" y="52" on="1"/>
        <pt x="350" y="75" on="1"/>
        <pt x="330" y="186" on="1"/>
        <pt x="119" y="186" on="1"/>
        <pt x="66" y="69" on="1"/>
        <pt x="66" y="52" on="1"/>
        <pt x="134" y="37" on="1"/>
        <pt x="130" y="0" on="1"/>
        <pt x="-57" y="0" on="1"/>
        <pt x="-52" y="37" on="1"/>
      </contour>
      <contour>
        <pt x="269" y="521" on="1"/>
        <pt x="145" y="243" on="1"/>
        <pt x="319" y="243" on="1"/>
      </contour>
    </TTGlyph>
    <TTGlyph name="Adieresis" xMin="-57" yMin="0" xMax="491" yMax="819">
      <contour>
        <pt x="177" y="703" on="0"/>
        <pt x="149" y="734" on="0"/>
        <pt x="149" y="759" on="1"/>
        <pt x="149" y="784" on="0"/>
        <pt x="180" y="819" on="0"/>
        <pt x="204" y="819" on="1"/>
        <pt x="227" y="819" on="0"/>
        <pt x="255" y="790" on="0"/>
        <pt x="255" y="765" on="1"/>
        <pt x="255" y="739" on="0"/>
        <pt x="225" y="703" on="0"/>
        <pt x="200" y="703" on="1"/>
      </contour>
      <contour>
        <pt x="388" y="703" on="0"/>
        <pt x="360" y="734" on="0"/>
        <pt x="360" y="759" on="1"/>
        <pt x="360" y="784" on="0"/>
        <pt x="391" y="819" on="0"/>
        <pt x="415" y="819" on="1"/>
        <pt x="438" y="819" on="0"/>
        <pt x="466" y="790" on="0"/>
        <pt x="466" y="765" on="1"/>
        <pt x="466" y="739" on="0"/>
        <pt x="436" y="703" on="0"/>
        <pt x="411" y="703" on="1"/>
      </contour>
      <contour>
        <pt x="3" y="52" on="1"/>
        <pt x="278" y="653" on="1"/>
        <pt x="320" y="653" on="1"/>
        <pt x="433" y="49" on="1"/>
        <pt x="491" y="37" on="1"/>
        <pt x="488" y="0" on="1"/>
        <pt x="277" y="0" on="1"/>
        <pt x="280" y="37" on="1"/>
        <pt x="350" y="52" on="1"/>
        <pt x="350" y="75" on="1"/>
        <pt x="330" y="186" on="1"/>
        <pt x="119" y="186" on="1"/>
        <pt x="66" y="69" on="1"/>
        <pt x="66" y="52" on="1"/>
        <pt x="134" y="37" on="1"/>
        <pt x="130" y="0" on="1"/>
        <pt x="-57" y="0" on="1"/>
        <pt x="-52" y="37" on="1"/>
      </contour>
      <contour>
        <pt x="269" y="521" on="1"/>
        <pt x="145" y="243" on="1"/>
        <pt x="319" y="243" on="1"/>
      </contour>
    </TTGlyph>
    <TTGlyph name="Agrave" xMin="-57" yMin="0" xMax="491" yMax="836">
      <contour>
        <pt x="216" y="745" on="0"/>
        <pt x="192" y="768" on="0"/>
        <pt x="192" y="786" on="1"/>
        <pt x="192" y="801" on="0"/>
        <pt x="211" y="829" on="0"/>
        <pt x="226" y="836" on="1"/>
        <pt x="394" y="716" on="1"/>
        <pt x="372" y="681" on="1"/>
        <pt x="242" y="735" on="1"/>
      </contour>
      <contour>
        <pt x="3" y="52" on="1"/>
        <pt x="278" y="653" on="1"/>
        <pt x="320" y="653" on="1"/>
        <pt x="433" y="49" on="1"/>
        <pt x="491" y="37" on="1"/>
        <pt x="488" y="0" on="1"/>
        <pt x="277" y="0" on="1"/>
        <pt x="280" y="37" on="1"/>
        <pt x="350" y="52" on="1"/>
        <pt x="350" y="75" on="1"/>
        <pt x="330" y="186" on="1"/>
        <pt x="119" y="186" on="1"/>
        <pt x="66" y="69" on="1"/>
        <pt x="66" y="52" on="1"/>
        <pt x="134" y="37" on="1"/>
        <pt x="130" y="0" on="1"/>
        <pt x="-57" y="0" on="1"/>
        <pt x="-52" y="37" on="1"/>
      </contour>
      <contour>
        <pt x="269" y="521" on="1"/>
        <pt x="145" y="243" on="1"/>
        <pt x="319" y="243" on="1"/>
      </contour>
    </TTGlyph>
    <TTGlyph name="Amacron" xMin="-57" yMin="0" xMax="491" yMax="782">
      <contour>
        <pt x="447" y="782" on="1"/>
        <pt x="439" y="719" on="1"/>
        <pt x="157" y="719" on="1"/>
        <pt x="165" y="782" on="1"/>
      </contour>
      <contour>
        <pt x="3" y="52" on="1"/>
        <pt x="278" y="653" on="1"/>
        <pt x="320" y="653" on="1"/>
        <pt x="433" y="49" on="1"/>
        <pt x="491" y="37" on="1"/>
        <pt x="488" y="0" on="1"/>
        <pt x="277" y="0" on="1"/>
        <pt x="280" y="37" on="1"/>
        <pt x="350" y="52" on="1"/>
        <pt x="350" y="75" on="1"/>
        <pt x="330" y="186" on="1"/>
        <pt x="119" y="186" on="1"/>
        <pt x="66" y="69" on="1"/>
        <pt x="66" y="52" on="1"/>
        <pt x="134" y="37" on="1"/>
        <pt x="130" y="0" on="1"/>
        <pt x="-57" y="0" on="1"/>
        <pt x="-52" y="37" on="1"/>
      </contour>
      <contour>
        <pt x="269" y="521" on="1"/>
        <pt x="145" y="243" on="1"/>
        <pt x="319" y="243" on="1"/>
      </contour>
    </TTGlyph>
    <TTGlyph name="Aogonek" xMin="-57" yMin="-177" xMax="491" yMax="653">
      <contour>
        <pt x="3" y="52" on="1"/>
        <pt x="278" y="653" on="1"/>
        <pt x="320" y="653" on="1"/>
        <pt x="433" y="49" on="1"/>
        <pt x="491" y="37" on="1"/>
        <pt x="488" y="0" on="1"/>
        <pt x="399" y="0" on="1"/>
        <pt x="347" y="-38" on="0"/>
        <pt x="347" y="-86" on="1"/>
        <pt x="347" y="-105" on="0"/>
        <pt x="368" y="-126" on="0"/>
        <pt x="388" y="-126" on="1"/>
        <pt x="400" y="-126" on="0"/>
        <pt x="425" y="-117" on="0"/>
        <pt x="443" y="-108" on="0"/>
        <pt x="445" y="-106" on="1"/>
        <pt x="461" y="-130" on="1"/>
        <pt x="461" y="-131" on="0"/>
        <pt x="430" y="-156" on="0"/>
        <pt x="383" y="-177" on="0"/>
        <pt x="356" y="-177" on="1"/>
        <pt x="281" y="-177" on="0"/>
        <pt x="281" y="-114" on="1"/>
        <pt x="281" y="-81" on="0"/>
        <pt x="321" y="-22" on="0"/>
        <pt x="356" y="0" on="1"/>
        <pt x="277" y="0" on="1"/>
        <pt x="280" y="37" on="1"/>
        <pt x="350" y="52" on="1"/>
        <pt x="350" y="75" on="1"/>
        <pt x="330" y="186" on="1"/>
        <pt x="119" y="186" on="1"/>
        <pt x="66" y="69" on="1"/>
        <pt x="66" y="52" on="1"/>
        <pt x="134" y="37" on="1"/>
        <pt x="130" y="0" on="1"/>
        <pt x="-57" y="0" on="1"/>
        <pt x="-52" y="37" on="1"/>
      </contour>
      <contour>
        <pt x="269" y="521" on="1"/>
        <pt x="145" y="243" on="1"/>
        <pt x="319" y="243" on="1"/>
      </contour>
    </TTGlyph>
    <TTGlyph name="Aring" xMin="-57" yMin="0" xMax="491" yMax="831">
      <contour>
        <pt x="223" y="771" on="0"/>
        <pt x="275" y="831" on="0"/>
        <pt x="320" y="831" on="1"/>
        <pt x="360" y="831" on="0"/>
        <pt x="402" y="796" on="0"/>
        <pt x="402" y="765" on="1"/>
        <pt x="402" y="723" on="0"/>
        <pt x="349" y="662" on="0"/>
        <pt x="305" y="662" on="1"/>
        <pt x="266" y="662" on="0"/>
        <pt x="223" y="698" on="0"/>
        <pt x="223" y="729" on="1"/>
      </contour>
      <contour>
        <pt x="274" y="721" on="0"/>
        <pt x="292" y="706" on="0"/>
        <pt x="314" y="706" on="1"/>
        <pt x="333" y="706" on="0"/>
        <pt x="350" y="732" on="0"/>
        <pt x="350" y="757" on="1"/>
        <pt x="350" y="774" on="0"/>
        <pt x="332" y="787" on="0"/>
        <pt x="311" y="787" on="1"/>
        <pt x="291" y="787" on="0"/>
        <pt x="274" y="763" on="0"/>
        <pt x="274" y="738" on="1"/>
      </contour>
      <contour>
        <pt x="3" y="52" on="1"/>
        <pt x="278" y="653" on="1"/>
        <pt x="320" y="653" on="1"/>
        <pt x="433" y="49" on="1"/>
        <pt x="491" y="37" on="1"/>
        <pt x="488" y="0" on="1"/>
        <pt x="277" y="0" on="1"/>
        <pt x="280" y="37" on="1"/>
        <pt x="350" y="52" on="1"/>
        <pt x="350" y="75" on="1"/>
        <pt x="330" y="186" on="1"/>
        <pt x="119" y="186" on="1"/>
        <pt x="66" y="69" on="1"/>
        <pt x="66" y="52" on="1"/>
        <pt x="134" y="37" on="1"/>
        <pt x="130" y="0" on="1"/>
        <pt x="-57" y="0" on="1"/>
        <pt x="-52" y="37" on="1"/>
      </contour>
      <contour>
        <pt x="269" y="521" on="1"/>
        <pt x="145" y="243" on="1"/>
        <pt x="319" y="243" on="1"/>
      </contour>
    </TTGlyph>
    <TTGlyph name="Aringacute" xMin="-51" yMin="0" xMax="497" yMax="1019">
      <component glyphName=".ttfautohint" x="0" y="0" flags="0x0"/>
      <component glyphName="A" x="0" y="0" flags="0x0"/>
      <component glyphName="uni030A.case" x="343" y="0" flags="0x0"/>
      <component glyphName="acutecomb.case" x="409" y="183" flags="0x4"/>
    </TTGlyph>
    <TTGlyph name="Atilde" xMin="-57" yMin="0" xMax="491" yMax="818">
      <contour>
        <pt x="166" y="784" on="1"/>
        <pt x="193" y="818" on="0"/>
        <pt x="221" y="818" on="1"/>
        <pt x="241" y="818" on="0"/>
        <pt x="297" y="798" on="1"/>
        <pt x="363" y="775" on="1"/>
        <pt x="443" y="812" on="1"/>
        <pt x="466" y="786" on="1"/>
        <pt x="429" y="738" on="1"/>
        <pt x="402" y="704" on="0"/>
        <pt x="374" y="704" on="1"/>
        <pt x="351" y="704" on="0"/>
        <pt x="298" y="724" on="1"/>
        <pt x="232" y="747" on="1"/>
        <pt x="152" y="710" on="1"/>
        <pt x="129" y="736" on="1"/>
      </contour>
      <contour>
        <pt x="3" y="52" on="1"/>
        <pt x="278" y="653" on="1"/>
        <pt x="320" y="653" on="1"/>
        <pt x="433" y="49" on="1"/>
        <pt x="491" y="37" on="1"/>
        <pt x="488" y="0" on="1"/>
        <pt x="277" y="0" on="1"/>
        <pt x="280" y="37" on="1"/>
        <pt x="350" y="52" on="1"/>
        <pt x="350" y="75" on="1"/>
        <pt x="330" y="186" on="1"/>
        <pt x="119" y="186" on="1"/>
        <pt x="66" y="69" on="1"/>
        <pt x="66" y="52" on="1"/>
        <pt x="134" y="37" on="1"/>
        <pt x="130" y="0" on="1"/>
        <pt x="-57" y="0" on="1"/>
        <pt x="-52" y="37" on="1"/>
      </contour>
      <contour>
        <pt x="269" y="521" on="1"/>
        <pt x="145" y="243" on="1"/>
        <pt x="319" y="243" on="1"/>
      </contour>
    </TTGlyph>
    <TTGlyph name="B" xMin="16" yMin="0" xMax="483" yMax="648">
      <contour>
        <pt x="91" y="51" on="1"/>
        <pt x="168" y="597" on="1"/>
        <pt x="100" y="611" on="1"/>
        <pt x="104" y="648" on="1"/>
        <pt x="289" y="648" on="1"/>
        <pt x="385" y="648" on="0"/>
        <pt x="483" y="579" on="0"/>
        <pt x="483" y="516" on="1"/>
        <pt x="483" y="460" on="0"/>
        <pt x="411" y="364" on="0"/>
        <pt x="337" y="337" on="1"/>
        <pt x="465" y="306" on="0"/>
        <pt x="465" y="206" on="1"/>
        <pt x="465" y="154" on="0"/>
        <pt x="412" y="60" on="0"/>
        <pt x="300" y="0" on="0"/>
        <pt x="217" y="0" on="1"/>
        <pt x="16" y="0" on="1"/>
        <pt x="20" y="37" on="1"/>
      </contour>
      <contour>
        <pt x="303" y="359" on="0"/>
        <pt x="401" y="435" on="0"/>
        <pt x="401" y="502" on="1"/>
        <pt x="401" y="558" on="0"/>
        <pt x="345" y="601" on="0"/>
        <pt x="289" y="601" on="1"/>
        <pt x="273" y="601" on="0"/>
        <pt x="249" y="597" on="0"/>
        <pt x="246" y="596" on="1"/>
        <pt x="212" y="351" on="1"/>
      </contour>
      <contour>
        <pt x="170" y="50" on="0"/>
        <pt x="202" y="45" on="0"/>
        <pt x="231" y="45" on="1"/>
        <pt x="301" y="45" on="0"/>
        <pt x="375" y="119" on="0"/>
        <pt x="375" y="190" on="1"/>
        <pt x="375" y="250" on="0"/>
        <pt x="297" y="310" on="0"/>
        <pt x="206" y="312" on="1"/>
        <pt x="170" y="51" on="1"/>
      </contour>
    </TTGlyph>
    <TTGlyph name="C" xMin="44" yMin="-11" xMax="525" yMax="660">
      <contour>
        <pt x="474" y="167" on="1"/>
        <pt x="460" y="31" on="1"/>
        <pt x="374" y="-11" on="0"/>
        <pt x="272" y="-11" on="1"/>
        <pt x="150" y="-11" on="0"/>
        <pt x="44" y="122" on="0"/>
        <pt x="44" y="244" on="1"/>
        <pt x="44" y="362" on="0"/>
        <pt x="129" y="552" on="0"/>
        <pt x="277" y="660" on="0"/>
        <pt x="367" y="660" on="1"/>
        <pt x="450" y="660" on="0"/>
        <pt x="525" y="640" on="1"/>
        <pt x="503" y="493" on="1"/>
        <pt x="461" y="493" on="1"/>
        <pt x="454" y="589" on="1"/>
        <pt x="439" y="597" on="0"/>
        <pt x="382" y="609" on="0"/>
        <pt x="354" y="609" on="1"/>
        <pt x="250" y="609" on="0"/>
        <pt x="135" y="428" on="0"/>
        <pt x="135" y="267" on="1"/>
        <pt x="135" y="149" on="0"/>
        <pt x="207" y="40" on="0"/>
        <pt x="290" y="40" on="1"/>
        <pt x="322" y="40" on="0"/>
        <pt x="371" y="53" on="0"/>
        <pt x="398" y="68" on="0"/>
        <pt x="401" y="70" on="1"/>
        <pt x="432" y="167" on="1"/>
      </contour>
    </TTGlyph>
    <TTGlyph name="Cacute" xMin="44" yMin="-11" xMax="525" yMax="836">
      <contour>
        <pt x="446" y="836" on="1"/>
        <pt x="461" y="829" on="0"/>
        <pt x="480" y="801" on="0"/>
        <pt x="480" y="786" on="1"/>
        <pt x="480" y="768" on="0"/>
        <pt x="456" y="745" on="0"/>
        <pt x="430" y="735" on="1"/>
        <pt x="300" y="681" on="1"/>
        <pt x="278" y="716" on="1"/>
      </contour>
      <contour>
        <pt x="474" y="167" on="1"/>
        <pt x="460" y="31" on="1"/>
        <pt x="374" y="-11" on="0"/>
        <pt x="272" y="-11" on="1"/>
        <pt x="150" y="-11" on="0"/>
        <pt x="44" y="122" on="0"/>
        <pt x="44" y="244" on="1"/>
        <pt x="44" y="362" on="0"/>
        <pt x="129" y="552" on="0"/>
        <pt x="277" y="660" on="0"/>
        <pt x="367" y="660" on="1"/>
        <pt x="450" y="660" on="0"/>
        <pt x="525" y="640" on="1"/>
        <pt x="503" y="493" on="1"/>
        <pt x="461" y="493" on="1"/>
        <pt x="454" y="589" on="1"/>
        <pt x="439" y="597" on="0"/>
        <pt x="382" y="609" on="0"/>
        <pt x="354" y="609" on="1"/>
        <pt x="250" y="609" on="0"/>
        <pt x="135" y="428" on="0"/>
        <pt x="135" y="267" on="1"/>
        <pt x="135" y="149" on="0"/>
        <pt x="207" y="40" on="0"/>
        <pt x="290" y="40" on="1"/>
        <pt x="322" y="40" on="0"/>
        <pt x="371" y="53" on="0"/>
        <pt x="398" y="68" on="0"/>
        <pt x="401" y="70" on="1"/>
        <pt x="432" y="167" on="1"/>
      </contour>
    </TTGlyph>
    <TTGlyph name="Cacute.loclPLK" xMin="44" yMin="-11" xMax="525" yMax="853">
      <contour>
        <pt x="461" y="853" on="1"/>
        <pt x="482" y="851" on="0"/>
        <pt x="512" y="821" on="0"/>
        <pt x="512" y="803" on="1"/>
        <pt x="512" y="781" on="0"/>
        <pt x="479" y="753" on="1"/>
        <pt x="386" y="668" on="1"/>
        <pt x="352" y="698" on="1"/>
      </contour>
      <contour>
        <pt x="474" y="167" on="1"/>
        <pt x="460" y="31" on="1"/>
        <pt x="374" y="-11" on="0"/>
        <pt x="272" y="-11" on="1"/>
        <pt x="150" y="-11" on="0"/>
        <pt x="44" y="122" on="0"/>
        <pt x="44" y="244" on="1"/>
        <pt x="44" y="362" on="0"/>
        <pt x="129" y="552" on="0"/>
        <pt x="277" y="660" on="0"/>
        <pt x="367" y="660" on="1"/>
        <pt x="450" y="660" on="0"/>
        <pt x="525" y="640" on="1"/>
        <pt x="503" y="493" on="1"/>
        <pt x="461" y="493" on="1"/>
        <pt x="454" y="589" on="1"/>
        <pt x="439" y="597" on="0"/>
        <pt x="382" y="609" on="0"/>
        <pt x="354" y="609" on="1"/>
        <pt x="250" y="609" on="0"/>
        <pt x="135" y="428" on="0"/>
        <pt x="135" y="267" on="1"/>
        <pt x="135" y="149" on="0"/>
        <pt x="207" y="40" on="0"/>
        <pt x="290" y="40" on="1"/>
        <pt x="322" y="40" on="0"/>
        <pt x="371" y="53" on="0"/>
        <pt x="398" y="68" on="0"/>
        <pt x="401" y="70" on="1"/>
        <pt x="432" y="167" on="1"/>
      </contour>
    </TTGlyph>
    <TTGlyph name="Ccaron" xMin="44" yMin="-11" xMax="525" yMax="838">
      <contour>
        <pt x="283" y="835" on="1"/>
        <pt x="381" y="766" on="1"/>
        <pt x="483" y="838" on="1"/>
        <pt x="508" y="805" on="1"/>
        <pt x="443" y="744" on="1"/>
        <pt x="385" y="689" on="0"/>
        <pt x="367" y="689" on="1"/>
        <pt x="355" y="689" on="0"/>
        <pt x="306" y="738" on="1"/>
        <pt x="248" y="797" on="1"/>
      </contour>
      <contour>
        <pt x="474" y="167" on="1"/>
        <pt x="460" y="31" on="1"/>
        <pt x="374" y="-11" on="0"/>
        <pt x="272" y="-11" on="1"/>
        <pt x="150" y="-11" on="0"/>
        <pt x="44" y="122" on="0"/>
        <pt x="44" y="244" on="1"/>
        <pt x="44" y="362" on="0"/>
        <pt x="129" y="552" on="0"/>
        <pt x="277" y="660" on="0"/>
        <pt x="367" y="660" on="1"/>
        <pt x="450" y="660" on="0"/>
        <pt x="525" y="640" on="1"/>
        <pt x="503" y="493" on="1"/>
        <pt x="461" y="493" on="1"/>
        <pt x="454" y="589" on="1"/>
        <pt x="439" y="597" on="0"/>
        <pt x="382" y="609" on="0"/>
        <pt x="354" y="609" on="1"/>
        <pt x="250" y="609" on="0"/>
        <pt x="135" y="428" on="0"/>
        <pt x="135" y="267" on="1"/>
        <pt x="135" y="149" on="0"/>
        <pt x="207" y="40" on="0"/>
        <pt x="290" y="40" on="1"/>
        <pt x="322" y="40" on="0"/>
        <pt x="371" y="53" on="0"/>
        <pt x="398" y="68" on="0"/>
        <pt x="401" y="70" on="1"/>
        <pt x="432" y="167" on="1"/>
      </contour>
    </TTGlyph>
    <TTGlyph name="Ccedilla" xMin="44" yMin="-187" xMax="525" yMax="660">
      <contour>
        <pt x="196" y="-137" on="0"/>
        <pt x="221" y="-145" on="0"/>
        <pt x="243" y="-145" on="1"/>
        <pt x="287" y="-145" on="0"/>
        <pt x="287" y="-122" on="1"/>
        <pt x="287" y="-109" on="0"/>
        <pt x="264" y="-96" on="1"/>
        <pt x="212" y="-69" on="1"/>
        <pt x="212" y="-49" on="1"/>
        <pt x="241" y="-10" on="1"/>
        <pt x="136" y="-1" on="0"/>
        <pt x="44" y="129" on="0"/>
        <pt x="44" y="244" on="1"/>
        <pt x="44" y="362" on="0"/>
        <pt x="129" y="552" on="0"/>
        <pt x="277" y="660" on="0"/>
        <pt x="367" y="660" on="1"/>
        <pt x="450" y="660" on="0"/>
        <pt x="525" y="640" on="1"/>
        <pt x="503" y="493" on="1"/>
        <pt x="461" y="493" on="1"/>
        <pt x="454" y="589" on="1"/>
        <pt x="439" y="597" on="0"/>
        <pt x="382" y="609" on="0"/>
        <pt x="354" y="609" on="1"/>
        <pt x="250" y="609" on="0"/>
        <pt x="135" y="428" on="0"/>
        <pt x="135" y="267" on="1"/>
        <pt x="135" y="149" on="0"/>
        <pt x="207" y="40" on="0"/>
        <pt x="290" y="40" on="1"/>
        <pt x="322" y="40" on="0"/>
        <pt x="371" y="53" on="0"/>
        <pt x="398" y="68" on="0"/>
        <pt x="401" y="70" on="1"/>
        <pt x="432" y="167" on="1"/>
        <pt x="474" y="167" on="1"/>
        <pt x="460" y="31" on="1"/>
        <pt x="381" y="-8" on="0"/>
        <pt x="289" y="-11" on="1"/>
        <pt x="289" y="-29" on="1"/>
        <pt x="323" y="-50" on="1"/>
        <pt x="355" y="-70" on="0"/>
        <pt x="355" y="-98" on="1"/>
        <pt x="355" y="-148" on="0"/>
        <pt x="292" y="-187" on="0"/>
        <pt x="247" y="-187" on="1"/>
        <pt x="201" y="-187" on="0"/>
        <pt x="163" y="-158" on="1"/>
        <pt x="183" y="-129" on="1"/>
      </contour>
    </TTGlyph>
    <TTGlyph name="Ccircumflex" xMin="44" yMin="-11" xMax="525" yMax="834">
      <component glyphName=".ttfautohint" x="44" y="0" flags="0x0"/>
      <component glyphName="C" x="0" y="0" flags="0x0"/>
      <component glyphName="uni0302.case" x="457" y="0" flags="0x0"/>
    </TTGlyph>
    <TTGlyph name="Cdotaccent" xMin="44" yMin="-11" xMax="525" yMax="817">
      <component glyphName=".ttfautohint" x="44" y="0" flags="0x0"/>
      <component glyphName="C" x="0" y="0" flags="0x0"/>
      <component glyphName="uni0307.case" x="372" y="0" flags="0x0"/>
    </TTGlyph>
    <TTGlyph name="D" xMin="15" yMin="0" xMax="593" yMax="648">
      <contour>
        <pt x="90" y="51" on="1"/>
        <pt x="167" y="597" on="1"/>
        <pt x="99" y="611" on="1"/>
        <pt x="103" y="648" on="1"/>
        <pt x="334" y="648" on="1"/>
        <pt x="454" y="648" on="0"/>
        <pt x="593" y="525" on="0"/>
        <pt x="593" y="406" on="1"/>
        <pt x="593" y="304" on="0"/>
        <pt x="515" y="118" on="0"/>
        <pt x="353" y="0" on="0"/>
        <pt x="232" y="0" on="1"/>
        <pt x="15" y="0" on="1"/>
        <pt x="19" y="37" on="1"/>
      </contour>
      <contour>
        <pt x="176" y="50" on="0"/>
        <pt x="224" y="45" on="0"/>
        <pt x="245" y="45" on="1"/>
        <pt x="367" y="45" on="0"/>
        <pt x="503" y="223" on="0"/>
        <pt x="505" y="377" on="1"/>
        <pt x="505" y="489" on="0"/>
        <pt x="415" y="601" on="0"/>
        <pt x="306" y="601" on="1"/>
        <pt x="277" y="601" on="0"/>
        <pt x="249" y="598" on="0"/>
        <pt x="246" y="597" on="1"/>
        <pt x="169" y="51" on="1"/>
      </contour>
    </TTGlyph>
    <TTGlyph name="Dcaron" xMin="10" yMin="0" xMax="588" yMax="838">
      <contour>
        <pt x="258" y="835" on="1"/>
        <pt x="356" y="766" on="1"/>
        <pt x="458" y="838" on="1"/>
        <pt x="483" y="805" on="1"/>
        <pt x="418" y="744" on="1"/>
        <pt x="360" y="689" on="0"/>
        <pt x="342" y="689" on="1"/>
        <pt x="330" y="689" on="0"/>
        <pt x="281" y="738" on="1"/>
        <pt x="223" y="797" on="1"/>
      </contour>
      <contour>
        <pt x="85" y="51" on="1"/>
        <pt x="162" y="597" on="1"/>
        <pt x="94" y="611" on="1"/>
        <pt x="98" y="648" on="1"/>
        <pt x="329" y="648" on="1"/>
        <pt x="449" y="648" on="0"/>
        <pt x="588" y="525" on="0"/>
        <pt x="588" y="406" on="1"/>
        <pt x="588" y="304" on="0"/>
        <pt x="510" y="118" on="0"/>
        <pt x="348" y="0" on="0"/>
        <pt x="227" y="0" on="1"/>
        <pt x="10" y="0" on="1"/>
        <pt x="14" y="37" on="1"/>
      </contour>
      <contour>
        <pt x="171" y="50" on="0"/>
        <pt x="219" y="45" on="0"/>
        <pt x="240" y="45" on="1"/>
        <pt x="362" y="45" on="0"/>
        <pt x="498" y="223" on="0"/>
        <pt x="500" y="377" on="1"/>
        <pt x="500" y="489" on="0"/>
        <pt x="410" y="601" on="0"/>
        <pt x="301" y="601" on="1"/>
        <pt x="272" y="601" on="0"/>
        <pt x="244" y="598" on="0"/>
        <pt x="241" y="597" on="1"/>
        <pt x="164" y="51" on="1"/>
      </contour>
    </TTGlyph>
    <TTGlyph name="Dcroat" xMin="10" yMin="0" xMax="588" yMax="648">
      <contour>
        <pt x="85" y="51" on="1"/>
        <pt x="121" y="311" on="1"/>
        <pt x="35" y="311" on="1"/>
        <pt x="43" y="363" on="1"/>
        <pt x="129" y="363" on="1"/>
        <pt x="162" y="597" on="1"/>
        <pt x="94" y="611" on="1"/>
        <pt x="98" y="648" on="1"/>
        <pt x="329" y="648" on="1"/>
        <pt x="449" y="648" on="0"/>
        <pt x="588" y="525" on="0"/>
        <pt x="588" y="406" on="1"/>
        <pt x="588" y="304" on="0"/>
        <pt x="510" y="118" on="0"/>
        <pt x="348" y="0" on="0"/>
        <pt x="227" y="0" on="1"/>
        <pt x="10" y="0" on="1"/>
        <pt x="14" y="37" on="1"/>
      </contour>
      <contour>
        <pt x="171" y="50" on="0"/>
        <pt x="219" y="45" on="0"/>
        <pt x="240" y="45" on="1"/>
        <pt x="362" y="45" on="0"/>
        <pt x="498" y="223" on="0"/>
        <pt x="500" y="377" on="1"/>
        <pt x="500" y="489" on="0"/>
        <pt x="410" y="601" on="0"/>
        <pt x="301" y="601" on="1"/>
        <pt x="272" y="601" on="0"/>
        <pt x="244" y="598" on="0"/>
        <pt x="241" y="597" on="1"/>
        <pt x="208" y="363" on="1"/>
        <pt x="353" y="363" on="1"/>
        <pt x="345" y="311" on="1"/>
        <pt x="200" y="311" on="1"/>
        <pt x="164" y="51" on="1"/>
      </contour>
    </TTGlyph>
    <TTGlyph name="E" xMin="16" yMin="0" xMax="498" yMax="648">
      <contour>
        <pt x="91" y="51" on="1"/>
        <pt x="168" y="597" on="1"/>
        <pt x="100" y="611" on="1"/>
        <pt x="104" y="648" on="1"/>
        <pt x="498" y="648" on="1"/>
        <pt x="477" y="492" on="1"/>
        <pt x="428" y="492" on="1"/>
        <pt x="428" y="602" on="1"/>
        <pt x="327" y="602" on="1"/>
        <pt x="247" y="597" on="1"/>
        <pt x="213" y="358" on="1"/>
        <pt x="344" y="358" on="1"/>
        <pt x="365" y="417" on="1"/>
        <pt x="401" y="417" on="1"/>
        <pt x="380" y="255" on="1"/>
        <pt x="344" y="255" on="1"/>
        <pt x="339" y="314" on="1"/>
        <pt x="207" y="314" on="1"/>
        <pt x="170" y="51" on="1"/>
        <pt x="176" y="50" on="0"/>
        <pt x="226" y="45" on="0"/>
        <pt x="262" y="45" on="1"/>
        <pt x="364" y="45" on="1"/>
        <pt x="402" y="152" on="1"/>
        <pt x="444" y="152" on="1"/>
        <pt x="425" y="0" on="1"/>
        <pt x="16" y="0" on="1"/>
        <pt x="20" y="37" on="1"/>
      </contour>
    </TTGlyph>
    <TTGlyph name="Eacute" xMin="16" yMin="0" xMax="498" yMax="836">
      <contour>
        <pt x="395" y="836" on="1"/>
        <pt x="410" y="829" on="0"/>
        <pt x="429" y="801" on="0"/>
        <pt x="429" y="786" on="1"/>
        <pt x="429" y="768" on="0"/>
        <pt x="405" y="745" on="0"/>
        <pt x="379" y="735" on="1"/>
        <pt x="249" y="681" on="1"/>
        <pt x="227" y="716" on="1"/>
      </contour>
      <contour>
        <pt x="91" y="51" on="1"/>
        <pt x="168" y="597" on="1"/>
        <pt x="100" y="611" on="1"/>
        <pt x="104" y="648" on="1"/>
        <pt x="498" y="648" on="1"/>
        <pt x="477" y="492" on="1"/>
        <pt x="428" y="492" on="1"/>
        <pt x="428" y="602" on="1"/>
        <pt x="327" y="602" on="1"/>
        <pt x="247" y="597" on="1"/>
        <pt x="213" y="358" on="1"/>
        <pt x="344" y="358" on="1"/>
        <pt x="365" y="417" on="1"/>
        <pt x="401" y="417" on="1"/>
        <pt x="380" y="255" on="1"/>
        <pt x="344" y="255" on="1"/>
        <pt x="339" y="314" on="1"/>
        <pt x="207" y="314" on="1"/>
        <pt x="170" y="51" on="1"/>
        <pt x="176" y="50" on="0"/>
        <pt x="226" y="45" on="0"/>
        <pt x="262" y="45" on="1"/>
        <pt x="364" y="45" on="1"/>
        <pt x="402" y="152" on="1"/>
        <pt x="444" y="152" on="1"/>
        <pt x="425" y="0" on="1"/>
        <pt x="16" y="0" on="1"/>
        <pt x="20" y="37" on="1"/>
      </contour>
    </TTGlyph>
    <TTGlyph name="Ebreve" xMin="16" yMin="0" xMax="498" yMax="829">
      <component glyphName=".ttfautohint" x="16" y="0" flags="0x0"/>
      <component glyphName="E" x="0" y="0" flags="0x0"/>
      <component glyphName="uni0306.case" x="399" y="0" flags="0x0"/>
    </TTGlyph>
    <TTGlyph name="Ecaron" xMin="16" yMin="0" xMax="498" yMax="840">
      <contour>
        <pt x="238" y="837" on="1"/>
        <pt x="336" y="768" on="1"/>
        <pt x="438" y="840" on="1"/>
        <pt x="463" y="807" on="1"/>
        <pt x="398" y="746" on="1"/>
        <pt x="340" y="691" on="0"/>
        <pt x="322" y="691" on="1"/>
        <pt x="310" y="691" on="0"/>
        <pt x="261" y="740" on="1"/>
        <pt x="203" y="799" on="1"/>
      </contour>
      <contour>
        <pt x="91" y="51" on="1"/>
        <pt x="168" y="597" on="1"/>
        <pt x="100" y="611" on="1"/>
        <pt x="104" y="648" on="1"/>
        <pt x="498" y="648" on="1"/>
        <pt x="477" y="492" on="1"/>
        <pt x="428" y="492" on="1"/>
        <pt x="428" y="602" on="1"/>
        <pt x="327" y="602" on="1"/>
        <pt x="247" y="597" on="1"/>
        <pt x="213" y="358" on="1"/>
        <pt x="344" y="358" on="1"/>
        <pt x="365" y="417" on="1"/>
        <pt x="401" y="417" on="1"/>
        <pt x="380" y="255" on="1"/>
        <pt x="344" y="255" on="1"/>
        <pt x="339" y="314" on="1"/>
        <pt x="207" y="314" on="1"/>
        <pt x="170" y="51" on="1"/>
        <pt x="176" y="50" on="0"/>
        <pt x="226" y="45" on="0"/>
        <pt x="262" y="45" on="1"/>
        <pt x="364" y="45" on="1"/>
        <pt x="402" y="152" on="1"/>
        <pt x="444" y="152" on="1"/>
        <pt x="425" y="0" on="1"/>
        <pt x="16" y="0" on="1"/>
        <pt x="20" y="37" on="1"/>
      </contour>
    </TTGlyph>
    <TTGlyph name="Ecircumflex" xMin="16" yMin="0" xMax="498" yMax="834">
      <contour>
        <pt x="263" y="781" on="1"/>
        <pt x="289" y="800" on="0"/>
        <pt x="299" y="809" on="1"/>
        <pt x="304" y="813" on="0"/>
        <pt x="327" y="829" on="0"/>
        <pt x="336" y="834" on="0"/>
        <pt x="339" y="834" on="1"/>
        <pt x="347" y="833" on="0"/>
        <pt x="400" y="788" on="0"/>
        <pt x="404" y="785" on="1"/>
        <pt x="464" y="730" on="1"/>
        <pt x="431" y="689" on="1"/>
        <pt x="325" y="756" on="1"/>
        <pt x="217" y="695" on="1"/>
        <pt x="192" y="728" on="1"/>
      </contour>
      <contour>
        <pt x="91" y="51" on="1"/>
        <pt x="168" y="597" on="1"/>
        <pt x="100" y="611" on="1"/>
        <pt x="104" y="648" on="1"/>
        <pt x="498" y="648" on="1"/>
        <pt x="477" y="492" on="1"/>
        <pt x="428" y="492" on="1"/>
        <pt x="428" y="602" on="1"/>
        <pt x="327" y="602" on="1"/>
        <pt x="247" y="597" on="1"/>
        <pt x="213" y="358" on="1"/>
        <pt x="344" y="358" on="1"/>
        <pt x="365" y="417" on="1"/>
        <pt x="401" y="417" on="1"/>
        <pt x="380" y="255" on="1"/>
        <pt x="344" y="255" on="1"/>
        <pt x="339" y="314" on="1"/>
        <pt x="207" y="314" on="1"/>
        <pt x="170" y="51" on="1"/>
        <pt x="176" y="50" on="0"/>
        <pt x="226" y="45" on="0"/>
        <pt x="262" y="45" on="1"/>
        <pt x="364" y="45" on="1"/>
        <pt x="402" y="152" on="1"/>
        <pt x="444" y="152" on="1"/>
        <pt x="425" y="0" on="1"/>
        <pt x="16" y="0" on="1"/>
        <pt x="20" y="37" on="1"/>
      </contour>
    </TTGlyph>
    <TTGlyph name="Edieresis" xMin="16" yMin="0" xMax="498" yMax="809">
      <contour>
        <pt x="197" y="693" on="0"/>
        <pt x="169" y="724" on="0"/>
        <pt x="169" y="749" on="1"/>
        <pt x="169" y="774" on="0"/>
        <pt x="200" y="809" on="0"/>
        <pt x="224" y="809" on="1"/>
        <pt x="247" y="809" on="0"/>
        <pt x="275" y="780" on="0"/>
        <pt x="275" y="755" on="1"/>
        <pt x="275" y="729" on="0"/>
        <pt x="245" y="693" on="0"/>
        <pt x="220" y="693" on="1"/>
      </contour>
      <contour>
        <pt x="408" y="693" on="0"/>
        <pt x="380" y="724" on="0"/>
        <pt x="380" y="749" on="1"/>
        <pt x="380" y="774" on="0"/>
        <pt x="411" y="809" on="0"/>
        <pt x="435" y="809" on="1"/>
        <pt x="458" y="809" on="0"/>
        <pt x="486" y="780" on="0"/>
        <pt x="486" y="755" on="1"/>
        <pt x="486" y="729" on="0"/>
        <pt x="456" y="693" on="0"/>
        <pt x="431" y="693" on="1"/>
      </contour>
      <contour>
        <pt x="91" y="51" on="1"/>
        <pt x="168" y="597" on="1"/>
        <pt x="100" y="611" on="1"/>
        <pt x="104" y="648" on="1"/>
        <pt x="498" y="648" on="1"/>
        <pt x="477" y="492" on="1"/>
        <pt x="428" y="492" on="1"/>
        <pt x="428" y="602" on="1"/>
        <pt x="327" y="602" on="1"/>
        <pt x="247" y="597" on="1"/>
        <pt x="213" y="358" on="1"/>
        <pt x="344" y="358" on="1"/>
        <pt x="365" y="417" on="1"/>
        <pt x="401" y="417" on="1"/>
        <pt x="380" y="255" on="1"/>
        <pt x="344" y="255" on="1"/>
        <pt x="339" y="314" on="1"/>
        <pt x="207" y="314" on="1"/>
        <pt x="170" y="51" on="1"/>
        <pt x="176" y="50" on="0"/>
        <pt x="226" y="45" on="0"/>
        <pt x="262" y="45" on="1"/>
        <pt x="364" y="45" on="1"/>
        <pt x="402" y="152" on="1"/>
        <pt x="444" y="152" on="1"/>
        <pt x="425" y="0" on="1"/>
        <pt x="16" y="0" on="1"/>
        <pt x="20" y="37" on="1"/>
      </contour>
    </TTGlyph>
    <TTGlyph name="Edotaccent" xMin="16" yMin="0" xMax="498" yMax="817">
      <contour>
        <pt x="302" y="699" on="0"/>
        <pt x="274" y="729" on="0"/>
        <pt x="274" y="751" on="1"/>
        <pt x="274" y="777" on="0"/>
        <pt x="305" y="817" on="0"/>
        <pt x="334" y="817" on="1"/>
        <pt x="357" y="817" on="0"/>
        <pt x="386" y="787" on="0"/>
        <pt x="386" y="763" on="1"/>
        <pt x="386" y="737" on="0"/>
        <pt x="354" y="699" on="0"/>
        <pt x="325" y="699" on="1"/>
      </contour>
      <contour>
        <pt x="91" y="51" on="1"/>
        <pt x="168" y="597" on="1"/>
        <pt x="100" y="611" on="1"/>
        <pt x="104" y="648" on="1"/>
        <pt x="498" y="648" on="1"/>
        <pt x="477" y="492" on="1"/>
        <pt x="428" y="492" on="1"/>
        <pt x="428" y="602" on="1"/>
        <pt x="327" y="602" on="1"/>
        <pt x="247" y="597" on="1"/>
        <pt x="213" y="358" on="1"/>
        <pt x="344" y="358" on="1"/>
        <pt x="365" y="417" on="1"/>
        <pt x="401" y="417" on="1"/>
        <pt x="380" y="255" on="1"/>
        <pt x="344" y="255" on="1"/>
        <pt x="339" y="314" on="1"/>
        <pt x="207" y="314" on="1"/>
        <pt x="170" y="51" on="1"/>
        <pt x="176" y="50" on="0"/>
        <pt x="226" y="45" on="0"/>
        <pt x="262" y="45" on="1"/>
        <pt x="364" y="45" on="1"/>
        <pt x="402" y="152" on="1"/>
        <pt x="444" y="152" on="1"/>
        <pt x="425" y="0" on="1"/>
        <pt x="16" y="0" on="1"/>
        <pt x="20" y="37" on="1"/>
      </contour>
    </TTGlyph>
    <TTGlyph name="Egrave" xMin="16" yMin="0" xMax="498" yMax="836">
      <contour>
        <pt x="220" y="745" on="0"/>
        <pt x="196" y="768" on="0"/>
        <pt x="196" y="786" on="1"/>
        <pt x="196" y="801" on="0"/>
        <pt x="215" y="829" on="0"/>
        <pt x="230" y="836" on="1"/>
        <pt x="398" y="716" on="1"/>
        <pt x="376" y="681" on="1"/>
        <pt x="246" y="735" on="1"/>
      </contour>
      <contour>
        <pt x="91" y="51" on="1"/>
        <pt x="168" y="597" on="1"/>
        <pt x="100" y="611" on="1"/>
        <pt x="104" y="648" on="1"/>
        <pt x="498" y="648" on="1"/>
        <pt x="477" y="492" on="1"/>
        <pt x="428" y="492" on="1"/>
        <pt x="428" y="602" on="1"/>
        <pt x="327" y="602" on="1"/>
        <pt x="247" y="597" on="1"/>
        <pt x="213" y="358" on="1"/>
        <pt x="344" y="358" on="1"/>
        <pt x="365" y="417" on="1"/>
        <pt x="401" y="417" on="1"/>
        <pt x="380" y="255" on="1"/>
        <pt x="344" y="255" on="1"/>
        <pt x="339" y="314" on="1"/>
        <pt x="207" y="314" on="1"/>
        <pt x="170" y="51" on="1"/>
        <pt x="176" y="50" on="0"/>
        <pt x="226" y="45" on="0"/>
        <pt x="262" y="45" on="1"/>
        <pt x="364" y="45" on="1"/>
        <pt x="402" y="152" on="1"/>
        <pt x="444" y="152" on="1"/>
        <pt x="425" y="0" on="1"/>
        <pt x="16" y="0" on="1"/>
        <pt x="20" y="37" on="1"/>
      </contour>
    </TTGlyph>
    <TTGlyph name="Emacron" xMin="16" yMin="0" xMax="498" yMax="782">
      <contour>
        <pt x="476" y="782" on="1"/>
        <pt x="468" y="719" on="1"/>
        <pt x="186" y="719" on="1"/>
        <pt x="194" y="782" on="1"/>
      </contour>
      <contour>
        <pt x="91" y="51" on="1"/>
        <pt x="168" y="597" on="1"/>
        <pt x="100" y="611" on="1"/>
        <pt x="104" y="648" on="1"/>
        <pt x="498" y="648" on="1"/>
        <pt x="477" y="492" on="1"/>
        <pt x="428" y="492" on="1"/>
        <pt x="428" y="602" on="1"/>
        <pt x="327" y="602" on="1"/>
        <pt x="247" y="597" on="1"/>
        <pt x="213" y="358" on="1"/>
        <pt x="344" y="358" on="1"/>
        <pt x="365" y="417" on="1"/>
        <pt x="401" y="417" on="1"/>
        <pt x="380" y="255" on="1"/>
        <pt x="344" y="255" on="1"/>
        <pt x="339" y="314" on="1"/>
        <pt x="207" y="314" on="1"/>
        <pt x="170" y="51" on="1"/>
        <pt x="176" y="50" on="0"/>
        <pt x="226" y="45" on="0"/>
        <pt x="262" y="45" on="1"/>
        <pt x="364" y="45" on="1"/>
        <pt x="402" y="152" on="1"/>
        <pt x="444" y="152" on="1"/>
        <pt x="425" y="0" on="1"/>
        <pt x="16" y="0" on="1"/>
        <pt x="20" y="37" on="1"/>
      </contour>
    </TTGlyph>
    <TTGlyph name="Eng" xMin="15" yMin="-167" xMax="659" yMax="648">
      <contour>
        <pt x="659" y="648" on="1"/>
        <pt x="655" y="611" on="1"/>
        <pt x="584" y="597" on="1"/>
        <pt x="505" y="37" on="1"/>
        <pt x="491" y="-63" on="0"/>
        <pt x="370" y="-167" on="0"/>
        <pt x="288" y="-167" on="1"/>
        <pt x="268" y="-167" on="0"/>
        <pt x="249" y="-151" on="0"/>
        <pt x="249" y="-131" on="1"/>
        <pt x="249" y="-109" on="0"/>
        <pt x="262" y="-91" on="0"/>
        <pt x="262" y="-91" on="1"/>
        <pt x="331" y="-91" on="1"/>
        <pt x="351" y="-91" on="0"/>
        <pt x="384" y="-84" on="0"/>
        <pt x="389" y="-79" on="1"/>
        <pt x="398" y="-70" on="0"/>
        <pt x="419" y="-32" on="0"/>
        <pt x="425" y="1" on="1"/>
        <pt x="214" y="519" on="1"/>
        <pt x="209" y="519" on="1"/>
        <pt x="143" y="51" on="1"/>
        <pt x="211" y="37" on="1"/>
        <pt x="208" y="0" on="1"/>
        <pt x="15" y="0" on="1"/>
        <pt x="19" y="37" on="1"/>
        <pt x="90" y="51" on="1"/>
        <pt x="167" y="597" on="1"/>
        <pt x="99" y="611" on="1"/>
        <pt x="103" y="648" on="1"/>
        <pt x="248" y="648" on="1"/>
        <pt x="459" y="121" on="1"/>
        <pt x="464" y="121" on="1"/>
        <pt x="531" y="597" on="1"/>
        <pt x="463" y="611" on="1"/>
        <pt x="466" y="648" on="1"/>
      </contour>
    </TTGlyph>
    <TTGlyph name="Eogonek" xMin="16" yMin="-177" xMax="498" yMax="648">
      <contour>
        <pt x="91" y="51" on="1"/>
        <pt x="168" y="597" on="1"/>
        <pt x="100" y="611" on="1"/>
        <pt x="104" y="648" on="1"/>
        <pt x="498" y="648" on="1"/>
        <pt x="477" y="492" on="1"/>
        <pt x="428" y="492" on="1"/>
        <pt x="428" y="602" on="1"/>
        <pt x="327" y="602" on="1"/>
        <pt x="247" y="597" on="1"/>
        <pt x="213" y="358" on="1"/>
        <pt x="344" y="358" on="1"/>
        <pt x="365" y="417" on="1"/>
        <pt x="401" y="417" on="1"/>
        <pt x="380" y="255" on="1"/>
        <pt x="344" y="255" on="1"/>
        <pt x="339" y="314" on="1"/>
        <pt x="207" y="314" on="1"/>
        <pt x="170" y="51" on="1"/>
        <pt x="176" y="50" on="0"/>
        <pt x="226" y="45" on="0"/>
        <pt x="262" y="45" on="1"/>
        <pt x="364" y="45" on="1"/>
        <pt x="402" y="152" on="1"/>
        <pt x="444" y="152" on="1"/>
        <pt x="425" y="0" on="1"/>
        <pt x="396" y="0" on="1"/>
        <pt x="344" y="-38" on="0"/>
        <pt x="344" y="-86" on="1"/>
        <pt x="344" y="-105" on="0"/>
        <pt x="365" y="-126" on="0"/>
        <pt x="385" y="-126" on="1"/>
        <pt x="397" y="-126" on="0"/>
        <pt x="422" y="-117" on="0"/>
        <pt x="440" y="-108" on="0"/>
        <pt x="442" y="-106" on="1"/>
        <pt x="458" y="-130" on="1"/>
        <pt x="458" y="-131" on="0"/>
        <pt x="427" y="-156" on="0"/>
        <pt x="380" y="-177" on="0"/>
        <pt x="353" y="-177" on="1"/>
        <pt x="278" y="-177" on="0"/>
        <pt x="278" y="-114" on="1"/>
        <pt x="278" y="-81" on="0"/>
        <pt x="318" y="-22" on="0"/>
        <pt x="353" y="0" on="1"/>
        <pt x="16" y="0" on="1"/>
        <pt x="20" y="37" on="1"/>
      </contour>
    </TTGlyph>
    <TTGlyph name="Eth" xMin="15" yMin="0" xMax="593" yMax="648">
      <contour>
        <pt x="90" y="51" on="1"/>
        <pt x="126" y="311" on="1"/>
        <pt x="40" y="311" on="1"/>
        <pt x="48" y="363" on="1"/>
        <pt x="134" y="363" on="1"/>
        <pt x="167" y="597" on="1"/>
        <pt x="99" y="611" on="1"/>
        <pt x="103" y="648" on="1"/>
        <pt x="334" y="648" on="1"/>
        <pt x="454" y="648" on="0"/>
        <pt x="593" y="525" on="0"/>
        <pt x="593" y="406" on="1"/>
        <pt x="593" y="304" on="0"/>
        <pt x="515" y="118" on="0"/>
        <pt x="353" y="0" on="0"/>
        <pt x="232" y="0" on="1"/>
        <pt x="15" y="0" on="1"/>
        <pt x="19" y="37" on="1"/>
      </contour>
      <contour>
        <pt x="176" y="50" on="0"/>
        <pt x="224" y="45" on="0"/>
        <pt x="245" y="45" on="1"/>
        <pt x="367" y="45" on="0"/>
        <pt x="503" y="223" on="0"/>
        <pt x="505" y="377" on="1"/>
        <pt x="505" y="489" on="0"/>
        <pt x="415" y="601" on="0"/>
        <pt x="306" y="601" on="1"/>
        <pt x="277" y="601" on="0"/>
        <pt x="249" y="598" on="0"/>
        <pt x="246" y="597" on="1"/>
        <pt x="213" y="363" on="1"/>
        <pt x="358" y="363" on="1"/>
        <pt x="350" y="311" on="1"/>
        <pt x="205" y="311" on="1"/>
        <pt x="169" y="51" on="1"/>
      </contour>
    </TTGlyph>
    <TTGlyph name="Euro" xMin="6" yMin="-11" xMax="522" yMax="660">
      <contour>
        <pt x="419" y="660" on="0"/>
        <pt x="496" y="648" on="0"/>
        <pt x="522" y="640" on="1"/>
        <pt x="500" y="493" on="1"/>
        <pt x="458" y="493" on="1"/>
        <pt x="451" y="589" on="1"/>
        <pt x="438" y="597" on="0"/>
        <pt x="386" y="609" on="0"/>
        <pt x="361" y="609" on="1"/>
        <pt x="287" y="609" on="0"/>
        <pt x="196" y="497" on="0"/>
        <pt x="175" y="405" on="1"/>
        <pt x="386" y="405" on="1"/>
        <pt x="359" y="348" on="1"/>
        <pt x="21" y="348" on="1"/>
        <pt x="48" y="405" on="1"/>
        <pt x="97" y="405" on="1"/>
        <pt x="132" y="527" on="0"/>
        <pt x="275" y="660" on="0"/>
        <pt x="385" y="660" on="1"/>
      </contour>
      <contour>
        <pt x="427" y="167" on="1"/>
        <pt x="469" y="167" on="1"/>
        <pt x="455" y="31" on="1"/>
        <pt x="424" y="15" on="0"/>
        <pt x="337" y="-11" on="0"/>
        <pt x="291" y="-11" on="1"/>
        <pt x="191" y="-11" on="0"/>
        <pt x="84" y="125" on="0"/>
        <pt x="81" y="243" on="1"/>
        <pt x="6" y="243" on="1"/>
        <pt x="33" y="300" on="1"/>
        <pt x="342" y="300" on="1"/>
        <pt x="315" y="243" on="1"/>
        <pt x="162" y="243" on="1"/>
        <pt x="166" y="149" on="0"/>
        <pt x="234" y="40" on="0"/>
        <pt x="304" y="40" on="1"/>
        <pt x="356" y="40" on="0"/>
        <pt x="396" y="70" on="1"/>
      </contour>
    </TTGlyph>
    <TTGlyph name="Euro.osf" xMin="18" yMin="-11" xMax="533" yMax="531">
      <contour>
        <pt x="113" y="335" on="1"/>
        <pt x="143" y="422" on="0"/>
        <pt x="273" y="531" on="0"/>
        <pt x="375" y="531" on="1"/>
        <pt x="429" y="531" on="0"/>
        <pt x="498" y="515" on="0"/>
        <pt x="533" y="500" on="1"/>
        <pt x="516" y="367" on="1"/>
        <pt x="471" y="367" on="1"/>
        <pt x="463" y="461" on="1"/>
        <pt x="460" y="462" on="0"/>
        <pt x="436" y="469" on="0"/>
        <pt x="395" y="475" on="0"/>
        <pt x="371" y="475" on="1"/>
        <pt x="294" y="475" on="0"/>
        <pt x="212" y="407" on="0"/>
        <pt x="192" y="335" on="1"/>
        <pt x="404" y="335" on="1"/>
        <pt x="377" y="278" on="1"/>
        <pt x="59" y="278" on="1"/>
        <pt x="86" y="335" on="1"/>
      </contour>
      <contour>
        <pt x="354" y="230" on="1"/>
        <pt x="327" y="173" on="1"/>
        <pt x="176" y="173" on="1"/>
        <pt x="176" y="104" on="0"/>
        <pt x="246" y="45" on="0"/>
        <pt x="313" y="45" on="1"/>
        <pt x="344" y="45" on="0"/>
        <pt x="392" y="56" on="0"/>
        <pt x="418" y="68" on="0"/>
        <pt x="421" y="70" on="1"/>
        <pt x="451" y="163" on="1"/>
        <pt x="496" y="163" on="1"/>
        <pt x="477" y="26" on="1"/>
        <pt x="435" y="9" on="0"/>
        <pt x="356" y="-11" on="0"/>
        <pt x="294" y="-11" on="1"/>
        <pt x="193" y="-11" on="0"/>
        <pt x="92" y="75" on="0"/>
        <pt x="91" y="173" on="1"/>
        <pt x="18" y="173" on="1"/>
        <pt x="45" y="230" on="1"/>
      </contour>
    </TTGlyph>
    <TTGlyph name="F" xMin="16" yMin="0" xMax="505" yMax="648">
      <contour>
        <pt x="91" y="51" on="1"/>
        <pt x="168" y="597" on="1"/>
        <pt x="100" y="611" on="1"/>
        <pt x="104" y="648" on="1"/>
        <pt x="505" y="648" on="1"/>
        <pt x="482" y="499" on="1"/>
        <pt x="432" y="499" on="1"/>
        <pt x="432" y="598" on="1"/>
        <pt x="331" y="598" on="1"/>
        <pt x="246" y="590" on="1"/>
        <pt x="210" y="338" on="1"/>
        <pt x="354" y="338" on="1"/>
        <pt x="374" y="398" on="1"/>
        <pt x="410" y="398" on="1"/>
        <pt x="386" y="226" on="1"/>
        <pt x="351" y="226" on="1"/>
        <pt x="347" y="288" on="1"/>
        <pt x="204" y="288" on="1"/>
        <pt x="170" y="53" on="1"/>
        <pt x="266" y="39" on="1"/>
        <pt x="263" y="0" on="1"/>
        <pt x="16" y="0" on="1"/>
        <pt x="20" y="37" on="1"/>
      </contour>
    </TTGlyph>
    <TTGlyph name="G" xMin="48" yMin="-11" xMax="530" yMax="660">
      <contour>
        <pt x="403" y="27" on="1"/>
        <pt x="378" y="11" on="0"/>
        <pt x="315" y="-11" on="0"/>
        <pt x="261" y="-11" on="1"/>
        <pt x="158" y="-11" on="0"/>
        <pt x="48" y="118" on="0"/>
        <pt x="48" y="241" on="1"/>
        <pt x="48" y="351" on="0"/>
        <pt x="124" y="543" on="0"/>
        <pt x="269" y="660" on="0"/>
        <pt x="367" y="660" on="1"/>
        <pt x="406" y="660" on="0"/>
        <pt x="479" y="650" on="0"/>
        <pt x="524" y="640" on="0"/>
        <pt x="530" y="638" on="1"/>
        <pt x="511" y="491" on="1"/>
        <pt x="469" y="491" on="1"/>
        <pt x="463" y="581" on="1"/>
        <pt x="459" y="583" on="0"/>
        <pt x="430" y="597" on="0"/>
        <pt x="379" y="609" on="0"/>
        <pt x="348" y="609" on="1"/>
        <pt x="289" y="609" on="0"/>
        <pt x="194" y="537" on="0"/>
        <pt x="138" y="381" on="0"/>
        <pt x="138" y="262" on="1"/>
        <pt x="138" y="144" on="0"/>
        <pt x="212" y="40" on="0"/>
        <pt x="285" y="40" on="1"/>
        <pt x="322" y="40" on="0"/>
        <pt x="375" y="57" on="0"/>
        <pt x="405" y="72" on="1"/>
        <pt x="432" y="260" on="1"/>
        <pt x="326" y="278" on="1"/>
        <pt x="331" y="321" on="1"/>
        <pt x="509" y="321" on="1"/>
        <pt x="466" y="0" on="1"/>
        <pt x="433" y="0" on="1"/>
        <pt x="411" y="27" on="1"/>
      </contour>
    </TTGlyph>
    <TTGlyph name="G_tilde.loclGUA" xMin="48" yMin="-11" xMax="563" yMax="818">
      <component glyphName=".ttfautohint" x="48" y="0" flags="0x0"/>
      <component glyphName="G" x="0" y="0" flags="0x0"/>
      <component glyphName="tildecomb.case" x="488" y="0" flags="0x0"/>
    </TTGlyph>
    <TTGlyph name="Gbreve" xMin="40" yMin="-11" xMax="522" yMax="829">
      <contour>
        <pt x="522" y="806" on="0"/>
        <pt x="473" y="746" on="0"/>
        <pt x="393" y="695" on="0"/>
        <pt x="343" y="695" on="1"/>
        <pt x="306" y="695" on="0"/>
        <pt x="253" y="724" on="0"/>
        <pt x="225" y="766" on="0"/>
        <pt x="225" y="785" on="1"/>
        <pt x="225" y="796" on="0"/>
        <pt x="253" y="818" on="0"/>
        <pt x="272" y="826" on="1"/>
        <pt x="272" y="823" on="0"/>
        <pt x="291" y="788" on="0"/>
        <pt x="328" y="758" on="0"/>
        <pt x="356" y="758" on="1"/>
        <pt x="394" y="758" on="0"/>
        <pt x="458" y="790" on="0"/>
        <pt x="501" y="827" on="0"/>
        <pt x="501" y="829" on="1"/>
        <pt x="522" y="810" on="1"/>
      </contour>
      <contour>
        <pt x="395" y="27" on="1"/>
        <pt x="370" y="11" on="0"/>
        <pt x="307" y="-11" on="0"/>
        <pt x="253" y="-11" on="1"/>
        <pt x="150" y="-11" on="0"/>
        <pt x="40" y="118" on="0"/>
        <pt x="40" y="241" on="1"/>
        <pt x="40" y="351" on="0"/>
        <pt x="116" y="543" on="0"/>
        <pt x="261" y="660" on="0"/>
        <pt x="359" y="660" on="1"/>
        <pt x="398" y="660" on="0"/>
        <pt x="471" y="650" on="0"/>
        <pt x="516" y="640" on="0"/>
        <pt x="522" y="638" on="1"/>
        <pt x="503" y="491" on="1"/>
        <pt x="461" y="491" on="1"/>
        <pt x="455" y="581" on="1"/>
        <pt x="451" y="583" on="0"/>
        <pt x="422" y="597" on="0"/>
        <pt x="371" y="609" on="0"/>
        <pt x="340" y="609" on="1"/>
        <pt x="281" y="609" on="0"/>
        <pt x="186" y="537" on="0"/>
        <pt x="130" y="381" on="0"/>
        <pt x="130" y="262" on="1"/>
        <pt x="130" y="144" on="0"/>
        <pt x="204" y="40" on="0"/>
        <pt x="277" y="40" on="1"/>
        <pt x="314" y="40" on="0"/>
        <pt x="367" y="57" on="0"/>
        <pt x="397" y="72" on="1"/>
        <pt x="424" y="260" on="1"/>
        <pt x="318" y="278" on="1"/>
        <pt x="323" y="321" on="1"/>
        <pt x="501" y="321" on="1"/>
        <pt x="458" y="0" on="1"/>
        <pt x="425" y="0" on="1"/>
        <pt x="403" y="27" on="1"/>
      </contour>
    </TTGlyph>
    <TTGlyph name="Gcaron" xMin="48" yMin="-11" xMax="530" yMax="838">
      <component glyphName=".ttfautohint" x="48" y="0" flags="0x0"/>
      <component glyphName="G" x="0" y="0" flags="0x0"/>
      <component glyphName="uni030C.case" x="446" y="0" flags="0x0"/>
    </TTGlyph>
    <TTGlyph name="Gcircumflex" xMin="48" yMin="-11" xMax="531" yMax="834">
      <component glyphName=".ttfautohint" x="48" y="0" flags="0x0"/>
      <component glyphName="G" x="0" y="0" flags="0x0"/>
      <component glyphName="uni0302.case" x="464" y="0" flags="0x0"/>
    </TTGlyph>
    <TTGlyph name="Gcommaaccent" xMin="40" yMin="-201" xMax="522" yMax="660">
      <contour>
        <pt x="395" y="27" on="1"/>
        <pt x="370" y="11" on="0"/>
        <pt x="307" y="-11" on="0"/>
        <pt x="253" y="-11" on="1"/>
        <pt x="150" y="-11" on="0"/>
        <pt x="40" y="118" on="0"/>
        <pt x="40" y="241" on="1"/>
        <pt x="40" y="351" on="0"/>
        <pt x="116" y="543" on="0"/>
        <pt x="261" y="660" on="0"/>
        <pt x="359" y="660" on="1"/>
        <pt x="398" y="660" on="0"/>
        <pt x="471" y="650" on="0"/>
        <pt x="516" y="640" on="0"/>
        <pt x="522" y="638" on="1"/>
        <pt x="503" y="491" on="1"/>
        <pt x="461" y="491" on="1"/>
        <pt x="455" y="581" on="1"/>
        <pt x="451" y="583" on="0"/>
        <pt x="422" y="597" on="0"/>
        <pt x="371" y="609" on="0"/>
        <pt x="340" y="609" on="1"/>
        <pt x="281" y="609" on="0"/>
        <pt x="186" y="537" on="0"/>
        <pt x="130" y="381" on="0"/>
        <pt x="130" y="262" on="1"/>
        <pt x="130" y="144" on="0"/>
        <pt x="204" y="40" on="0"/>
        <pt x="277" y="40" on="1"/>
        <pt x="314" y="40" on="0"/>
        <pt x="367" y="57" on="0"/>
        <pt x="397" y="72" on="1"/>
        <pt x="424" y="260" on="1"/>
        <pt x="318" y="278" on="1"/>
        <pt x="323" y="321" on="1"/>
        <pt x="501" y="321" on="1"/>
        <pt x="458" y="0" on="1"/>
        <pt x="425" y="0" on="1"/>
        <pt x="403" y="27" on="1"/>
      </contour>
      <contour>
        <pt x="204" y="-181" on="0"/>
        <pt x="222" y="-161" on="0"/>
        <pt x="238" y="-130" on="0"/>
        <pt x="238" y="-113" on="1"/>
        <pt x="238" y="-78" on="0"/>
        <pt x="214" y="-56" on="1"/>
        <pt x="228" y="-33" on="0"/>
        <pt x="258" y="-33" on="1"/>
        <pt x="280" y="-33" on="0"/>
        <pt x="309" y="-61" on="0"/>
        <pt x="309" y="-91" on="1"/>
        <pt x="309" y="-129" on="0"/>
        <pt x="243" y="-190" on="0"/>
        <pt x="218" y="-201" on="1"/>
        <pt x="201" y="-184" on="1"/>
      </contour>
    </TTGlyph>
    <TTGlyph name="Gdotaccent" xMin="48" yMin="-11" xMax="530" yMax="817">
      <component glyphName=".ttfautohint" x="48" y="0" flags="0x0"/>
      <component glyphName="G" x="0" y="0" flags="0x0"/>
      <component glyphName="uni0307.case" x="379" y="0" flags="0x0"/>
    </TTGlyph>
    <TTGlyph name="H" xMin="15" yMin="0" xMax="661" yMax="648">
      <contour>
        <pt x="90" y="51" on="1"/>
        <pt x="167" y="597" on="1"/>
        <pt x="99" y="611" on="1"/>
        <pt x="103" y="648" on="1"/>
        <pt x="321" y="648" on="1"/>
        <pt x="317" y="611" on="1"/>
        <pt x="246" y="597" on="1"/>
        <pt x="213" y="360" on="1"/>
        <pt x="474" y="360" on="1"/>
        <pt x="507" y="597" on="1"/>
        <pt x="439" y="611" on="1"/>
        <pt x="443" y="648" on="1"/>
        <pt x="661" y="648" on="1"/>
        <pt x="657" y="611" on="1"/>
        <pt x="586" y="597" on="1"/>
        <pt x="509" y="51" on="1"/>
        <pt x="577" y="37" on="1"/>
        <pt x="574" y="0" on="1"/>
        <pt x="355" y="0" on="1"/>
        <pt x="359" y="37" on="1"/>
        <pt x="430" y="51" on="1"/>
        <pt x="466" y="305" on="1"/>
        <pt x="205" y="305" on="1"/>
        <pt x="169" y="51" on="1"/>
        <pt x="237" y="37" on="1"/>
        <pt x="234" y="0" on="1"/>
        <pt x="15" y="0" on="1"/>
        <pt x="19" y="37" on="1"/>
      </contour>
    </TTGlyph>
    <TTGlyph name="Hbar" xMin="15" yMin="0" xMax="661" yMax="648">
      <contour>
        <pt x="586" y="597" on="1"/>
        <pt x="570" y="484" on="1"/>
        <pt x="636" y="484" on="1"/>
        <pt x="628" y="432" on="1"/>
        <pt x="563" y="432" on="1"/>
        <pt x="509" y="51" on="1"/>
        <pt x="577" y="37" on="1"/>
        <pt x="574" y="0" on="1"/>
        <pt x="355" y="0" on="1"/>
        <pt x="359" y="37" on="1"/>
        <pt x="430" y="51" on="1"/>
        <pt x="460" y="267" on="1"/>
        <pt x="199" y="267" on="1"/>
        <pt x="169" y="51" on="1"/>
        <pt x="237" y="37" on="1"/>
        <pt x="234" y="0" on="1"/>
        <pt x="15" y="0" on="1"/>
        <pt x="19" y="37" on="1"/>
        <pt x="90" y="51" on="1"/>
        <pt x="144" y="432" on="1"/>
        <pt x="78" y="432" on="1"/>
        <pt x="86" y="484" on="1"/>
        <pt x="151" y="484" on="1"/>
        <pt x="167" y="597" on="1"/>
        <pt x="99" y="611" on="1"/>
        <pt x="103" y="648" on="1"/>
        <pt x="321" y="648" on="1"/>
        <pt x="317" y="611" on="1"/>
        <pt x="246" y="597" on="1"/>
        <pt x="230" y="484" on="1"/>
        <pt x="491" y="484" on="1"/>
        <pt x="507" y="597" on="1"/>
        <pt x="439" y="611" on="1"/>
        <pt x="443" y="648" on="1"/>
        <pt x="661" y="648" on="1"/>
        <pt x="657" y="611" on="1"/>
      </contour>
      <contour>
        <pt x="484" y="432" on="1"/>
        <pt x="223" y="432" on="1"/>
        <pt x="207" y="322" on="1"/>
        <pt x="468" y="322" on="1"/>
      </contour>
    </TTGlyph>
    <TTGlyph name="Hcircumflex" xMin="15" yMin="0" xMax="661" yMax="834">
      <component glyphName=".ttfautohint" x="15" y="0" flags="0x0"/>
      <component glyphName="H" x="0" y="0" flags="0x0"/>
      <component glyphName="uni0302.case" x="467" y="0" flags="0x0"/>
    </TTGlyph>
    <TTGlyph name="I" xMin="16" yMin="0" xMax="322" yMax="648">
      <contour>
        <pt x="91" y="51" on="1"/>
        <pt x="168" y="597" on="1"/>
        <pt x="100" y="611" on="1"/>
        <pt x="104" y="648" on="1"/>
        <pt x="322" y="648" on="1"/>
        <pt x="318" y="611" on="1"/>
        <pt x="247" y="597" on="1"/>
        <pt x="170" y="51" on="1"/>
        <pt x="238" y="37" on="1"/>
        <pt x="235" y="0" on="1"/>
        <pt x="16" y="0" on="1"/>
        <pt x="20" y="37" on="1"/>
      </contour>
    </TTGlyph>
    <TTGlyph name="IJ" xMin="16" yMin="-14" xMax="738" yMax="648">
      <component glyphName=".ttfautohint" x="16" y="0" flags="0x0"/>
      <component glyphName="I" x="0" y="0" flags="0x0"/>
      <component glyphName="J" x="327" y="0" flags="0x0"/>
    </TTGlyph>
    <TTGlyph name="Iacute" xMin="15" yMin="0" xMax="335" yMax="836">
      <contour>
        <pt x="301" y="836" on="1"/>
        <pt x="316" y="829" on="0"/>
        <pt x="335" y="801" on="0"/>
        <pt x="335" y="786" on="1"/>
        <pt x="335" y="768" on="0"/>
        <pt x="311" y="745" on="0"/>
        <pt x="285" y="735" on="1"/>
        <pt x="155" y="681" on="1"/>
        <pt x="133" y="716" on="1"/>
      </contour>
      <contour>
        <pt x="90" y="51" on="1"/>
        <pt x="167" y="597" on="1"/>
        <pt x="99" y="611" on="1"/>
        <pt x="103" y="648" on="1"/>
        <pt x="321" y="648" on="1"/>
        <pt x="317" y="611" on="1"/>
        <pt x="246" y="597" on="1"/>
        <pt x="169" y="51" on="1"/>
        <pt x="237" y="37" on="1"/>
        <pt x="234" y="0" on="1"/>
        <pt x="15" y="0" on="1"/>
        <pt x="19" y="37" on="1"/>
      </contour>
    </TTGlyph>
    <TTGlyph name="Iacute_J.loclNLD" xMin="16" yMin="-14" xMax="788" yMax="836">
      <component glyphName=".ttfautohint" x="16" y="0" flags="0x0"/>
      <component glyphName="I" x="0" y="0" flags="0x0"/>
      <component glyphName="acutecomb.case" x="302" y="0" flags="0x0"/>
      <component glyphName="J" x="327" y="0" flags="0x0"/>
      <component glyphName="acutecomb.case" x="713" y="0" flags="0x0"/>
    </TTGlyph>
    <TTGlyph name="Ibreve" xMin="16" yMin="0" xMax="385" yMax="829">
      <component glyphName=".ttfautohint" x="16" y="0" flags="0x0"/>
      <component glyphName="I" x="0" y="0" flags="0x0"/>
      <component glyphName="uni0306.case" x="306" y="0" flags="0x0"/>
    </TTGlyph>
    <TTGlyph name="Icircumflex" xMin="1" yMin="0" xMax="340" yMax="834">
      <contour>
        <pt x="139" y="781" on="1"/>
        <pt x="165" y="800" on="0"/>
        <pt x="175" y="809" on="1"/>
        <pt x="180" y="813" on="0"/>
        <pt x="203" y="829" on="0"/>
        <pt x="212" y="834" on="0"/>
        <pt x="215" y="834" on="1"/>
        <pt x="223" y="833" on="0"/>
        <pt x="276" y="788" on="0"/>
        <pt x="280" y="785" on="1"/>
        <pt x="340" y="730" on="1"/>
        <pt x="307" y="689" on="1"/>
        <pt x="201" y="756" on="1"/>
        <pt x="93" y="695" on="1"/>
        <pt x="68" y="728" on="1"/>
      </contour>
      <contour>
        <pt x="76" y="51" on="1"/>
        <pt x="153" y="597" on="1"/>
        <pt x="85" y="611" on="1"/>
        <pt x="89" y="648" on="1"/>
        <pt x="307" y="648" on="1"/>
        <pt x="303" y="611" on="1"/>
        <pt x="232" y="597" on="1"/>
        <pt x="155" y="51" on="1"/>
        <pt x="223" y="37" on="1"/>
        <pt x="220" y="0" on="1"/>
        <pt x="1" y="0" on="1"/>
        <pt x="5" y="37" on="1"/>
      </contour>
    </TTGlyph>
    <TTGlyph name="Idieresis" xMin="15" yMin="0" xMax="375" yMax="809">
      <contour>
        <pt x="106" y="693" on="0"/>
        <pt x="78" y="724" on="0"/>
        <pt x="78" y="749" on="1"/>
        <pt x="78" y="774" on="0"/>
        <pt x="109" y="809" on="0"/>
        <pt x="133" y="809" on="1"/>
        <pt x="156" y="809" on="0"/>
        <pt x="184" y="780" on="0"/>
        <pt x="184" y="755" on="1"/>
        <pt x="184" y="729" on="0"/>
        <pt x="154" y="693" on="0"/>
        <pt x="129" y="693" on="1"/>
      </contour>
      <contour>
        <pt x="297" y="693" on="0"/>
        <pt x="269" y="724" on="0"/>
        <pt x="269" y="749" on="1"/>
        <pt x="269" y="774" on="0"/>
        <pt x="300" y="809" on="0"/>
        <pt x="324" y="809" on="1"/>
        <pt x="347" y="809" on="0"/>
        <pt x="375" y="780" on="0"/>
        <pt x="375" y="755" on="1"/>
        <pt x="375" y="729" on="0"/>
        <pt x="345" y="693" on="0"/>
        <pt x="320" y="693" on="1"/>
      </contour>
      <contour>
        <pt x="90" y="51" on="1"/>
        <pt x="167" y="597" on="1"/>
        <pt x="99" y="611" on="1"/>
        <pt x="103" y="648" on="1"/>
        <pt x="321" y="648" on="1"/>
        <pt x="317" y="611" on="1"/>
        <pt x="246" y="597" on="1"/>
        <pt x="169" y="51" on="1"/>
        <pt x="237" y="37" on="1"/>
        <pt x="234" y="0" on="1"/>
        <pt x="15" y="0" on="1"/>
        <pt x="19" y="37" on="1"/>
      </contour>
    </TTGlyph>
    <TTGlyph name="Idotaccent" xMin="10" yMin="0" xMax="316" yMax="817">
      <contour>
        <pt x="198" y="699" on="0"/>
        <pt x="170" y="729" on="0"/>
        <pt x="170" y="751" on="1"/>
        <pt x="170" y="777" on="0"/>
        <pt x="201" y="817" on="0"/>
        <pt x="230" y="817" on="1"/>
        <pt x="253" y="817" on="0"/>
        <pt x="282" y="787" on="0"/>
        <pt x="282" y="763" on="1"/>
        <pt x="282" y="737" on="0"/>
        <pt x="250" y="699" on="0"/>
        <pt x="221" y="699" on="1"/>
      </contour>
      <contour>
        <pt x="85" y="51" on="1"/>
        <pt x="162" y="597" on="1"/>
        <pt x="94" y="611" on="1"/>
        <pt x="98" y="648" on="1"/>
        <pt x="316" y="648" on="1"/>
        <pt x="312" y="611" on="1"/>
        <pt x="241" y="597" on="1"/>
        <pt x="164" y="51" on="1"/>
        <pt x="232" y="37" on="1"/>
        <pt x="229" y="0" on="1"/>
        <pt x="10" y="0" on="1"/>
        <pt x="14" y="37" on="1"/>
      </contour>
    </TTGlyph>
    <TTGlyph name="Igrave" xMin="15" yMin="0" xMax="321" yMax="836">
      <contour>
        <pt x="131" y="745" on="0"/>
        <pt x="107" y="768" on="0"/>
        <pt x="107" y="786" on="1"/>
        <pt x="107" y="801" on="0"/>
        <pt x="126" y="829" on="0"/>
        <pt x="141" y="836" on="1"/>
        <pt x="309" y="716" on="1"/>
        <pt x="287" y="681" on="1"/>
        <pt x="157" y="735" on="1"/>
      </contour>
      <contour>
        <pt x="90" y="51" on="1"/>
        <pt x="167" y="597" on="1"/>
        <pt x="99" y="611" on="1"/>
        <pt x="103" y="648" on="1"/>
        <pt x="321" y="648" on="1"/>
        <pt x="317" y="611" on="1"/>
        <pt x="246" y="597" on="1"/>
        <pt x="169" y="51" on="1"/>
        <pt x="237" y="37" on="1"/>
        <pt x="234" y="0" on="1"/>
        <pt x="15" y="0" on="1"/>
        <pt x="19" y="37" on="1"/>
      </contour>
    </TTGlyph>
    <TTGlyph name="Imacron" xMin="15" yMin="0" xMax="350" yMax="782">
      <contour>
        <pt x="350" y="782" on="1"/>
        <pt x="341" y="719" on="1"/>
        <pt x="101" y="719" on="1"/>
        <pt x="110" y="782" on="1"/>
      </contour>
      <contour>
        <pt x="90" y="51" on="1"/>
        <pt x="167" y="597" on="1"/>
        <pt x="99" y="611" on="1"/>
        <pt x="103" y="648" on="1"/>
        <pt x="321" y="648" on="1"/>
        <pt x="317" y="611" on="1"/>
        <pt x="246" y="597" on="1"/>
        <pt x="169" y="51" on="1"/>
        <pt x="237" y="37" on="1"/>
        <pt x="234" y="0" on="1"/>
        <pt x="15" y="0" on="1"/>
        <pt x="19" y="37" on="1"/>
      </contour>
    </TTGlyph>
    <TTGlyph name="Iogonek" xMin="15" yMin="-177" xMax="321" yMax="648">
      <contour>
        <pt x="90" y="51" on="1"/>
        <pt x="167" y="597" on="1"/>
        <pt x="99" y="611" on="1"/>
        <pt x="103" y="648" on="1"/>
        <pt x="321" y="648" on="1"/>
        <pt x="317" y="611" on="1"/>
        <pt x="246" y="597" on="1"/>
        <pt x="169" y="51" on="1"/>
        <pt x="237" y="37" on="1"/>
        <pt x="234" y="0" on="1"/>
        <pt x="141" y="0" on="1"/>
        <pt x="89" y="-38" on="0"/>
        <pt x="89" y="-86" on="1"/>
        <pt x="89" y="-105" on="0"/>
        <pt x="110" y="-126" on="0"/>
        <pt x="130" y="-126" on="1"/>
        <pt x="142" y="-126" on="0"/>
        <pt x="167" y="-117" on="0"/>
        <pt x="185" y="-108" on="0"/>
        <pt x="187" y="-106" on="1"/>
        <pt x="203" y="-130" on="1"/>
        <pt x="203" y="-131" on="0"/>
        <pt x="172" y="-156" on="0"/>
        <pt x="125" y="-177" on="0"/>
        <pt x="98" y="-177" on="1"/>
        <pt x="23" y="-177" on="0"/>
        <pt x="23" y="-114" on="1"/>
        <pt x="23" y="-81" on="0"/>
        <pt x="63" y="-22" on="0"/>
        <pt x="98" y="0" on="1"/>
        <pt x="15" y="0" on="1"/>
        <pt x="19" y="37" on="1"/>
      </contour>
    </TTGlyph>
    <TTGlyph name="Itilde" xMin="16" yMin="0" xMax="404" yMax="818">
      <component glyphName=".ttfautohint" x="16" y="0" flags="0x0"/>
      <component glyphName="I" x="0" y="0" flags="0x0"/>
      <component glyphName="tildecomb.case" x="329" y="0" flags="0x0"/>
    </TTGlyph>
    <TTGlyph name="J" xMin="-5" yMin="-14" xMax="411" yMax="648">
      <contour>
        <pt x="61" y="157" on="1"/>
        <pt x="73" y="46" on="1"/>
        <pt x="77" y="44" on="0"/>
        <pt x="108" y="37" on="0"/>
        <pt x="125" y="37" on="1"/>
        <pt x="159" y="37" on="0"/>
        <pt x="186" y="61" on="0"/>
        <pt x="191" y="99" on="1"/>
        <pt x="257" y="594" on="1"/>
        <pt x="170" y="611" on="1"/>
        <pt x="174" y="648" on="1"/>
        <pt x="411" y="648" on="1"/>
        <pt x="407" y="611" on="1"/>
        <pt x="336" y="597" on="1"/>
        <pt x="270" y="111" on="1"/>
        <pt x="261" y="44" on="0"/>
        <pt x="187" y="-14" on="0"/>
        <pt x="117" y="-14" on="1"/>
        <pt x="84" y="-14" on="0"/>
        <pt x="30" y="-2" on="0"/>
        <pt x="-1" y="11" on="0"/>
        <pt x="-5" y="13" on="1"/>
        <pt x="12" y="157" on="1"/>
      </contour>
    </TTGlyph>
    <TTGlyph name="Jcircumflex" xMin="-5" yMin="-14" xMax="456" yMax="834">
      <component glyphName=".ttfautohint" x="0" y="0" flags="0x0"/>
      <component glyphName="J" x="0" y="0" flags="0x0"/>
      <component glyphName="uni0302.case" x="389" y="0" flags="0x0"/>
    </TTGlyph>
    <TTGlyph name="K" xMin="16" yMin="0" xMax="576" yMax="648">
      <contour>
        <pt x="91" y="51" on="1"/>
        <pt x="168" y="597" on="1"/>
        <pt x="100" y="611" on="1"/>
        <pt x="104" y="648" on="1"/>
        <pt x="322" y="648" on="1"/>
        <pt x="318" y="611" on="1"/>
        <pt x="247" y="597" on="1"/>
        <pt x="213" y="357" on="1"/>
        <pt x="251" y="357" on="1"/>
        <pt x="447" y="588" on="1"/>
        <pt x="447" y="597" on="1"/>
        <pt x="393" y="611" on="1"/>
        <pt x="398" y="648" on="1"/>
        <pt x="576" y="648" on="1"/>
        <pt x="572" y="611" on="1"/>
        <pt x="518" y="597" on="1"/>
        <pt x="312" y="356" on="1"/>
        <pt x="466" y="52" on="1"/>
        <pt x="524" y="37" on="1"/>
        <pt x="521" y="0" on="1"/>
        <pt x="438" y="0" on="1"/>
        <pt x="417" y="0" on="0"/>
        <pt x="396" y="12" on="0"/>
        <pt x="387" y="29" on="1"/>
        <pt x="248" y="310" on="1"/>
        <pt x="207" y="310" on="1"/>
        <pt x="170" y="51" on="1"/>
        <pt x="238" y="37" on="1"/>
        <pt x="235" y="0" on="1"/>
        <pt x="16" y="0" on="1"/>
        <pt x="20" y="37" on="1"/>
      </contour>
    </TTGlyph>
    <TTGlyph name="Kcommaaccent" xMin="10" yMin="-201" xMax="570" yMax="648">
      <contour>
        <pt x="85" y="51" on="1"/>
        <pt x="162" y="597" on="1"/>
        <pt x="94" y="611" on="1"/>
        <pt x="98" y="648" on="1"/>
        <pt x="316" y="648" on="1"/>
        <pt x="312" y="611" on="1"/>
        <pt x="241" y="597" on="1"/>
        <pt x="207" y="357" on="1"/>
        <pt x="245" y="357" on="1"/>
        <pt x="441" y="588" on="1"/>
        <pt x="441" y="597" on="1"/>
        <pt x="387" y="611" on="1"/>
        <pt x="392" y="648" on="1"/>
        <pt x="570" y="648" on="1"/>
        <pt x="566" y="611" on="1"/>
        <pt x="512" y="597" on="1"/>
        <pt x="306" y="356" on="1"/>
        <pt x="457" y="53" on="1"/>
        <pt x="518" y="37" on="1"/>
        <pt x="515" y="0" on="1"/>
        <pt x="428" y="0" on="1"/>
        <pt x="407" y="0" on="0"/>
        <pt x="386" y="12" on="0"/>
        <pt x="377" y="29" on="1"/>
        <pt x="234" y="310" on="1"/>
        <pt x="201" y="310" on="1"/>
        <pt x="164" y="51" on="1"/>
        <pt x="232" y="37" on="1"/>
        <pt x="229" y="0" on="1"/>
        <pt x="10" y="0" on="1"/>
        <pt x="14" y="37" on="1"/>
      </contour>
      <contour>
        <pt x="194" y="-181" on="0"/>
        <pt x="212" y="-161" on="0"/>
        <pt x="228" y="-130" on="0"/>
        <pt x="228" y="-113" on="1"/>
        <pt x="228" y="-78" on="0"/>
        <pt x="204" y="-56" on="1"/>
        <pt x="218" y="-33" on="0"/>
        <pt x="248" y="-33" on="1"/>
        <pt x="270" y="-33" on="0"/>
        <pt x="299" y="-61" on="0"/>
        <pt x="299" y="-91" on="1"/>
        <pt x="299" y="-129" on="0"/>
        <pt x="233" y="-190" on="0"/>
        <pt x="208" y="-201" on="1"/>
        <pt x="191" y="-184" on="1"/>
      </contour>
    </TTGlyph>
    <TTGlyph name="L" xMin="15" yMin="0" xMax="417" yMax="648">
      <contour>
        <pt x="90" y="51" on="1"/>
        <pt x="167" y="597" on="1"/>
        <pt x="99" y="611" on="1"/>
        <pt x="103" y="648" on="1"/>
        <pt x="321" y="648" on="1"/>
        <pt x="317" y="611" on="1"/>
        <pt x="246" y="597" on="1"/>
        <pt x="169" y="51" on="1"/>
        <pt x="211" y="46" on="1"/>
        <pt x="335" y="46" on="1"/>
        <pt x="375" y="152" on="1"/>
        <pt x="417" y="152" on="1"/>
        <pt x="394" y="0" on="1"/>
        <pt x="15" y="0" on="1"/>
        <pt x="19" y="37" on="1"/>
      </contour>
    </TTGlyph>
    <TTGlyph name="Lacute" xMin="10" yMin="0" xMax="412" yMax="836">
      <contour>
        <pt x="296" y="836" on="1"/>
        <pt x="311" y="829" on="0"/>
        <pt x="330" y="801" on="0"/>
        <pt x="330" y="786" on="1"/>
        <pt x="330" y="768" on="0"/>
        <pt x="306" y="745" on="0"/>
        <pt x="280" y="735" on="1"/>
        <pt x="150" y="681" on="1"/>
        <pt x="128" y="716" on="1"/>
      </contour>
      <contour>
        <pt x="85" y="51" on="1"/>
        <pt x="162" y="597" on="1"/>
        <pt x="94" y="611" on="1"/>
        <pt x="98" y="648" on="1"/>
        <pt x="316" y="648" on="1"/>
        <pt x="312" y="611" on="1"/>
        <pt x="241" y="597" on="1"/>
        <pt x="164" y="51" on="1"/>
        <pt x="206" y="46" on="1"/>
        <pt x="330" y="46" on="1"/>
        <pt x="370" y="152" on="1"/>
        <pt x="412" y="152" on="1"/>
        <pt x="389" y="0" on="1"/>
        <pt x="10" y="0" on="1"/>
        <pt x="14" y="37" on="1"/>
      </contour>
    </TTGlyph>
    <TTGlyph name="Lcaron" xMin="10" yMin="0" xMax="456" yMax="718">
      <contour>
        <pt x="362" y="569" on="0"/>
        <pt x="374" y="591" on="0"/>
        <pt x="385" y="628" on="0"/>
        <pt x="385" y="651" on="1"/>
        <pt x="385" y="675" on="0"/>
        <pt x="371" y="695" on="1"/>
        <pt x="385" y="718" on="0"/>
        <pt x="414" y="718" on="1"/>
        <pt x="434" y="718" on="0"/>
        <pt x="456" y="694" on="0"/>
        <pt x="456" y="673" on="1"/>
        <pt x="456" y="640" on="0"/>
        <pt x="426" y="588" on="0"/>
        <pt x="388" y="556" on="0"/>
        <pt x="376" y="551" on="1"/>
        <pt x="360" y="566" on="1"/>
      </contour>
      <contour>
        <pt x="85" y="51" on="1"/>
        <pt x="162" y="597" on="1"/>
        <pt x="94" y="611" on="1"/>
        <pt x="98" y="648" on="1"/>
        <pt x="316" y="648" on="1"/>
        <pt x="312" y="611" on="1"/>
        <pt x="241" y="597" on="1"/>
        <pt x="164" y="51" on="1"/>
        <pt x="206" y="46" on="1"/>
        <pt x="330" y="46" on="1"/>
        <pt x="370" y="152" on="1"/>
        <pt x="412" y="152" on="1"/>
        <pt x="389" y="0" on="1"/>
        <pt x="10" y="0" on="1"/>
        <pt x="14" y="37" on="1"/>
      </contour>
    </TTGlyph>
    <TTGlyph name="Lcommaaccent" xMin="10" yMin="-201" xMax="412" yMax="648">
      <contour>
        <pt x="85" y="51" on="1"/>
        <pt x="162" y="597" on="1"/>
        <pt x="94" y="611" on="1"/>
        <pt x="98" y="648" on="1"/>
        <pt x="316" y="648" on="1"/>
        <pt x="312" y="611" on="1"/>
        <pt x="241" y="597" on="1"/>
        <pt x="164" y="51" on="1"/>
        <pt x="206" y="46" on="1"/>
        <pt x="330" y="46" on="1"/>
        <pt x="370" y="152" on="1"/>
        <pt x="412" y="152" on="1"/>
        <pt x="389" y="0" on="1"/>
        <pt x="10" y="0" on="1"/>
        <pt x="14" y="37" on="1"/>
      </contour>
      <contour>
        <pt x="154" y="-181" on="0"/>
        <pt x="172" y="-161" on="0"/>
        <pt x="188" y="-130" on="0"/>
        <pt x="188" y="-113" on="1"/>
        <pt x="188" y="-78" on="0"/>
        <pt x="164" y="-56" on="1"/>
        <pt x="178" y="-33" on="0"/>
        <pt x="208" y="-33" on="1"/>
        <pt x="230" y="-33" on="0"/>
        <pt x="259" y="-61" on="0"/>
        <pt x="259" y="-91" on="1"/>
        <pt x="259" y="-129" on="0"/>
        <pt x="193" y="-190" on="0"/>
        <pt x="168" y="-201" on="1"/>
        <pt x="151" y="-184" on="1"/>
      </contour>
    </TTGlyph>
    <TTGlyph name="Ldot" xMin="15" yMin="0" xMax="423" yMax="648">
      <component glyphName=".ttfautohint" x="15" y="0" flags="0x0"/>
      <component glyphName="L" x="0" y="0" flags="0x0"/>
      <component glyphName="periodcentered" x="268" y="97" flags="0x4"/>
    </TTGlyph>
    <TTGlyph name="Lslash" xMin="10" yMin="0" xMax="412" yMax="648">
      <contour>
        <pt x="85" y="51" on="1"/>
        <pt x="116" y="272" on="1"/>
        <pt x="25" y="237" on="1"/>
        <pt x="25" y="288" on="1"/>
        <pt x="124" y="327" on="1"/>
        <pt x="162" y="597" on="1"/>
        <pt x="94" y="611" on="1"/>
        <pt x="98" y="648" on="1"/>
        <pt x="316" y="648" on="1"/>
        <pt x="312" y="611" on="1"/>
        <pt x="241" y="597" on="1"/>
        <pt x="208" y="360" on="1"/>
        <pt x="307" y="400" on="1"/>
        <pt x="307" y="346" on="1"/>
        <pt x="200" y="304" on="1"/>
        <pt x="164" y="51" on="1"/>
        <pt x="206" y="46" on="1"/>
        <pt x="330" y="46" on="1"/>
        <pt x="370" y="152" on="1"/>
        <pt x="412" y="152" on="1"/>
        <pt x="389" y="0" on="1"/>
        <pt x="10" y="0" on="1"/>
        <pt x="14" y="37" on="1"/>
      </contour>
    </TTGlyph>
    <TTGlyph name="M" xMin="15" yMin="0" xMax="754" yMax="648">
      <contour>
        <pt x="90" y="51" on="1"/>
        <pt x="167" y="597" on="1"/>
        <pt x="99" y="611" on="1"/>
        <pt x="103" y="648" on="1"/>
        <pt x="279" y="648" on="1"/>
        <pt x="346" y="181" on="1"/>
        <pt x="350" y="126" on="1"/>
        <pt x="371" y="181" on="1"/>
        <pt x="578" y="648" on="1"/>
        <pt x="754" y="648" on="1"/>
        <pt x="750" y="611" on="1"/>
        <pt x="679" y="597" on="1"/>
        <pt x="602" y="51" on="1"/>
        <pt x="670" y="37" on="1"/>
        <pt x="667" y="0" on="1"/>
        <pt x="448" y="0" on="1"/>
        <pt x="452" y="37" on="1"/>
        <pt x="523" y="51" on="1"/>
        <pt x="592" y="546" on="1"/>
        <pt x="588" y="546" on="1"/>
        <pt x="346" y="0" on="1"/>
        <pt x="302" y="0" on="1"/>
        <pt x="217" y="546" on="1"/>
        <pt x="213" y="546" on="1"/>
        <pt x="143" y="51" on="1"/>
        <pt x="211" y="37" on="1"/>
        <pt x="208" y="0" on="1"/>
        <pt x="15" y="0" on="1"/>
        <pt x="19" y="37" on="1"/>
      </contour>
    </TTGlyph>
    <TTGlyph name="N" xMin="15" yMin="0" xMax="659" yMax="648">
      <contour>
        <pt x="90" y="51" on="1"/>
        <pt x="167" y="597" on="1"/>
        <pt x="99" y="611" on="1"/>
        <pt x="103" y="648" on="1"/>
        <pt x="248" y="648" on="1"/>
        <pt x="459" y="121" on="1"/>
        <pt x="464" y="121" on="1"/>
        <pt x="531" y="597" on="1"/>
        <pt x="463" y="611" on="1"/>
        <pt x="466" y="648" on="1"/>
        <pt x="659" y="648" on="1"/>
        <pt x="655" y="611" on="1"/>
        <pt x="584" y="597" on="1"/>
        <pt x="500" y="0" on="1"/>
        <pt x="423" y="0" on="1"/>
        <pt x="214" y="519" on="1"/>
        <pt x="209" y="519" on="1"/>
        <pt x="143" y="51" on="1"/>
        <pt x="211" y="37" on="1"/>
        <pt x="208" y="0" on="1"/>
        <pt x="15" y="0" on="1"/>
        <pt x="19" y="37" on="1"/>
      </contour>
    </TTGlyph>
    <TTGlyph name="Nacute" xMin="15" yMin="0" xMax="659" yMax="839">
      <contour>
        <pt x="459" y="839" on="1"/>
        <pt x="519" y="826" on="0"/>
        <pt x="519" y="789" on="1"/>
        <pt x="519" y="771" on="0"/>
        <pt x="495" y="748" on="0"/>
        <pt x="469" y="738" on="1"/>
        <pt x="339" y="684" on="1"/>
        <pt x="317" y="719" on="1"/>
      </contour>
      <contour>
        <pt x="90" y="51" on="1"/>
        <pt x="167" y="597" on="1"/>
        <pt x="99" y="611" on="1"/>
        <pt x="103" y="648" on="1"/>
        <pt x="248" y="648" on="1"/>
        <pt x="459" y="121" on="1"/>
        <pt x="464" y="121" on="1"/>
        <pt x="531" y="597" on="1"/>
        <pt x="463" y="611" on="1"/>
        <pt x="466" y="648" on="1"/>
        <pt x="659" y="648" on="1"/>
        <pt x="655" y="611" on="1"/>
        <pt x="584" y="597" on="1"/>
        <pt x="500" y="0" on="1"/>
        <pt x="423" y="0" on="1"/>
        <pt x="214" y="519" on="1"/>
        <pt x="209" y="519" on="1"/>
        <pt x="143" y="51" on="1"/>
        <pt x="211" y="37" on="1"/>
        <pt x="208" y="0" on="1"/>
        <pt x="15" y="0" on="1"/>
        <pt x="19" y="37" on="1"/>
      </contour>
    </TTGlyph>
    <TTGlyph name="Nacute.loclPLK" xMin="15" yMin="0" xMax="659" yMax="853">
      <contour>
        <pt x="472" y="853" on="1"/>
        <pt x="493" y="851" on="0"/>
        <pt x="523" y="821" on="0"/>
        <pt x="523" y="803" on="1"/>
        <pt x="523" y="781" on="0"/>
        <pt x="490" y="753" on="1"/>
        <pt x="397" y="668" on="1"/>
        <pt x="363" y="698" on="1"/>
      </contour>
      <contour>
        <pt x="90" y="51" on="1"/>
        <pt x="167" y="597" on="1"/>
        <pt x="99" y="611" on="1"/>
        <pt x="103" y="648" on="1"/>
        <pt x="248" y="648" on="1"/>
        <pt x="459" y="121" on="1"/>
        <pt x="464" y="121" on="1"/>
        <pt x="531" y="597" on="1"/>
        <pt x="463" y="611" on="1"/>
        <pt x="466" y="648" on="1"/>
        <pt x="659" y="648" on="1"/>
        <pt x="655" y="611" on="1"/>
        <pt x="584" y="597" on="1"/>
        <pt x="500" y="0" on="1"/>
        <pt x="423" y="0" on="1"/>
        <pt x="214" y="519" on="1"/>
        <pt x="209" y="519" on="1"/>
        <pt x="143" y="51" on="1"/>
        <pt x="211" y="37" on="1"/>
        <pt x="208" y="0" on="1"/>
        <pt x="15" y="0" on="1"/>
        <pt x="19" y="37" on="1"/>
      </contour>
    </TTGlyph>
    <TTGlyph name="Ncaron" xMin="15" yMin="0" xMax="659" yMax="838">
      <contour>
        <pt x="305" y="835" on="1"/>
        <pt x="403" y="766" on="1"/>
        <pt x="505" y="838" on="1"/>
        <pt x="530" y="805" on="1"/>
        <pt x="465" y="744" on="1"/>
        <pt x="407" y="689" on="0"/>
        <pt x="389" y="689" on="1"/>
        <pt x="377" y="689" on="0"/>
        <pt x="328" y="738" on="1"/>
        <pt x="270" y="797" on="1"/>
      </contour>
      <contour>
        <pt x="90" y="51" on="1"/>
        <pt x="167" y="597" on="1"/>
        <pt x="99" y="611" on="1"/>
        <pt x="103" y="648" on="1"/>
        <pt x="248" y="648" on="1"/>
        <pt x="459" y="121" on="1"/>
        <pt x="464" y="121" on="1"/>
        <pt x="531" y="597" on="1"/>
        <pt x="463" y="611" on="1"/>
        <pt x="466" y="648" on="1"/>
        <pt x="659" y="648" on="1"/>
        <pt x="655" y="611" on="1"/>
        <pt x="584" y="597" on="1"/>
        <pt x="500" y="0" on="1"/>
        <pt x="423" y="0" on="1"/>
        <pt x="214" y="519" on="1"/>
        <pt x="209" y="519" on="1"/>
        <pt x="143" y="51" on="1"/>
        <pt x="211" y="37" on="1"/>
        <pt x="208" y="0" on="1"/>
        <pt x="15" y="0" on="1"/>
        <pt x="19" y="37" on="1"/>
      </contour>
    </TTGlyph>
    <TTGlyph name="Ncommaaccent" xMin="15" yMin="-201" xMax="659" yMax="648">
      <contour>
        <pt x="90" y="51" on="1"/>
        <pt x="167" y="597" on="1"/>
        <pt x="99" y="611" on="1"/>
        <pt x="103" y="648" on="1"/>
        <pt x="248" y="648" on="1"/>
        <pt x="459" y="121" on="1"/>
        <pt x="464" y="121" on="1"/>
        <pt x="531" y="597" on="1"/>
        <pt x="463" y="611" on="1"/>
        <pt x="466" y="648" on="1"/>
        <pt x="659" y="648" on="1"/>
        <pt x="655" y="611" on="1"/>
        <pt x="584" y="597" on="1"/>
        <pt x="500" y="0" on="1"/>
        <pt x="423" y="0" on="1"/>
        <pt x="214" y="519" on="1"/>
        <pt x="209" y="519" on="1"/>
        <pt x="143" y="51" on="1"/>
        <pt x="211" y="37" on="1"/>
        <pt x="208" y="0" on="1"/>
        <pt x="15" y="0" on="1"/>
        <pt x="19" y="37" on="1"/>
      </contour>
      <contour>
        <pt x="236" y="-181" on="0"/>
        <pt x="254" y="-161" on="0"/>
        <pt x="270" y="-130" on="0"/>
        <pt x="270" y="-113" on="1"/>
        <pt x="270" y="-78" on="0"/>
        <pt x="246" y="-56" on="1"/>
        <pt x="260" y="-33" on="0"/>
        <pt x="290" y="-33" on="1"/>
        <pt x="312" y="-33" on="0"/>
        <pt x="341" y="-61" on="0"/>
        <pt x="341" y="-91" on="1"/>
        <pt x="341" y="-129" on="0"/>
        <pt x="275" y="-190" on="0"/>
        <pt x="250" y="-201" on="1"/>
        <pt x="233" y="-184" on="1"/>
      </contour>
    </TTGlyph>
    <TTGlyph name="Ntilde" xMin="15" yMin="0" xMax="659" yMax="818">
      <contour>
        <pt x="276" y="784" on="1"/>
        <pt x="303" y="818" on="0"/>
        <pt x="331" y="818" on="1"/>
        <pt x="351" y="818" on="0"/>
        <pt x="407" y="798" on="1"/>
        <pt x="473" y="775" on="1"/>
        <pt x="553" y="812" on="1"/>
        <pt x="576" y="786" on="1"/>
        <pt x="539" y="738" on="1"/>
        <pt x="512" y="704" on="0"/>
        <pt x="484" y="704" on="1"/>
        <pt x="461" y="704" on="0"/>
        <pt x="408" y="724" on="1"/>
        <pt x="342" y="747" on="1"/>
        <pt x="262" y="710" on="1"/>
        <pt x="239" y="736" on="1"/>
      </contour>
      <contour>
        <pt x="90" y="51" on="1"/>
        <pt x="167" y="597" on="1"/>
        <pt x="99" y="611" on="1"/>
        <pt x="103" y="648" on="1"/>
        <pt x="248" y="648" on="1"/>
        <pt x="459" y="121" on="1"/>
        <pt x="464" y="121" on="1"/>
        <pt x="531" y="597" on="1"/>
        <pt x="463" y="611" on="1"/>
        <pt x="466" y="648" on="1"/>
        <pt x="659" y="648" on="1"/>
        <pt x="655" y="611" on="1"/>
        <pt x="584" y="597" on="1"/>
        <pt x="500" y="0" on="1"/>
        <pt x="423" y="0" on="1"/>
        <pt x="214" y="519" on="1"/>
        <pt x="209" y="519" on="1"/>
        <pt x="143" y="51" on="1"/>
        <pt x="211" y="37" on="1"/>
        <pt x="208" y="0" on="1"/>
        <pt x="15" y="0" on="1"/>
        <pt x="19" y="37" on="1"/>
      </contour>
    </TTGlyph>
    <TTGlyph name="O" xMin="44" yMin="-11" xMax="606" yMax="660">
      <contour>
        <pt x="164" y="-11" on="0"/>
        <pt x="44" y="126" on="0"/>
        <pt x="44" y="248" on="1"/>
        <pt x="44" y="358" on="0"/>
        <pt x="121" y="546" on="0"/>
        <pt x="267" y="660" on="0"/>
        <pt x="367" y="660" on="1"/>
        <pt x="484" y="660" on="0"/>
        <pt x="606" y="525" on="0"/>
        <pt x="606" y="402" on="1"/>
        <pt x="606" y="292" on="0"/>
        <pt x="533" y="104" on="0"/>
        <pt x="384" y="-11" on="0"/>
        <pt x="275" y="-11" on="1"/>
      </contour>
      <contour>
        <pt x="515" y="40" on="0"/>
        <pt x="515" y="392" on="1"/>
        <pt x="515" y="508" on="0"/>
        <pt x="438" y="609" on="0"/>
        <pt x="346" y="609" on="1"/>
        <pt x="239" y="609" on="0"/>
        <pt x="135" y="430" on="0"/>
        <pt x="135" y="273" on="1"/>
        <pt x="135" y="190" on="0"/>
        <pt x="165" y="89" on="0"/>
        <pt x="239" y="40" on="0"/>
        <pt x="303" y="40" on="1"/>
      </contour>
    </TTGlyph>
    <TTGlyph name="OE" xMin="35" yMin="0" xMax="770" yMax="648">
      <contour>
        <pt x="674" y="152" on="1"/>
        <pt x="716" y="152" on="1"/>
        <pt x="697" y="0" on="1"/>
        <pt x="269" y="0" on="1"/>
        <pt x="157" y="0" on="0"/>
        <pt x="35" y="128" on="0"/>
        <pt x="35" y="248" on="1"/>
        <pt x="35" y="355" on="0"/>
        <pt x="115" y="538" on="0"/>
        <pt x="265" y="648" on="0"/>
        <pt x="365" y="648" on="1"/>
        <pt x="770" y="648" on="1"/>
        <pt x="749" y="492" on="1"/>
        <pt x="700" y="492" on="1"/>
        <pt x="700" y="602" on="1"/>
        <pt x="599" y="602" on="1"/>
        <pt x="519" y="597" on="1"/>
        <pt x="485" y="358" on="1"/>
        <pt x="616" y="358" on="1"/>
        <pt x="637" y="417" on="1"/>
        <pt x="673" y="417" on="1"/>
        <pt x="652" y="255" on="1"/>
        <pt x="616" y="255" on="1"/>
        <pt x="611" y="314" on="1"/>
        <pt x="479" y="314" on="1"/>
        <pt x="441" y="51" on="1"/>
        <pt x="447" y="50" on="0"/>
        <pt x="498" y="45" on="0"/>
        <pt x="534" y="45" on="1"/>
        <pt x="636" y="45" on="1"/>
      </contour>
      <contour>
        <pt x="398" y="604" on="0"/>
        <pt x="348" y="604" on="1"/>
        <pt x="239" y="604" on="0"/>
        <pt x="129" y="428" on="0"/>
        <pt x="126" y="273" on="1"/>
        <pt x="126" y="190" on="0"/>
        <pt x="158" y="93" on="0"/>
        <pt x="232" y="47" on="0"/>
        <pt x="297" y="47" on="1"/>
        <pt x="335" y="47" on="0"/>
        <pt x="363" y="51" on="1"/>
        <pt x="439" y="595" on="1"/>
      </contour>
    </TTGlyph>
    <TTGlyph name="Oacute" xMin="44" yMin="-11" xMax="606" yMax="854">
      <contour>
        <pt x="461" y="854" on="1"/>
        <pt x="476" y="847" on="0"/>
        <pt x="495" y="819" on="0"/>
        <pt x="495" y="804" on="1"/>
        <pt x="495" y="786" on="0"/>
        <pt x="471" y="763" on="0"/>
        <pt x="445" y="753" on="1"/>
        <pt x="315" y="699" on="1"/>
        <pt x="293" y="734" on="1"/>
      </contour>
      <contour>
        <pt x="164" y="-11" on="0"/>
        <pt x="44" y="126" on="0"/>
        <pt x="44" y="248" on="1"/>
        <pt x="44" y="358" on="0"/>
        <pt x="121" y="546" on="0"/>
        <pt x="267" y="660" on="0"/>
        <pt x="367" y="660" on="1"/>
        <pt x="484" y="660" on="0"/>
        <pt x="606" y="525" on="0"/>
        <pt x="606" y="402" on="1"/>
        <pt x="606" y="292" on="0"/>
        <pt x="533" y="104" on="0"/>
        <pt x="384" y="-11" on="0"/>
        <pt x="275" y="-11" on="1"/>
      </contour>
      <contour>
        <pt x="515" y="40" on="0"/>
        <pt x="515" y="392" on="1"/>
        <pt x="515" y="508" on="0"/>
        <pt x="438" y="609" on="0"/>
        <pt x="346" y="609" on="1"/>
        <pt x="239" y="609" on="0"/>
        <pt x="135" y="430" on="0"/>
        <pt x="135" y="273" on="1"/>
        <pt x="135" y="190" on="0"/>
        <pt x="165" y="89" on="0"/>
        <pt x="239" y="40" on="0"/>
        <pt x="303" y="40" on="1"/>
      </contour>
    </TTGlyph>
    <TTGlyph name="Oacute.loclPLK" xMin="44" yMin="-11" xMax="606" yMax="853">
      <contour>
        <pt x="458" y="853" on="1"/>
        <pt x="479" y="851" on="0"/>
        <pt x="509" y="821" on="0"/>
        <pt x="509" y="803" on="1"/>
        <pt x="509" y="781" on="0"/>
        <pt x="476" y="753" on="1"/>
        <pt x="383" y="668" on="1"/>
        <pt x="349" y="698" on="1"/>
      </contour>
      <contour>
        <pt x="164" y="-11" on="0"/>
        <pt x="44" y="126" on="0"/>
        <pt x="44" y="248" on="1"/>
        <pt x="44" y="358" on="0"/>
        <pt x="121" y="546" on="0"/>
        <pt x="267" y="660" on="0"/>
        <pt x="367" y="660" on="1"/>
        <pt x="484" y="660" on="0"/>
        <pt x="606" y="525" on="0"/>
        <pt x="606" y="402" on="1"/>
        <pt x="606" y="292" on="0"/>
        <pt x="533" y="104" on="0"/>
        <pt x="384" y="-11" on="0"/>
        <pt x="275" y="-11" on="1"/>
      </contour>
      <contour>
        <pt x="515" y="40" on="0"/>
        <pt x="515" y="392" on="1"/>
        <pt x="515" y="508" on="0"/>
        <pt x="438" y="609" on="0"/>
        <pt x="346" y="609" on="1"/>
        <pt x="239" y="609" on="0"/>
        <pt x="135" y="430" on="0"/>
        <pt x="135" y="273" on="1"/>
        <pt x="135" y="190" on="0"/>
        <pt x="165" y="89" on="0"/>
        <pt x="239" y="40" on="0"/>
        <pt x="303" y="40" on="1"/>
      </contour>
    </TTGlyph>
    <TTGlyph name="Obreve" xMin="44" yMin="-11" xMax="606" yMax="829">
      <component glyphName=".ttfautohint" x="44" y="0" flags="0x0"/>
      <component glyphName="O" x="0" y="0" flags="0x0"/>
      <component glyphName="uni0306.case" x="455" y="0" flags="0x0"/>
    </TTGlyph>
    <TTGlyph name="Ocircumflex" xMin="44" yMin="-11" xMax="606" yMax="852">
      <contour>
        <pt x="329" y="799" on="1"/>
        <pt x="372" y="833" on="0"/>
        <pt x="398" y="852" on="0"/>
        <pt x="405" y="852" on="1"/>
        <pt x="413" y="851" on="0"/>
        <pt x="466" y="806" on="0"/>
        <pt x="470" y="803" on="1"/>
        <pt x="530" y="748" on="1"/>
        <pt x="497" y="707" on="1"/>
        <pt x="391" y="774" on="1"/>
        <pt x="283" y="713" on="1"/>
        <pt x="258" y="746" on="1"/>
      </contour>
      <contour>
        <pt x="164" y="-11" on="0"/>
        <pt x="44" y="126" on="0"/>
        <pt x="44" y="248" on="1"/>
        <pt x="44" y="358" on="0"/>
        <pt x="121" y="546" on="0"/>
        <pt x="267" y="660" on="0"/>
        <pt x="367" y="660" on="1"/>
        <pt x="484" y="660" on="0"/>
        <pt x="606" y="525" on="0"/>
        <pt x="606" y="402" on="1"/>
        <pt x="606" y="292" on="0"/>
        <pt x="533" y="104" on="0"/>
        <pt x="384" y="-11" on="0"/>
        <pt x="275" y="-11" on="1"/>
      </contour>
      <contour>
        <pt x="515" y="40" on="0"/>
        <pt x="515" y="392" on="1"/>
        <pt x="515" y="508" on="0"/>
        <pt x="438" y="609" on="0"/>
        <pt x="346" y="609" on="1"/>
        <pt x="239" y="609" on="0"/>
        <pt x="135" y="430" on="0"/>
        <pt x="135" y="273" on="1"/>
        <pt x="135" y="190" on="0"/>
        <pt x="165" y="89" on="0"/>
        <pt x="239" y="40" on="0"/>
        <pt x="303" y="40" on="1"/>
      </contour>
    </TTGlyph>
    <TTGlyph name="Odieresis" xMin="44" yMin="-11" xMax="606" yMax="827">
      <contour>
        <pt x="269" y="711" on="0"/>
        <pt x="241" y="742" on="0"/>
        <pt x="241" y="767" on="1"/>
        <pt x="241" y="792" on="0"/>
        <pt x="272" y="827" on="0"/>
        <pt x="296" y="827" on="1"/>
        <pt x="319" y="827" on="0"/>
        <pt x="347" y="798" on="0"/>
        <pt x="347" y="773" on="1"/>
        <pt x="347" y="747" on="0"/>
        <pt x="317" y="711" on="0"/>
        <pt x="292" y="711" on="1"/>
      </contour>
      <contour>
        <pt x="480" y="711" on="0"/>
        <pt x="452" y="742" on="0"/>
        <pt x="452" y="767" on="1"/>
        <pt x="452" y="792" on="0"/>
        <pt x="483" y="827" on="0"/>
        <pt x="507" y="827" on="1"/>
        <pt x="530" y="827" on="0"/>
        <pt x="558" y="798" on="0"/>
        <pt x="558" y="773" on="1"/>
        <pt x="558" y="747" on="0"/>
        <pt x="528" y="711" on="0"/>
        <pt x="503" y="711" on="1"/>
      </contour>
      <contour>
        <pt x="164" y="-11" on="0"/>
        <pt x="44" y="126" on="0"/>
        <pt x="44" y="248" on="1"/>
        <pt x="44" y="358" on="0"/>
        <pt x="121" y="546" on="0"/>
        <pt x="267" y="660" on="0"/>
        <pt x="367" y="660" on="1"/>
        <pt x="484" y="660" on="0"/>
        <pt x="606" y="525" on="0"/>
        <pt x="606" y="402" on="1"/>
        <pt x="606" y="292" on="0"/>
        <pt x="533" y="104" on="0"/>
        <pt x="384" y="-11" on="0"/>
        <pt x="275" y="-11" on="1"/>
      </contour>
      <contour>
        <pt x="515" y="40" on="0"/>
        <pt x="515" y="392" on="1"/>
        <pt x="515" y="508" on="0"/>
        <pt x="438" y="609" on="0"/>
        <pt x="346" y="609" on="1"/>
        <pt x="239" y="609" on="0"/>
        <pt x="135" y="430" on="0"/>
        <pt x="135" y="273" on="1"/>
        <pt x="135" y="190" on="0"/>
        <pt x="165" y="89" on="0"/>
        <pt x="239" y="40" on="0"/>
        <pt x="303" y="40" on="1"/>
      </contour>
    </TTGlyph>
    <TTGlyph name="Ograve" xMin="44" yMin="-11" xMax="606" yMax="854">
      <contour>
        <pt x="296" y="763" on="0"/>
        <pt x="272" y="786" on="0"/>
        <pt x="272" y="804" on="1"/>
        <pt x="272" y="819" on="0"/>
        <pt x="291" y="847" on="0"/>
        <pt x="306" y="854" on="1"/>
        <pt x="474" y="734" on="1"/>
        <pt x="452" y="699" on="1"/>
        <pt x="322" y="753" on="1"/>
      </contour>
      <contour>
        <pt x="164" y="-11" on="0"/>
        <pt x="44" y="126" on="0"/>
        <pt x="44" y="248" on="1"/>
        <pt x="44" y="358" on="0"/>
        <pt x="121" y="546" on="0"/>
        <pt x="267" y="660" on="0"/>
        <pt x="367" y="660" on="1"/>
        <pt x="484" y="660" on="0"/>
        <pt x="606" y="525" on="0"/>
        <pt x="606" y="402" on="1"/>
        <pt x="606" y="292" on="0"/>
        <pt x="533" y="104" on="0"/>
        <pt x="384" y="-11" on="0"/>
        <pt x="275" y="-11" on="1"/>
      </contour>
      <contour>
        <pt x="515" y="40" on="0"/>
        <pt x="515" y="392" on="1"/>
        <pt x="515" y="508" on="0"/>
        <pt x="438" y="609" on="0"/>
        <pt x="346" y="609" on="1"/>
        <pt x="239" y="609" on="0"/>
        <pt x="135" y="430" on="0"/>
        <pt x="135" y="273" on="1"/>
        <pt x="135" y="190" on="0"/>
        <pt x="165" y="89" on="0"/>
        <pt x="239" y="40" on="0"/>
        <pt x="303" y="40" on="1"/>
      </contour>
    </TTGlyph>
    <TTGlyph name="Ohorn" xMin="44" yMin="-11" xMax="750" yMax="716">
      <contour>
        <pt x="750" y="619" on="0"/>
        <pt x="678" y="530" on="0"/>
        <pt x="598" y="482" on="1"/>
        <pt x="606" y="442" on="0"/>
        <pt x="606" y="402" on="1"/>
        <pt x="606" y="292" on="0"/>
        <pt x="533" y="104" on="0"/>
        <pt x="384" y="-11" on="0"/>
        <pt x="275" y="-11" on="1"/>
        <pt x="164" y="-11" on="0"/>
        <pt x="44" y="126" on="0"/>
        <pt x="44" y="248" on="1"/>
        <pt x="44" y="358" on="0"/>
        <pt x="121" y="546" on="0"/>
        <pt x="267" y="660" on="0"/>
        <pt x="367" y="660" on="1"/>
        <pt x="455" y="660" on="0"/>
        <pt x="568" y="583" on="0"/>
        <pt x="591" y="511" on="1"/>
        <pt x="631" y="538" on="0"/>
        <pt x="684" y="598" on="0"/>
        <pt x="684" y="628" on="1"/>
        <pt x="684" y="640" on="0"/>
        <pt x="674" y="654" on="0"/>
        <pt x="663" y="662" on="1"/>
        <pt x="663" y="677" on="1"/>
        <pt x="718" y="716" on="1"/>
        <pt x="734" y="704" on="0"/>
        <pt x="750" y="681" on="0"/>
        <pt x="750" y="654" on="1"/>
      </contour>
      <contour>
        <pt x="515" y="40" on="0"/>
        <pt x="515" y="392" on="1"/>
        <pt x="515" y="508" on="0"/>
        <pt x="438" y="609" on="0"/>
        <pt x="346" y="609" on="1"/>
        <pt x="239" y="609" on="0"/>
        <pt x="135" y="430" on="0"/>
        <pt x="135" y="273" on="1"/>
        <pt x="135" y="190" on="0"/>
        <pt x="165" y="89" on="0"/>
        <pt x="239" y="40" on="0"/>
        <pt x="303" y="40" on="1"/>
      </contour>
    </TTGlyph>
    <TTGlyph name="Ohungarumlaut" xMin="44" yMin="-11" xMax="606" yMax="836">
      <contour>
        <pt x="386" y="827" on="0"/>
        <pt x="386" y="792" on="1"/>
        <pt x="385" y="779" on="0"/>
        <pt x="354" y="743" on="0"/>
        <pt x="337" y="729" on="1"/>
        <pt x="272" y="677" on="1"/>
        <pt x="244" y="701" on="1"/>
        <pt x="337" y="836" on="1"/>
      </contour>
      <contour>
        <pt x="516" y="831" on="0"/>
        <pt x="539" y="807" on="0"/>
        <pt x="539" y="792" on="1"/>
        <pt x="538" y="779" on="0"/>
        <pt x="507" y="743" on="0"/>
        <pt x="490" y="729" on="1"/>
        <pt x="425" y="677" on="1"/>
        <pt x="397" y="701" on="1"/>
        <pt x="490" y="836" on="1"/>
      </contour>
      <contour>
        <pt x="164" y="-11" on="0"/>
        <pt x="44" y="126" on="0"/>
        <pt x="44" y="248" on="1"/>
        <pt x="44" y="358" on="0"/>
        <pt x="121" y="546" on="0"/>
        <pt x="267" y="660" on="0"/>
        <pt x="367" y="660" on="1"/>
        <pt x="484" y="660" on="0"/>
        <pt x="606" y="525" on="0"/>
        <pt x="606" y="402" on="1"/>
        <pt x="606" y="292" on="0"/>
        <pt x="533" y="104" on="0"/>
        <pt x="384" y="-11" on="0"/>
        <pt x="275" y="-11" on="1"/>
      </contour>
      <contour>
        <pt x="515" y="40" on="0"/>
        <pt x="515" y="392" on="1"/>
        <pt x="515" y="508" on="0"/>
        <pt x="438" y="609" on="0"/>
        <pt x="346" y="609" on="1"/>
        <pt x="239" y="609" on="0"/>
        <pt x="135" y="430" on="0"/>
        <pt x="135" y="273" on="1"/>
        <pt x="135" y="190" on="0"/>
        <pt x="165" y="89" on="0"/>
        <pt x="239" y="40" on="0"/>
        <pt x="303" y="40" on="1"/>
      </contour>
    </TTGlyph>
    <TTGlyph name="Omacron" xMin="44" yMin="-11" xMax="606" yMax="782">
      <contour>
        <pt x="535" y="782" on="1"/>
        <pt x="527" y="719" on="1"/>
        <pt x="245" y="719" on="1"/>
        <pt x="253" y="782" on="1"/>
      </contour>
      <contour>
        <pt x="164" y="-11" on="0"/>
        <pt x="44" y="126" on="0"/>
        <pt x="44" y="248" on="1"/>
        <pt x="44" y="358" on="0"/>
        <pt x="121" y="546" on="0"/>
        <pt x="267" y="660" on="0"/>
        <pt x="367" y="660" on="1"/>
        <pt x="484" y="660" on="0"/>
        <pt x="606" y="525" on="0"/>
        <pt x="606" y="402" on="1"/>
        <pt x="606" y="292" on="0"/>
        <pt x="533" y="104" on="0"/>
        <pt x="384" y="-11" on="0"/>
        <pt x="275" y="-11" on="1"/>
      </contour>
      <contour>
        <pt x="515" y="40" on="0"/>
        <pt x="515" y="392" on="1"/>
        <pt x="515" y="508" on="0"/>
        <pt x="438" y="609" on="0"/>
        <pt x="346" y="609" on="1"/>
        <pt x="239" y="609" on="0"/>
        <pt x="135" y="430" on="0"/>
        <pt x="135" y="273" on="1"/>
        <pt x="135" y="190" on="0"/>
        <pt x="165" y="89" on="0"/>
        <pt x="239" y="40" on="0"/>
        <pt x="303" y="40" on="1"/>
      </contour>
    </TTGlyph>
    <TTGlyph name="Oslash" xMin="44" yMin="-91" xMax="606" yMax="730">
      <contour>
        <pt x="103" y="44" on="0"/>
        <pt x="44" y="164" on="0"/>
        <pt x="44" y="248" on="1"/>
        <pt x="44" y="358" on="0"/>
        <pt x="121" y="546" on="0"/>
        <pt x="267" y="660" on="0"/>
        <pt x="367" y="660" on="1"/>
        <pt x="411" y="660" on="0"/>
        <pt x="450" y="649" on="1"/>
        <pt x="487" y="730" on="1"/>
        <pt x="535" y="707" on="1"/>
        <pt x="499" y="629" on="1"/>
        <pt x="552" y="598" on="0"/>
        <pt x="606" y="483" on="0"/>
        <pt x="606" y="402" on="1"/>
        <pt x="606" y="292" on="0"/>
        <pt x="533" y="104" on="0"/>
        <pt x="384" y="-11" on="0"/>
        <pt x="275" y="-11" on="1"/>
        <pt x="245" y="-11" on="0"/>
        <pt x="210" y="-4" on="1"/>
        <pt x="171" y="-91" on="1"/>
        <pt x="121" y="-67" on="1"/>
        <pt x="158" y="15" on="1"/>
      </contour>
      <contour>
        <pt x="389" y="609" on="0"/>
        <pt x="346" y="609" on="1"/>
        <pt x="239" y="609" on="0"/>
        <pt x="138" y="431" on="0"/>
        <pt x="135" y="273" on="1"/>
        <pt x="135" y="198" on="0"/>
        <pt x="158" y="103" on="0"/>
        <pt x="186" y="76" on="1"/>
        <pt x="425" y="596" on="1"/>
      </contour>
      <contour>
        <pt x="264" y="40" on="0"/>
        <pt x="303" y="40" on="1"/>
        <pt x="515" y="40" on="0"/>
        <pt x="515" y="392" on="1"/>
        <pt x="515" y="455" on="0"/>
        <pt x="494" y="540" on="0"/>
        <pt x="470" y="566" on="1"/>
        <pt x="234" y="49" on="1"/>
      </contour>
    </TTGlyph>
    <TTGlyph name="Oslashacute" xMin="44" yMin="-91" xMax="606" yMax="836">
      <component glyphName=".ttfautohint" x="44" y="0" flags="0x0"/>
      <component glyphName="Oslash" x="0" y="0" flags="0x0"/>
      <component glyphName="acutecomb.case" x="391" y="0" flags="0x0"/>
    </TTGlyph>
    <TTGlyph name="Otilde" xMin="44" yMin="-11" xMax="606" yMax="836">
      <contour>
        <pt x="265" y="802" on="1"/>
        <pt x="292" y="836" on="0"/>
        <pt x="320" y="836" on="1"/>
        <pt x="340" y="836" on="0"/>
        <pt x="396" y="816" on="1"/>
        <pt x="462" y="793" on="1"/>
        <pt x="542" y="830" on="1"/>
        <pt x="565" y="804" on="1"/>
        <pt x="528" y="756" on="1"/>
        <pt x="501" y="722" on="0"/>
        <pt x="473" y="722" on="1"/>
        <pt x="450" y="722" on="0"/>
        <pt x="397" y="742" on="1"/>
        <pt x="331" y="765" on="1"/>
        <pt x="251" y="728" on="1"/>
        <pt x="228" y="754" on="1"/>
      </contour>
      <contour>
        <pt x="164" y="-11" on="0"/>
        <pt x="44" y="126" on="0"/>
        <pt x="44" y="248" on="1"/>
        <pt x="44" y="358" on="0"/>
        <pt x="121" y="546" on="0"/>
        <pt x="267" y="660" on="0"/>
        <pt x="367" y="660" on="1"/>
        <pt x="484" y="660" on="0"/>
        <pt x="606" y="525" on="0"/>
        <pt x="606" y="402" on="1"/>
        <pt x="606" y="292" on="0"/>
        <pt x="533" y="104" on="0"/>
        <pt x="384" y="-11" on="0"/>
        <pt x="275" y="-11" on="1"/>
      </contour>
      <contour>
        <pt x="515" y="40" on="0"/>
        <pt x="515" y="392" on="1"/>
        <pt x="515" y="508" on="0"/>
        <pt x="438" y="609" on="0"/>
        <pt x="346" y="609" on="1"/>
        <pt x="239" y="609" on="0"/>
        <pt x="135" y="430" on="0"/>
        <pt x="135" y="273" on="1"/>
        <pt x="135" y="190" on="0"/>
        <pt x="165" y="89" on="0"/>
        <pt x="239" y="40" on="0"/>
        <pt x="303" y="40" on="1"/>
      </contour>
    </TTGlyph>
    <TTGlyph name="P" xMin="16" yMin="0" xMax="510" yMax="648">
      <contour>
        <pt x="91" y="51" on="1"/>
        <pt x="168" y="597" on="1"/>
        <pt x="101" y="611" on="1"/>
        <pt x="105" y="648" on="1"/>
        <pt x="306" y="648" on="1"/>
        <pt x="407" y="648" on="0"/>
        <pt x="510" y="566" on="0"/>
        <pt x="510" y="487" on="1"/>
        <pt x="510" y="382" on="0"/>
        <pt x="373" y="268" on="0"/>
        <pt x="253" y="268" on="1"/>
        <pt x="237" y="268" on="1"/>
        <pt x="237" y="302" on="1"/>
        <pt x="340" y="302" on="0"/>
        <pt x="423" y="396" on="0"/>
        <pt x="423" y="475" on="1"/>
        <pt x="423" y="545" on="0"/>
        <pt x="362" y="601" on="0"/>
        <pt x="297" y="601" on="1"/>
        <pt x="281" y="601" on="0"/>
        <pt x="251" y="597" on="0"/>
        <pt x="247" y="596" on="1"/>
        <pt x="170" y="51" on="1"/>
        <pt x="251" y="37" on="1"/>
        <pt x="248" y="0" on="1"/>
        <pt x="16" y="0" on="1"/>
        <pt x="20" y="37" on="1"/>
      </contour>
    </TTGlyph>
    <TTGlyph name="Q" xMin="44" yMin="-164" xMax="606" yMax="660">
      <contour>
        <pt x="265" y="-11" on="1"/>
        <pt x="159" y="-8" on="0"/>
        <pt x="44" y="128" on="0"/>
        <pt x="44" y="248" on="1"/>
        <pt x="44" y="358" on="0"/>
        <pt x="121" y="546" on="0"/>
        <pt x="267" y="660" on="0"/>
        <pt x="367" y="660" on="1"/>
        <pt x="484" y="660" on="0"/>
        <pt x="606" y="525" on="0"/>
        <pt x="606" y="402" on="1"/>
        <pt x="606" y="299" on="0"/>
        <pt x="541" y="119" on="0"/>
        <pt x="409" y="1" on="0"/>
        <pt x="313" y="-9" on="1"/>
        <pt x="274" y="-50" on="1"/>
        <pt x="291" y="-52" on="0"/>
        <pt x="324" y="-60" on="1"/>
        <pt x="495" y="-99" on="1"/>
        <pt x="554" y="-71" on="1"/>
        <pt x="575" y="-94" on="1"/>
        <pt x="535" y="-146" on="1"/>
        <pt x="522" y="-164" on="0"/>
        <pt x="487" y="-164" on="1"/>
        <pt x="474" y="-164" on="0"/>
        <pt x="427" y="-153" on="0"/>
        <pt x="418" y="-151" on="1"/>
        <pt x="246" y="-113" on="1"/>
        <pt x="191" y="-138" on="1"/>
        <pt x="170" y="-112" on="1"/>
      </contour>
      <contour>
        <pt x="515" y="40" on="0"/>
        <pt x="515" y="392" on="1"/>
        <pt x="515" y="508" on="0"/>
        <pt x="438" y="609" on="0"/>
        <pt x="346" y="609" on="1"/>
        <pt x="239" y="609" on="0"/>
        <pt x="135" y="430" on="0"/>
        <pt x="135" y="273" on="1"/>
        <pt x="135" y="190" on="0"/>
        <pt x="165" y="89" on="0"/>
        <pt x="239" y="40" on="0"/>
        <pt x="303" y="40" on="1"/>
      </contour>
    </TTGlyph>
    <TTGlyph name="R" xMin="16" yMin="0" xMax="514" yMax="648">
      <contour>
        <pt x="91" y="51" on="1"/>
        <pt x="168" y="597" on="1"/>
        <pt x="101" y="611" on="1"/>
        <pt x="105" y="648" on="1"/>
        <pt x="327" y="648" on="1"/>
        <pt x="409" y="648" on="0"/>
        <pt x="498" y="573" on="0"/>
        <pt x="498" y="503" on="1"/>
        <pt x="496" y="428" on="0"/>
        <pt x="399" y="318" on="0"/>
        <pt x="311" y="297" on="1"/>
        <pt x="330" y="284" on="0"/>
        <pt x="357" y="245" on="0"/>
        <pt x="372" y="212" on="1"/>
        <pt x="437" y="65" on="1"/>
        <pt x="514" y="37" on="1"/>
        <pt x="511" y="0" on="1"/>
        <pt x="416" y="0" on="1"/>
        <pt x="400" y="0" on="0"/>
        <pt x="372" y="16" on="0"/>
        <pt x="366" y="31" on="1"/>
        <pt x="305" y="171" on="1"/>
        <pt x="285" y="217" on="0"/>
        <pt x="261" y="259" on="0"/>
        <pt x="229" y="282" on="0"/>
        <pt x="202" y="285" on="1"/>
        <pt x="170" y="51" on="1"/>
        <pt x="238" y="37" on="1"/>
        <pt x="235" y="0" on="1"/>
        <pt x="16" y="0" on="1"/>
        <pt x="20" y="37" on="1"/>
      </contour>
      <contour>
        <pt x="305" y="328" on="0"/>
        <pt x="412" y="406" on="0"/>
        <pt x="412" y="483" on="1"/>
        <pt x="412" y="541" on="0"/>
        <pt x="368" y="600" on="0"/>
        <pt x="309" y="600" on="1"/>
        <pt x="284" y="600" on="0"/>
        <pt x="251" y="598" on="0"/>
        <pt x="247" y="597" on="1"/>
        <pt x="208" y="328" on="1"/>
      </contour>
    </TTGlyph>
    <TTGlyph name="Racute" xMin="16" yMin="0" xMax="514" yMax="836">
      <contour>
        <pt x="401" y="836" on="1"/>
        <pt x="416" y="829" on="0"/>
        <pt x="435" y="801" on="0"/>
        <pt x="435" y="786" on="1"/>
        <pt x="435" y="768" on="0"/>
        <pt x="411" y="745" on="0"/>
        <pt x="385" y="735" on="1"/>
        <pt x="255" y="681" on="1"/>
        <pt x="233" y="716" on="1"/>
      </contour>
      <contour>
        <pt x="91" y="51" on="1"/>
        <pt x="168" y="597" on="1"/>
        <pt x="101" y="611" on="1"/>
        <pt x="105" y="648" on="1"/>
        <pt x="327" y="648" on="1"/>
        <pt x="409" y="648" on="0"/>
        <pt x="498" y="573" on="0"/>
        <pt x="498" y="503" on="1"/>
        <pt x="496" y="428" on="0"/>
        <pt x="399" y="318" on="0"/>
        <pt x="311" y="297" on="1"/>
        <pt x="330" y="284" on="0"/>
        <pt x="357" y="245" on="0"/>
        <pt x="372" y="212" on="1"/>
        <pt x="437" y="65" on="1"/>
        <pt x="514" y="37" on="1"/>
        <pt x="511" y="0" on="1"/>
        <pt x="416" y="0" on="1"/>
        <pt x="400" y="0" on="0"/>
        <pt x="372" y="16" on="0"/>
        <pt x="366" y="31" on="1"/>
        <pt x="305" y="171" on="1"/>
        <pt x="284" y="219" on="0"/>
        <pt x="262" y="259" on="0"/>
        <pt x="230" y="282" on="0"/>
        <pt x="202" y="285" on="1"/>
        <pt x="170" y="51" on="1"/>
        <pt x="238" y="37" on="1"/>
        <pt x="235" y="0" on="1"/>
        <pt x="16" y="0" on="1"/>
        <pt x="20" y="37" on="1"/>
      </contour>
      <contour>
        <pt x="305" y="328" on="0"/>
        <pt x="412" y="406" on="0"/>
        <pt x="412" y="483" on="1"/>
        <pt x="412" y="541" on="0"/>
        <pt x="368" y="600" on="0"/>
        <pt x="309" y="600" on="1"/>
        <pt x="284" y="600" on="0"/>
        <pt x="251" y="598" on="0"/>
        <pt x="247" y="597" on="1"/>
        <pt x="208" y="328" on="1"/>
      </contour>
    </TTGlyph>
    <TTGlyph name="Rcaron" xMin="16" yMin="0" xMax="514" yMax="838">
      <contour>
        <pt x="224" y="835" on="1"/>
        <pt x="322" y="766" on="1"/>
        <pt x="424" y="838" on="1"/>
        <pt x="449" y="805" on="1"/>
        <pt x="384" y="744" on="1"/>
        <pt x="326" y="689" on="0"/>
        <pt x="308" y="689" on="1"/>
        <pt x="296" y="689" on="0"/>
        <pt x="247" y="738" on="1"/>
        <pt x="189" y="797" on="1"/>
      </contour>
      <contour>
        <pt x="91" y="51" on="1"/>
        <pt x="168" y="597" on="1"/>
        <pt x="101" y="611" on="1"/>
        <pt x="105" y="648" on="1"/>
        <pt x="327" y="648" on="1"/>
        <pt x="409" y="648" on="0"/>
        <pt x="498" y="573" on="0"/>
        <pt x="498" y="503" on="1"/>
        <pt x="496" y="428" on="0"/>
        <pt x="399" y="318" on="0"/>
        <pt x="311" y="297" on="1"/>
        <pt x="330" y="284" on="0"/>
        <pt x="357" y="245" on="0"/>
        <pt x="372" y="212" on="1"/>
        <pt x="437" y="65" on="1"/>
        <pt x="514" y="37" on="1"/>
        <pt x="511" y="0" on="1"/>
        <pt x="416" y="0" on="1"/>
        <pt x="400" y="0" on="0"/>
        <pt x="372" y="16" on="0"/>
        <pt x="366" y="31" on="1"/>
        <pt x="305" y="171" on="1"/>
        <pt x="284" y="219" on="0"/>
        <pt x="262" y="259" on="0"/>
        <pt x="230" y="282" on="0"/>
        <pt x="202" y="285" on="1"/>
        <pt x="170" y="51" on="1"/>
        <pt x="238" y="37" on="1"/>
        <pt x="235" y="0" on="1"/>
        <pt x="16" y="0" on="1"/>
        <pt x="20" y="37" on="1"/>
      </contour>
      <contour>
        <pt x="305" y="328" on="0"/>
        <pt x="412" y="406" on="0"/>
        <pt x="412" y="483" on="1"/>
        <pt x="412" y="541" on="0"/>
        <pt x="368" y="600" on="0"/>
        <pt x="309" y="600" on="1"/>
        <pt x="284" y="600" on="0"/>
        <pt x="251" y="598" on="0"/>
        <pt x="247" y="597" on="1"/>
        <pt x="208" y="328" on="1"/>
      </contour>
    </TTGlyph>
    <TTGlyph name="Rcommaaccent" xMin="16" yMin="-201" xMax="514" yMax="648">
      <contour>
        <pt x="91" y="51" on="1"/>
        <pt x="168" y="597" on="1"/>
        <pt x="101" y="611" on="1"/>
        <pt x="105" y="648" on="1"/>
        <pt x="327" y="648" on="1"/>
        <pt x="409" y="648" on="0"/>
        <pt x="498" y="573" on="0"/>
        <pt x="498" y="503" on="1"/>
        <pt x="496" y="428" on="0"/>
        <pt x="399" y="318" on="0"/>
        <pt x="311" y="297" on="1"/>
        <pt x="330" y="284" on="0"/>
        <pt x="357" y="245" on="0"/>
        <pt x="372" y="212" on="1"/>
        <pt x="437" y="65" on="1"/>
        <pt x="514" y="37" on="1"/>
        <pt x="511" y="0" on="1"/>
        <pt x="416" y="0" on="1"/>
        <pt x="400" y="0" on="0"/>
        <pt x="372" y="16" on="0"/>
        <pt x="366" y="31" on="1"/>
        <pt x="305" y="171" on="1"/>
        <pt x="284" y="219" on="0"/>
        <pt x="262" y="259" on="0"/>
        <pt x="230" y="282" on="0"/>
        <pt x="202" y="285" on="1"/>
        <pt x="170" y="51" on="1"/>
        <pt x="238" y="37" on="1"/>
        <pt x="235" y="0" on="1"/>
        <pt x="16" y="0" on="1"/>
        <pt x="20" y="37" on="1"/>
      </contour>
      <contour>
        <pt x="305" y="328" on="0"/>
        <pt x="412" y="406" on="0"/>
        <pt x="412" y="483" on="1"/>
        <pt x="412" y="541" on="0"/>
        <pt x="368" y="600" on="0"/>
        <pt x="309" y="600" on="1"/>
        <pt x="284" y="600" on="0"/>
        <pt x="251" y="598" on="0"/>
        <pt x="247" y="597" on="1"/>
        <pt x="208" y="328" on="1"/>
      </contour>
      <contour>
        <pt x="220" y="-181" on="0"/>
        <pt x="238" y="-161" on="0"/>
        <pt x="254" y="-130" on="0"/>
        <pt x="254" y="-113" on="1"/>
        <pt x="254" y="-78" on="0"/>
        <pt x="230" y="-56" on="1"/>
        <pt x="244" y="-33" on="0"/>
        <pt x="274" y="-33" on="1"/>
        <pt x="296" y="-33" on="0"/>
        <pt x="325" y="-61" on="0"/>
        <pt x="325" y="-91" on="1"/>
        <pt x="325" y="-129" on="0"/>
        <pt x="259" y="-190" on="0"/>
        <pt x="234" y="-201" on="1"/>
        <pt x="217" y="-184" on="1"/>
      </contour>
    </TTGlyph>
    <TTGlyph name="S" xMin="9" yMin="-11" xMax="432" yMax="660">
      <contour>
        <pt x="119" y="-11" on="0"/>
        <pt x="26" y="20" on="0"/>
        <pt x="9" y="37" on="1"/>
        <pt x="25" y="178" on="1"/>
        <pt x="74" y="178" on="1"/>
        <pt x="85" y="67" on="1"/>
        <pt x="85" y="66" on="0"/>
        <pt x="106" y="52" on="0"/>
        <pt x="144" y="40" on="0"/>
        <pt x="171" y="40" on="1"/>
        <pt x="315" y="40" on="0"/>
        <pt x="315" y="156" on="1"/>
        <pt x="315" y="195" on="0"/>
        <pt x="258" y="262" on="0"/>
        <pt x="201" y="309" on="1"/>
        <pt x="158" y="345" on="0"/>
        <pt x="108" y="394" on="0"/>
        <pt x="73" y="456" on="0"/>
        <pt x="73" y="490" on="1"/>
        <pt x="73" y="575" on="0"/>
        <pt x="185" y="660" on="0"/>
        <pt x="280" y="660" on="1"/>
        <pt x="322" y="660" on="0"/>
        <pt x="406" y="646" on="0"/>
        <pt x="432" y="636" on="1"/>
        <pt x="415" y="486" on="1"/>
        <pt x="371" y="486" on="1"/>
        <pt x="363" y="590" on="1"/>
        <pt x="360" y="592" on="0"/>
        <pt x="333" y="601" on="0"/>
        <pt x="289" y="609" on="0"/>
        <pt x="265" y="609" on="1"/>
        <pt x="149" y="609" on="0"/>
        <pt x="149" y="521" on="1"/>
        <pt x="149" y="484" on="0"/>
        <pt x="204" y="419" on="0"/>
        <pt x="261" y="371" on="1"/>
        <pt x="305" y="333" on="0"/>
        <pt x="355" y="282" on="0"/>
        <pt x="391" y="219" on="0"/>
        <pt x="391" y="185" on="1"/>
        <pt x="391" y="94" on="0"/>
        <pt x="272" y="-11" on="0"/>
        <pt x="165" y="-11" on="1"/>
      </contour>
    </TTGlyph>
    <TTGlyph name="Sacute" xMin="9" yMin="-11" xMax="432" yMax="835">
      <contour>
        <pt x="370" y="835" on="1"/>
        <pt x="385" y="828" on="0"/>
        <pt x="404" y="800" on="0"/>
        <pt x="404" y="785" on="1"/>
        <pt x="404" y="767" on="0"/>
        <pt x="380" y="744" on="0"/>
        <pt x="354" y="734" on="1"/>
        <pt x="224" y="680" on="1"/>
        <pt x="202" y="715" on="1"/>
      </contour>
      <contour>
        <pt x="119" y="-11" on="0"/>
        <pt x="26" y="20" on="0"/>
        <pt x="9" y="37" on="1"/>
        <pt x="25" y="178" on="1"/>
        <pt x="74" y="178" on="1"/>
        <pt x="85" y="67" on="1"/>
        <pt x="85" y="66" on="0"/>
        <pt x="106" y="52" on="0"/>
        <pt x="144" y="40" on="0"/>
        <pt x="171" y="40" on="1"/>
        <pt x="315" y="40" on="0"/>
        <pt x="315" y="156" on="1"/>
        <pt x="315" y="195" on="0"/>
        <pt x="258" y="262" on="0"/>
        <pt x="201" y="309" on="1"/>
        <pt x="158" y="345" on="0"/>
        <pt x="108" y="394" on="0"/>
        <pt x="73" y="456" on="0"/>
        <pt x="73" y="490" on="1"/>
        <pt x="73" y="575" on="0"/>
        <pt x="185" y="660" on="0"/>
        <pt x="280" y="660" on="1"/>
        <pt x="322" y="660" on="0"/>
        <pt x="406" y="646" on="0"/>
        <pt x="432" y="636" on="1"/>
        <pt x="415" y="486" on="1"/>
        <pt x="371" y="486" on="1"/>
        <pt x="363" y="590" on="1"/>
        <pt x="360" y="592" on="0"/>
        <pt x="333" y="601" on="0"/>
        <pt x="289" y="609" on="0"/>
        <pt x="265" y="609" on="1"/>
        <pt x="149" y="609" on="0"/>
        <pt x="149" y="521" on="1"/>
        <pt x="149" y="484" on="0"/>
        <pt x="204" y="419" on="0"/>
        <pt x="261" y="371" on="1"/>
        <pt x="305" y="333" on="0"/>
        <pt x="355" y="282" on="0"/>
        <pt x="391" y="219" on="0"/>
        <pt x="391" y="185" on="1"/>
        <pt x="391" y="94" on="0"/>
        <pt x="272" y="-11" on="0"/>
        <pt x="165" y="-11" on="1"/>
      </contour>
    </TTGlyph>
    <TTGlyph name="Sacute.loclPLK" xMin="9" yMin="-11" xMax="432" yMax="853">
      <contour>
        <pt x="370" y="853" on="1"/>
        <pt x="391" y="851" on="0"/>
        <pt x="421" y="821" on="0"/>
        <pt x="421" y="803" on="1"/>
        <pt x="421" y="781" on="0"/>
        <pt x="388" y="753" on="1"/>
        <pt x="295" y="668" on="1"/>
        <pt x="261" y="698" on="1"/>
      </contour>
      <contour>
        <pt x="119" y="-11" on="0"/>
        <pt x="26" y="20" on="0"/>
        <pt x="9" y="37" on="1"/>
        <pt x="25" y="178" on="1"/>
        <pt x="74" y="178" on="1"/>
        <pt x="85" y="67" on="1"/>
        <pt x="85" y="66" on="0"/>
        <pt x="106" y="52" on="0"/>
        <pt x="144" y="40" on="0"/>
        <pt x="171" y="40" on="1"/>
        <pt x="315" y="40" on="0"/>
        <pt x="315" y="156" on="1"/>
        <pt x="315" y="195" on="0"/>
        <pt x="258" y="262" on="0"/>
        <pt x="201" y="309" on="1"/>
        <pt x="158" y="345" on="0"/>
        <pt x="108" y="394" on="0"/>
        <pt x="73" y="456" on="0"/>
        <pt x="73" y="490" on="1"/>
        <pt x="73" y="575" on="0"/>
        <pt x="185" y="660" on="0"/>
        <pt x="280" y="660" on="1"/>
        <pt x="322" y="660" on="0"/>
        <pt x="406" y="646" on="0"/>
        <pt x="432" y="636" on="1"/>
        <pt x="415" y="486" on="1"/>
        <pt x="371" y="486" on="1"/>
        <pt x="363" y="590" on="1"/>
        <pt x="360" y="592" on="0"/>
        <pt x="333" y="601" on="0"/>
        <pt x="289" y="609" on="0"/>
        <pt x="265" y="609" on="1"/>
        <pt x="149" y="609" on="0"/>
        <pt x="149" y="521" on="1"/>
        <pt x="149" y="484" on="0"/>
        <pt x="204" y="419" on="0"/>
        <pt x="261" y="371" on="1"/>
        <pt x="305" y="333" on="0"/>
        <pt x="355" y="282" on="0"/>
        <pt x="391" y="219" on="0"/>
        <pt x="391" y="185" on="1"/>
        <pt x="391" y="94" on="0"/>
        <pt x="272" y="-11" on="0"/>
        <pt x="165" y="-11" on="1"/>
      </contour>
    </TTGlyph>
    <TTGlyph name="Scaron" xMin="9" yMin="-11" xMax="433" yMax="839">
      <contour>
        <pt x="208" y="836" on="1"/>
        <pt x="306" y="767" on="1"/>
        <pt x="408" y="839" on="1"/>
        <pt x="433" y="806" on="1"/>
        <pt x="368" y="745" on="1"/>
        <pt x="310" y="690" on="0"/>
        <pt x="292" y="690" on="1"/>
        <pt x="280" y="690" on="0"/>
        <pt x="231" y="739" on="1"/>
        <pt x="173" y="798" on="1"/>
      </contour>
      <contour>
        <pt x="119" y="-11" on="0"/>
        <pt x="26" y="20" on="0"/>
        <pt x="9" y="37" on="1"/>
        <pt x="25" y="178" on="1"/>
        <pt x="74" y="178" on="1"/>
        <pt x="85" y="67" on="1"/>
        <pt x="85" y="66" on="0"/>
        <pt x="106" y="52" on="0"/>
        <pt x="144" y="40" on="0"/>
        <pt x="171" y="40" on="1"/>
        <pt x="315" y="40" on="0"/>
        <pt x="315" y="156" on="1"/>
        <pt x="315" y="195" on="0"/>
        <pt x="258" y="262" on="0"/>
        <pt x="201" y="309" on="1"/>
        <pt x="158" y="345" on="0"/>
        <pt x="108" y="394" on="0"/>
        <pt x="73" y="456" on="0"/>
        <pt x="73" y="490" on="1"/>
        <pt x="73" y="575" on="0"/>
        <pt x="185" y="660" on="0"/>
        <pt x="280" y="660" on="1"/>
        <pt x="322" y="660" on="0"/>
        <pt x="406" y="646" on="0"/>
        <pt x="432" y="636" on="1"/>
        <pt x="415" y="486" on="1"/>
        <pt x="371" y="486" on="1"/>
        <pt x="363" y="590" on="1"/>
        <pt x="360" y="592" on="0"/>
        <pt x="333" y="601" on="0"/>
        <pt x="289" y="609" on="0"/>
        <pt x="265" y="609" on="1"/>
        <pt x="149" y="609" on="0"/>
        <pt x="149" y="521" on="1"/>
        <pt x="149" y="484" on="0"/>
        <pt x="204" y="419" on="0"/>
        <pt x="261" y="371" on="1"/>
        <pt x="305" y="333" on="0"/>
        <pt x="355" y="282" on="0"/>
        <pt x="391" y="219" on="0"/>
        <pt x="391" y="185" on="1"/>
        <pt x="391" y="94" on="0"/>
        <pt x="272" y="-11" on="0"/>
        <pt x="165" y="-11" on="1"/>
      </contour>
    </TTGlyph>
    <TTGlyph name="Scedilla" xMin="9" yMin="-187" xMax="432" yMax="660">
      <contour>
        <pt x="101" y="-137" on="0"/>
        <pt x="126" y="-145" on="0"/>
        <pt x="148" y="-145" on="1"/>
        <pt x="192" y="-145" on="0"/>
        <pt x="192" y="-122" on="1"/>
        <pt x="192" y="-109" on="0"/>
        <pt x="169" y="-96" on="1"/>
        <pt x="117" y="-69" on="1"/>
        <pt x="117" y="-49" on="1"/>
        <pt x="145" y="-10" on="1"/>
        <pt x="103" y="-7" on="0"/>
        <pt x="24" y="22" on="0"/>
        <pt x="9" y="37" on="1"/>
        <pt x="25" y="178" on="1"/>
        <pt x="74" y="178" on="1"/>
        <pt x="85" y="67" on="1"/>
        <pt x="85" y="66" on="0"/>
        <pt x="106" y="52" on="0"/>
        <pt x="144" y="40" on="0"/>
        <pt x="171" y="40" on="1"/>
        <pt x="315" y="40" on="0"/>
        <pt x="315" y="156" on="1"/>
        <pt x="315" y="194" on="0"/>
        <pt x="258" y="261" on="0"/>
        <pt x="202" y="308" on="1"/>
        <pt x="139" y="361" on="0"/>
        <pt x="73" y="441" on="0"/>
        <pt x="73" y="490" on="1"/>
        <pt x="73" y="575" on="0"/>
        <pt x="185" y="660" on="0"/>
        <pt x="280" y="660" on="1"/>
        <pt x="322" y="660" on="0"/>
        <pt x="406" y="646" on="0"/>
        <pt x="432" y="636" on="1"/>
        <pt x="415" y="486" on="1"/>
        <pt x="371" y="486" on="1"/>
        <pt x="363" y="590" on="1"/>
        <pt x="360" y="592" on="0"/>
        <pt x="333" y="601" on="0"/>
        <pt x="289" y="609" on="0"/>
        <pt x="265" y="609" on="1"/>
        <pt x="149" y="609" on="0"/>
        <pt x="149" y="521" on="1"/>
        <pt x="149" y="485" on="0"/>
        <pt x="204" y="420" on="0"/>
        <pt x="260" y="373" on="1"/>
        <pt x="303" y="336" on="0"/>
        <pt x="355" y="284" on="0"/>
        <pt x="391" y="220" on="0"/>
        <pt x="391" y="185" on="1"/>
        <pt x="391" y="100" on="0"/>
        <pt x="288" y="-3" on="0"/>
        <pt x="194" y="-10" on="1"/>
        <pt x="194" y="-29" on="1"/>
        <pt x="228" y="-50" on="1"/>
        <pt x="260" y="-70" on="0"/>
        <pt x="260" y="-98" on="1"/>
        <pt x="260" y="-148" on="0"/>
        <pt x="197" y="-187" on="0"/>
        <pt x="152" y="-187" on="1"/>
        <pt x="106" y="-187" on="0"/>
        <pt x="68" y="-158" on="1"/>
        <pt x="88" y="-129" on="1"/>
      </contour>
    </TTGlyph>
    <TTGlyph name="Scircumflex" xMin="9" yMin="-11" xMax="433" yMax="834">
      <component glyphName=".ttfautohint" x="9" y="0" flags="0x0"/>
      <component glyphName="S" x="0" y="0" flags="0x0"/>
      <component glyphName="uni0302.case" x="366" y="0" flags="0x0"/>
    </TTGlyph>
    <TTGlyph name="Scommaaccent" xMin="9" yMin="-201" xMax="432" yMax="660">
      <contour>
        <pt x="119" y="-11" on="0"/>
        <pt x="26" y="20" on="0"/>
        <pt x="9" y="37" on="1"/>
        <pt x="25" y="178" on="1"/>
        <pt x="74" y="178" on="1"/>
        <pt x="85" y="67" on="1"/>
        <pt x="85" y="66" on="0"/>
        <pt x="106" y="52" on="0"/>
        <pt x="144" y="40" on="0"/>
        <pt x="171" y="40" on="1"/>
        <pt x="315" y="40" on="0"/>
        <pt x="315" y="156" on="1"/>
        <pt x="315" y="195" on="0"/>
        <pt x="258" y="262" on="0"/>
        <pt x="201" y="309" on="1"/>
        <pt x="158" y="345" on="0"/>
        <pt x="108" y="394" on="0"/>
        <pt x="73" y="456" on="0"/>
        <pt x="73" y="490" on="1"/>
        <pt x="73" y="575" on="0"/>
        <pt x="185" y="660" on="0"/>
        <pt x="280" y="660" on="1"/>
        <pt x="322" y="660" on="0"/>
        <pt x="406" y="646" on="0"/>
        <pt x="432" y="636" on="1"/>
        <pt x="415" y="486" on="1"/>
        <pt x="371" y="486" on="1"/>
        <pt x="363" y="590" on="1"/>
        <pt x="360" y="592" on="0"/>
        <pt x="333" y="601" on="0"/>
        <pt x="289" y="609" on="0"/>
        <pt x="265" y="609" on="1"/>
        <pt x="149" y="609" on="0"/>
        <pt x="149" y="521" on="1"/>
        <pt x="149" y="484" on="0"/>
        <pt x="204" y="419" on="0"/>
        <pt x="261" y="371" on="1"/>
        <pt x="305" y="333" on="0"/>
        <pt x="355" y="282" on="0"/>
        <pt x="391" y="219" on="0"/>
        <pt x="391" y="185" on="1"/>
        <pt x="391" y="94" on="0"/>
        <pt x="272" y="-11" on="0"/>
        <pt x="165" y="-11" on="1"/>
      </contour>
      <contour>
        <pt x="107" y="-181" on="0"/>
        <pt x="125" y="-161" on="0"/>
        <pt x="141" y="-130" on="0"/>
        <pt x="141" y="-113" on="1"/>
        <pt x="141" y="-78" on="0"/>
        <pt x="117" y="-56" on="1"/>
        <pt x="131" y="-33" on="0"/>
        <pt x="161" y="-33" on="1"/>
        <pt x="183" y="-33" on="0"/>
        <pt x="212" y="-61" on="0"/>
        <pt x="212" y="-91" on="1"/>
        <pt x="212" y="-129" on="0"/>
        <pt x="146" y="-190" on="0"/>
        <pt x="121" y="-201" on="1"/>
        <pt x="104" y="-184" on="1"/>
      </contour>
    </TTGlyph>
    <TTGlyph name="T" xMin="34" yMin="0" xMax="515" yMax="648">
      <contour>
        <pt x="165" y="51" on="1"/>
        <pt x="242" y="597" on="1"/>
        <pt x="116" y="597" on="1"/>
        <pt x="79" y="484" on="1"/>
        <pt x="34" y="484" on="1"/>
        <pt x="53" y="648" on="1"/>
        <pt x="515" y="648" on="1"/>
        <pt x="487" y="484" on="1"/>
        <pt x="435" y="484" on="1"/>
        <pt x="442" y="597" on="1"/>
        <pt x="321" y="597" on="1"/>
        <pt x="244" y="51" on="1"/>
        <pt x="312" y="37" on="1"/>
        <pt x="309" y="0" on="1"/>
        <pt x="90" y="0" on="1"/>
        <pt x="94" y="37" on="1"/>
      </contour>
    </TTGlyph>
    <TTGlyph name="Tbar" xMin="34" yMin="0" xMax="515" yMax="648">
      <contour>
        <pt x="435" y="484" on="1"/>
        <pt x="442" y="597" on="1"/>
        <pt x="321" y="597" on="1"/>
        <pt x="288" y="363" on="1"/>
        <pt x="463" y="363" on="1"/>
        <pt x="455" y="311" on="1"/>
        <pt x="281" y="311" on="1"/>
        <pt x="244" y="51" on="1"/>
        <pt x="312" y="37" on="1"/>
        <pt x="309" y="0" on="1"/>
        <pt x="90" y="0" on="1"/>
        <pt x="94" y="37" on="1"/>
        <pt x="165" y="51" on="1"/>
        <pt x="202" y="311" on="1"/>
        <pt x="35" y="311" on="1"/>
        <pt x="43" y="363" on="1"/>
        <pt x="209" y="363" on="1"/>
        <pt x="242" y="597" on="1"/>
        <pt x="116" y="597" on="1"/>
        <pt x="79" y="484" on="1"/>
        <pt x="34" y="484" on="1"/>
        <pt x="53" y="648" on="1"/>
        <pt x="515" y="648" on="1"/>
        <pt x="487" y="484" on="1"/>
      </contour>
    </TTGlyph>
    <TTGlyph name="Tcaron" xMin="34" yMin="0" xMax="515" yMax="838">
      <contour>
        <pt x="208" y="835" on="1"/>
        <pt x="306" y="766" on="1"/>
        <pt x="408" y="838" on="1"/>
        <pt x="433" y="805" on="1"/>
        <pt x="368" y="744" on="1"/>
        <pt x="310" y="689" on="0"/>
        <pt x="292" y="689" on="1"/>
        <pt x="280" y="689" on="0"/>
        <pt x="231" y="738" on="1"/>
        <pt x="173" y="797" on="1"/>
      </contour>
      <contour>
        <pt x="165" y="51" on="1"/>
        <pt x="242" y="597" on="1"/>
        <pt x="116" y="597" on="1"/>
        <pt x="79" y="484" on="1"/>
        <pt x="34" y="484" on="1"/>
        <pt x="53" y="648" on="1"/>
        <pt x="515" y="648" on="1"/>
        <pt x="487" y="484" on="1"/>
        <pt x="435" y="484" on="1"/>
        <pt x="442" y="597" on="1"/>
        <pt x="321" y="597" on="1"/>
        <pt x="244" y="51" on="1"/>
        <pt x="312" y="37" on="1"/>
        <pt x="309" y="0" on="1"/>
        <pt x="90" y="0" on="1"/>
        <pt x="94" y="37" on="1"/>
      </contour>
    </TTGlyph>
    <TTGlyph name="Thorn" xMin="15" yMin="0" xMax="475" yMax="648">
      <contour>
        <pt x="90" y="51" on="1"/>
        <pt x="167" y="597" on="1"/>
        <pt x="99" y="611" on="1"/>
        <pt x="103" y="648" on="1"/>
        <pt x="321" y="648" on="1"/>
        <pt x="317" y="611" on="1"/>
        <pt x="246" y="597" on="1"/>
        <pt x="233" y="504" on="1"/>
        <pt x="293" y="504" on="1"/>
        <pt x="379" y="504" on="0"/>
        <pt x="475" y="431" on="0"/>
        <pt x="475" y="351" on="1"/>
        <pt x="475" y="286" on="0"/>
        <pt x="412" y="200" on="0"/>
        <pt x="312" y="158" on="0"/>
        <pt x="256" y="158" on="1"/>
        <pt x="209" y="158" on="0"/>
        <pt x="185" y="164" on="1"/>
        <pt x="169" y="51" on="1"/>
        <pt x="237" y="37" on="1"/>
        <pt x="234" y="0" on="1"/>
        <pt x="15" y="0" on="1"/>
        <pt x="19" y="37" on="1"/>
      </contour>
      <contour>
        <pt x="210" y="198" on="0"/>
        <pt x="235" y="198" on="1"/>
        <pt x="315" y="198" on="0"/>
        <pt x="388" y="272" on="0"/>
        <pt x="388" y="344" on="1"/>
        <pt x="388" y="411" on="0"/>
        <pt x="330" y="457" on="0"/>
        <pt x="275" y="457" on="1"/>
        <pt x="256" y="457" on="0"/>
        <pt x="226" y="452" on="0"/>
        <pt x="225" y="452" on="1"/>
        <pt x="190" y="203" on="1"/>
      </contour>
    </TTGlyph>
    <TTGlyph name="U" xMin="59" yMin="-11" xMax="648" yMax="648">
      <contour>
        <pt x="59" y="611" on="1"/>
        <pt x="63" y="648" on="1"/>
        <pt x="282" y="648" on="1"/>
        <pt x="278" y="611" on="1"/>
        <pt x="205" y="597" on="1"/>
        <pt x="160" y="278" on="1"/>
        <pt x="153" y="225" on="0"/>
        <pt x="153" y="182" on="1"/>
        <pt x="153" y="133" on="0"/>
        <pt x="177" y="75" on="0"/>
        <pt x="238" y="46" on="0"/>
        <pt x="294" y="46" on="1"/>
        <pt x="373" y="46" on="0"/>
        <pt x="450" y="161" on="0"/>
        <pt x="466" y="278" on="1"/>
        <pt x="510" y="596" on="1"/>
        <pt x="443" y="611" on="1"/>
        <pt x="447" y="648" on="1"/>
        <pt x="648" y="648" on="1"/>
        <pt x="644" y="611" on="1"/>
        <pt x="571" y="596" on="1"/>
        <pt x="528" y="279" on="1"/>
        <pt x="514" y="179" on="0"/>
        <pt x="456" y="53" on="0"/>
        <pt x="344" y="-11" on="0"/>
        <pt x="253" y="-11" on="1"/>
        <pt x="164" y="-11" on="0"/>
        <pt x="72" y="83" on="0"/>
        <pt x="72" y="166" on="1"/>
        <pt x="72" y="218" on="0"/>
        <pt x="81" y="279" on="1"/>
        <pt x="126" y="597" on="1"/>
      </contour>
    </TTGlyph>
    <TTGlyph name="Uacute" xMin="59" yMin="-11" xMax="648" yMax="846">
      <contour>
        <pt x="454" y="846" on="1"/>
        <pt x="469" y="839" on="0"/>
        <pt x="488" y="811" on="0"/>
        <pt x="488" y="796" on="1"/>
        <pt x="488" y="778" on="0"/>
        <pt x="464" y="755" on="0"/>
        <pt x="438" y="745" on="1"/>
        <pt x="308" y="691" on="1"/>
        <pt x="286" y="726" on="1"/>
      </contour>
      <contour>
        <pt x="59" y="611" on="1"/>
        <pt x="63" y="648" on="1"/>
        <pt x="282" y="648" on="1"/>
        <pt x="278" y="611" on="1"/>
        <pt x="205" y="597" on="1"/>
        <pt x="160" y="278" on="1"/>
        <pt x="153" y="225" on="0"/>
        <pt x="153" y="182" on="1"/>
        <pt x="153" y="133" on="0"/>
        <pt x="177" y="75" on="0"/>
        <pt x="238" y="46" on="0"/>
        <pt x="294" y="46" on="1"/>
        <pt x="373" y="46" on="0"/>
        <pt x="450" y="161" on="0"/>
        <pt x="466" y="278" on="1"/>
        <pt x="510" y="596" on="1"/>
        <pt x="443" y="611" on="1"/>
        <pt x="447" y="648" on="1"/>
        <pt x="648" y="648" on="1"/>
        <pt x="644" y="611" on="1"/>
        <pt x="571" y="596" on="1"/>
        <pt x="528" y="279" on="1"/>
        <pt x="514" y="179" on="0"/>
        <pt x="456" y="53" on="0"/>
        <pt x="344" y="-11" on="0"/>
        <pt x="253" y="-11" on="1"/>
        <pt x="164" y="-11" on="0"/>
        <pt x="72" y="83" on="0"/>
        <pt x="72" y="166" on="1"/>
        <pt x="72" y="218" on="0"/>
        <pt x="81" y="279" on="1"/>
        <pt x="126" y="597" on="1"/>
      </contour>
    </TTGlyph>
    <TTGlyph name="Ubreve" xMin="59" yMin="-11" xMax="648" yMax="829">
      <component glyphName=".ttfautohint" x="59" y="0" flags="0x0"/>
      <component glyphName="U" x="0" y="0" flags="0x0"/>
      <component glyphName="uni0306.case" x="451" y="0" flags="0x0"/>
    </TTGlyph>
    <TTGlyph name="Ucircumflex" xMin="59" yMin="-11" xMax="648" yMax="844">
      <contour>
        <pt x="300" y="791" on="1"/>
        <pt x="326" y="810" on="0"/>
        <pt x="336" y="819" on="1"/>
        <pt x="341" y="823" on="0"/>
        <pt x="364" y="839" on="0"/>
        <pt x="373" y="844" on="0"/>
        <pt x="376" y="844" on="1"/>
        <pt x="384" y="843" on="0"/>
        <pt x="437" y="798" on="0"/>
        <pt x="441" y="795" on="1"/>
        <pt x="501" y="740" on="1"/>
        <pt x="468" y="699" on="1"/>
        <pt x="362" y="766" on="1"/>
        <pt x="254" y="705" on="1"/>
        <pt x="229" y="738" on="1"/>
      </contour>
      <contour>
        <pt x="59" y="611" on="1"/>
        <pt x="63" y="648" on="1"/>
        <pt x="282" y="648" on="1"/>
        <pt x="278" y="611" on="1"/>
        <pt x="205" y="597" on="1"/>
        <pt x="160" y="278" on="1"/>
        <pt x="153" y="225" on="0"/>
        <pt x="153" y="182" on="1"/>
        <pt x="153" y="133" on="0"/>
        <pt x="177" y="75" on="0"/>
        <pt x="238" y="46" on="0"/>
        <pt x="294" y="46" on="1"/>
        <pt x="373" y="46" on="0"/>
        <pt x="450" y="161" on="0"/>
        <pt x="466" y="278" on="1"/>
        <pt x="510" y="596" on="1"/>
        <pt x="443" y="611" on="1"/>
        <pt x="447" y="648" on="1"/>
        <pt x="648" y="648" on="1"/>
        <pt x="644" y="611" on="1"/>
        <pt x="571" y="596" on="1"/>
        <pt x="528" y="279" on="1"/>
        <pt x="514" y="179" on="0"/>
        <pt x="456" y="53" on="0"/>
        <pt x="344" y="-11" on="0"/>
        <pt x="253" y="-11" on="1"/>
        <pt x="164" y="-11" on="0"/>
        <pt x="72" y="83" on="0"/>
        <pt x="72" y="166" on="1"/>
        <pt x="72" y="218" on="0"/>
        <pt x="81" y="279" on="1"/>
        <pt x="126" y="597" on="1"/>
      </contour>
    </TTGlyph>
    <TTGlyph name="Udieresis" xMin="59" yMin="-11" xMax="648" yMax="819">
      <contour>
        <pt x="243" y="703" on="0"/>
        <pt x="215" y="734" on="0"/>
        <pt x="215" y="759" on="1"/>
        <pt x="215" y="784" on="0"/>
        <pt x="246" y="819" on="0"/>
        <pt x="270" y="819" on="1"/>
        <pt x="293" y="819" on="0"/>
        <pt x="321" y="790" on="0"/>
        <pt x="321" y="765" on="1"/>
        <pt x="321" y="739" on="0"/>
        <pt x="291" y="703" on="0"/>
        <pt x="266" y="703" on="1"/>
      </contour>
      <contour>
        <pt x="454" y="703" on="0"/>
        <pt x="426" y="734" on="0"/>
        <pt x="426" y="759" on="1"/>
        <pt x="426" y="784" on="0"/>
        <pt x="457" y="819" on="0"/>
        <pt x="481" y="819" on="1"/>
        <pt x="504" y="819" on="0"/>
        <pt x="532" y="790" on="0"/>
        <pt x="532" y="765" on="1"/>
        <pt x="532" y="739" on="0"/>
        <pt x="502" y="703" on="0"/>
        <pt x="477" y="703" on="1"/>
      </contour>
      <contour>
        <pt x="59" y="611" on="1"/>
        <pt x="63" y="648" on="1"/>
        <pt x="282" y="648" on="1"/>
        <pt x="278" y="611" on="1"/>
        <pt x="205" y="597" on="1"/>
        <pt x="160" y="278" on="1"/>
        <pt x="153" y="225" on="0"/>
        <pt x="153" y="182" on="1"/>
        <pt x="153" y="133" on="0"/>
        <pt x="177" y="75" on="0"/>
        <pt x="238" y="46" on="0"/>
        <pt x="294" y="46" on="1"/>
        <pt x="373" y="46" on="0"/>
        <pt x="450" y="161" on="0"/>
        <pt x="466" y="278" on="1"/>
        <pt x="510" y="596" on="1"/>
        <pt x="443" y="611" on="1"/>
        <pt x="447" y="648" on="1"/>
        <pt x="648" y="648" on="1"/>
        <pt x="644" y="611" on="1"/>
        <pt x="571" y="596" on="1"/>
        <pt x="528" y="279" on="1"/>
        <pt x="514" y="179" on="0"/>
        <pt x="456" y="53" on="0"/>
        <pt x="344" y="-11" on="0"/>
        <pt x="253" y="-11" on="1"/>
        <pt x="164" y="-11" on="0"/>
        <pt x="72" y="83" on="0"/>
        <pt x="72" y="166" on="1"/>
        <pt x="72" y="218" on="0"/>
        <pt x="81" y="279" on="1"/>
        <pt x="126" y="597" on="1"/>
      </contour>
    </TTGlyph>
    <TTGlyph name="Ugrave" xMin="59" yMin="-11" xMax="648" yMax="846">
      <contour>
        <pt x="255" y="755" on="0"/>
        <pt x="231" y="778" on="0"/>
        <pt x="231" y="796" on="1"/>
        <pt x="231" y="811" on="0"/>
        <pt x="250" y="839" on="0"/>
        <pt x="265" y="846" on="1"/>
        <pt x="433" y="726" on="1"/>
        <pt x="411" y="691" on="1"/>
        <pt x="281" y="745" on="1"/>
      </contour>
      <contour>
        <pt x="59" y="611" on="1"/>
        <pt x="63" y="648" on="1"/>
        <pt x="282" y="648" on="1"/>
        <pt x="278" y="611" on="1"/>
        <pt x="205" y="597" on="1"/>
        <pt x="160" y="278" on="1"/>
        <pt x="153" y="225" on="0"/>
        <pt x="153" y="182" on="1"/>
        <pt x="153" y="133" on="0"/>
        <pt x="177" y="75" on="0"/>
        <pt x="238" y="46" on="0"/>
        <pt x="294" y="46" on="1"/>
        <pt x="373" y="46" on="0"/>
        <pt x="450" y="161" on="0"/>
        <pt x="466" y="278" on="1"/>
        <pt x="510" y="596" on="1"/>
        <pt x="443" y="611" on="1"/>
        <pt x="447" y="648" on="1"/>
        <pt x="648" y="648" on="1"/>
        <pt x="644" y="611" on="1"/>
        <pt x="571" y="596" on="1"/>
        <pt x="528" y="279" on="1"/>
        <pt x="514" y="179" on="0"/>
        <pt x="456" y="53" on="0"/>
        <pt x="344" y="-11" on="0"/>
        <pt x="253" y="-11" on="1"/>
        <pt x="164" y="-11" on="0"/>
        <pt x="72" y="83" on="0"/>
        <pt x="72" y="166" on="1"/>
        <pt x="72" y="218" on="0"/>
        <pt x="81" y="279" on="1"/>
        <pt x="126" y="597" on="1"/>
      </contour>
    </TTGlyph>
    <TTGlyph name="Uhorn" xMin="59" yMin="-11" xMax="704" yMax="776">
      <contour>
        <pt x="704" y="684" on="0"/>
        <pt x="642" y="610" on="0"/>
        <pt x="570" y="587" on="1"/>
        <pt x="528" y="279" on="1"/>
        <pt x="514" y="179" on="0"/>
        <pt x="456" y="53" on="0"/>
        <pt x="344" y="-11" on="0"/>
        <pt x="253" y="-11" on="1"/>
        <pt x="164" y="-11" on="0"/>
        <pt x="72" y="83" on="0"/>
        <pt x="72" y="166" on="1"/>
        <pt x="72" y="218" on="0"/>
        <pt x="81" y="279" on="1"/>
        <pt x="126" y="597" on="1"/>
        <pt x="59" y="611" on="1"/>
        <pt x="63" y="648" on="1"/>
        <pt x="282" y="648" on="1"/>
        <pt x="278" y="611" on="1"/>
        <pt x="205" y="597" on="1"/>
        <pt x="160" y="278" on="1"/>
        <pt x="153" y="225" on="0"/>
        <pt x="153" y="182" on="1"/>
        <pt x="153" y="133" on="0"/>
        <pt x="177" y="75" on="0"/>
        <pt x="238" y="46" on="0"/>
        <pt x="294" y="46" on="1"/>
        <pt x="373" y="46" on="0"/>
        <pt x="450" y="161" on="0"/>
        <pt x="466" y="278" on="1"/>
        <pt x="510" y="596" on="1"/>
        <pt x="443" y="611" on="1"/>
        <pt x="447" y="648" on="1"/>
        <pt x="575" y="648" on="1"/>
        <pt x="608" y="648" on="0"/>
        <pt x="638" y="665" on="0"/>
        <pt x="638" y="688" on="1"/>
        <pt x="638" y="700" on="0"/>
        <pt x="628" y="714" on="0"/>
        <pt x="617" y="722" on="1"/>
        <pt x="617" y="737" on="1"/>
        <pt x="672" y="776" on="1"/>
        <pt x="688" y="764" on="0"/>
        <pt x="704" y="741" on="0"/>
        <pt x="704" y="714" on="1"/>
      </contour>
    </TTGlyph>
    <TTGlyph name="Uhungarumlaut" xMin="59" yMin="-11" xMax="648" yMax="836">
      <contour>
        <pt x="380" y="827" on="0"/>
        <pt x="380" y="792" on="1"/>
        <pt x="379" y="779" on="0"/>
        <pt x="348" y="743" on="0"/>
        <pt x="331" y="729" on="1"/>
        <pt x="266" y="677" on="1"/>
        <pt x="238" y="701" on="1"/>
        <pt x="331" y="836" on="1"/>
      </contour>
      <contour>
        <pt x="510" y="831" on="0"/>
        <pt x="533" y="807" on="0"/>
        <pt x="533" y="792" on="1"/>
        <pt x="532" y="779" on="0"/>
        <pt x="501" y="743" on="0"/>
        <pt x="484" y="729" on="1"/>
        <pt x="419" y="677" on="1"/>
        <pt x="391" y="701" on="1"/>
        <pt x="484" y="836" on="1"/>
      </contour>
      <contour>
        <pt x="59" y="611" on="1"/>
        <pt x="63" y="648" on="1"/>
        <pt x="282" y="648" on="1"/>
        <pt x="278" y="611" on="1"/>
        <pt x="205" y="597" on="1"/>
        <pt x="160" y="278" on="1"/>
        <pt x="153" y="225" on="0"/>
        <pt x="153" y="182" on="1"/>
        <pt x="153" y="133" on="0"/>
        <pt x="177" y="75" on="0"/>
        <pt x="238" y="46" on="0"/>
        <pt x="294" y="46" on="1"/>
        <pt x="373" y="46" on="0"/>
        <pt x="450" y="161" on="0"/>
        <pt x="466" y="278" on="1"/>
        <pt x="510" y="596" on="1"/>
        <pt x="443" y="611" on="1"/>
        <pt x="447" y="648" on="1"/>
        <pt x="648" y="648" on="1"/>
        <pt x="644" y="611" on="1"/>
        <pt x="571" y="596" on="1"/>
        <pt x="528" y="279" on="1"/>
        <pt x="514" y="179" on="0"/>
        <pt x="456" y="53" on="0"/>
        <pt x="344" y="-11" on="0"/>
        <pt x="253" y="-11" on="1"/>
        <pt x="164" y="-11" on="0"/>
        <pt x="72" y="83" on="0"/>
        <pt x="72" y="166" on="1"/>
        <pt x="72" y="218" on="0"/>
        <pt x="81" y="279" on="1"/>
        <pt x="126" y="597" on="1"/>
      </contour>
    </TTGlyph>
    <TTGlyph name="Umacron" xMin="59" yMin="-11" xMax="648" yMax="782">
      <contour>
        <pt x="519" y="782" on="1"/>
        <pt x="510" y="719" on="1"/>
        <pt x="229" y="719" on="1"/>
        <pt x="237" y="782" on="1"/>
      </contour>
      <contour>
        <pt x="59" y="611" on="1"/>
        <pt x="63" y="648" on="1"/>
        <pt x="282" y="648" on="1"/>
        <pt x="278" y="611" on="1"/>
        <pt x="205" y="597" on="1"/>
        <pt x="160" y="278" on="1"/>
        <pt x="153" y="225" on="0"/>
        <pt x="153" y="182" on="1"/>
        <pt x="153" y="133" on="0"/>
        <pt x="177" y="75" on="0"/>
        <pt x="238" y="46" on="0"/>
        <pt x="294" y="46" on="1"/>
        <pt x="373" y="46" on="0"/>
        <pt x="450" y="161" on="0"/>
        <pt x="466" y="278" on="1"/>
        <pt x="510" y="596" on="1"/>
        <pt x="443" y="611" on="1"/>
        <pt x="447" y="648" on="1"/>
        <pt x="648" y="648" on="1"/>
        <pt x="644" y="611" on="1"/>
        <pt x="571" y="596" on="1"/>
        <pt x="528" y="279" on="1"/>
        <pt x="514" y="179" on="0"/>
        <pt x="456" y="53" on="0"/>
        <pt x="344" y="-11" on="0"/>
        <pt x="253" y="-11" on="1"/>
        <pt x="164" y="-11" on="0"/>
        <pt x="72" y="83" on="0"/>
        <pt x="72" y="166" on="1"/>
        <pt x="72" y="218" on="0"/>
        <pt x="81" y="279" on="1"/>
        <pt x="126" y="597" on="1"/>
      </contour>
    </TTGlyph>
    <TTGlyph name="Uogonek" xMin="59" yMin="-177" xMax="648" yMax="648">
      <contour>
        <pt x="416" y="-131" on="0"/>
        <pt x="385" y="-156" on="0"/>
        <pt x="338" y="-177" on="0"/>
        <pt x="311" y="-177" on="1"/>
        <pt x="236" y="-177" on="0"/>
        <pt x="236" y="-114" on="1"/>
        <pt x="236" y="-84" on="0"/>
        <pt x="268" y="-30" on="0"/>
        <pt x="297" y="-9" on="1"/>
        <pt x="269" y="-11" on="0"/>
        <pt x="253" y="-11" on="1"/>
        <pt x="164" y="-11" on="0"/>
        <pt x="72" y="83" on="0"/>
        <pt x="72" y="166" on="1"/>
        <pt x="72" y="218" on="0"/>
        <pt x="81" y="279" on="1"/>
        <pt x="126" y="597" on="1"/>
        <pt x="59" y="611" on="1"/>
        <pt x="63" y="648" on="1"/>
        <pt x="282" y="648" on="1"/>
        <pt x="278" y="611" on="1"/>
        <pt x="205" y="597" on="1"/>
        <pt x="160" y="278" on="1"/>
        <pt x="153" y="225" on="0"/>
        <pt x="153" y="182" on="1"/>
        <pt x="153" y="133" on="0"/>
        <pt x="177" y="75" on="0"/>
        <pt x="238" y="46" on="0"/>
        <pt x="294" y="46" on="1"/>
        <pt x="373" y="46" on="0"/>
        <pt x="450" y="161" on="0"/>
        <pt x="466" y="278" on="1"/>
        <pt x="510" y="596" on="1"/>
        <pt x="443" y="611" on="1"/>
        <pt x="447" y="648" on="1"/>
        <pt x="648" y="648" on="1"/>
        <pt x="644" y="611" on="1"/>
        <pt x="571" y="596" on="1"/>
        <pt x="528" y="279" on="1"/>
        <pt x="512" y="162" on="0"/>
        <pt x="435" y="27" on="0"/>
        <pt x="359" y="3" on="1"/>
        <pt x="337" y="-11" on="0"/>
        <pt x="302" y="-57" on="0"/>
        <pt x="302" y="-86" on="1"/>
        <pt x="302" y="-105" on="0"/>
        <pt x="323" y="-126" on="0"/>
        <pt x="343" y="-126" on="1"/>
        <pt x="355" y="-126" on="0"/>
        <pt x="380" y="-117" on="0"/>
        <pt x="398" y="-108" on="0"/>
        <pt x="400" y="-106" on="1"/>
        <pt x="416" y="-130" on="1"/>
      </contour>
    </TTGlyph>
    <TTGlyph name="Uring" xMin="59" yMin="-11" xMax="648" yMax="831">
      <contour>
        <pt x="287" y="771" on="0"/>
        <pt x="339" y="831" on="0"/>
        <pt x="384" y="831" on="1"/>
        <pt x="424" y="831" on="0"/>
        <pt x="466" y="796" on="0"/>
        <pt x="466" y="765" on="1"/>
        <pt x="466" y="723" on="0"/>
        <pt x="413" y="662" on="0"/>
        <pt x="369" y="662" on="1"/>
        <pt x="330" y="662" on="0"/>
        <pt x="287" y="698" on="0"/>
        <pt x="287" y="729" on="1"/>
      </contour>
      <contour>
        <pt x="338" y="721" on="0"/>
        <pt x="356" y="706" on="0"/>
        <pt x="378" y="706" on="1"/>
        <pt x="397" y="706" on="0"/>
        <pt x="414" y="732" on="0"/>
        <pt x="414" y="757" on="1"/>
        <pt x="414" y="774" on="0"/>
        <pt x="396" y="787" on="0"/>
        <pt x="375" y="787" on="1"/>
        <pt x="355" y="787" on="0"/>
        <pt x="338" y="763" on="0"/>
        <pt x="338" y="738" on="1"/>
      </contour>
      <contour>
        <pt x="59" y="611" on="1"/>
        <pt x="63" y="648" on="1"/>
        <pt x="282" y="648" on="1"/>
        <pt x="278" y="611" on="1"/>
        <pt x="205" y="597" on="1"/>
        <pt x="160" y="278" on="1"/>
        <pt x="153" y="225" on="0"/>
        <pt x="153" y="182" on="1"/>
        <pt x="153" y="133" on="0"/>
        <pt x="177" y="75" on="0"/>
        <pt x="238" y="46" on="0"/>
        <pt x="294" y="46" on="1"/>
        <pt x="373" y="46" on="0"/>
        <pt x="450" y="161" on="0"/>
        <pt x="466" y="278" on="1"/>
        <pt x="510" y="596" on="1"/>
        <pt x="443" y="611" on="1"/>
        <pt x="447" y="648" on="1"/>
        <pt x="648" y="648" on="1"/>
        <pt x="644" y="611" on="1"/>
        <pt x="571" y="596" on="1"/>
        <pt x="528" y="279" on="1"/>
        <pt x="514" y="179" on="0"/>
        <pt x="456" y="53" on="0"/>
        <pt x="344" y="-11" on="0"/>
        <pt x="253" y="-11" on="1"/>
        <pt x="164" y="-11" on="0"/>
        <pt x="72" y="83" on="0"/>
        <pt x="72" y="166" on="1"/>
        <pt x="72" y="218" on="0"/>
        <pt x="81" y="279" on="1"/>
        <pt x="126" y="597" on="1"/>
      </contour>
    </TTGlyph>
    <TTGlyph name="Utilde" xMin="59" yMin="-11" xMax="648" yMax="818">
      <component glyphName=".ttfautohint" x="59" y="0" flags="0x0"/>
      <component glyphName="U" x="0" y="0" flags="0x0"/>
      <component glyphName="tildecomb.case" x="474" y="0" flags="0x0"/>
    </TTGlyph>
    <TTGlyph name="V" xMin="24" yMin="-9" xMax="561" yMax="648">
      <contour>
        <pt x="24" y="611" on="1"/>
        <pt x="28" y="648" on="1"/>
        <pt x="238" y="648" on="1"/>
        <pt x="234" y="611" on="1"/>
        <pt x="161" y="596" on="1"/>
        <pt x="161" y="573" on="1"/>
        <pt x="242" y="123" on="1"/>
        <pt x="442" y="579" on="1"/>
        <pt x="442" y="596" on="1"/>
        <pt x="369" y="611" on="1"/>
        <pt x="374" y="648" on="1"/>
        <pt x="561" y="648" on="1"/>
        <pt x="556" y="611" on="1"/>
        <pt x="505" y="596" on="1"/>
        <pt x="232" y="-9" on="1"/>
        <pt x="190" y="-9" on="1"/>
        <pt x="77" y="599" on="1"/>
      </contour>
    </TTGlyph>
    <TTGlyph name="W" xMin="11" yMin="-8" xMax="811" yMax="648">
      <contour>
        <pt x="11" y="611" on="1"/>
        <pt x="15" y="648" on="1"/>
        <pt x="226" y="648" on="1"/>
        <pt x="222" y="611" on="1"/>
        <pt x="149" y="596" on="1"/>
        <pt x="149" y="573" on="1"/>
        <pt x="198" y="111" on="1"/>
        <pt x="376" y="515" on="1"/>
        <pt x="361" y="599" on="1"/>
        <pt x="307" y="611" on="1"/>
        <pt x="311" y="648" on="1"/>
        <pt x="522" y="648" on="1"/>
        <pt x="518" y="611" on="1"/>
        <pt x="445" y="596" on="1"/>
        <pt x="445" y="573" on="1"/>
        <pt x="513" y="111" on="1"/>
        <pt x="692" y="579" on="1"/>
        <pt x="692" y="596" on="1"/>
        <pt x="619" y="611" on="1"/>
        <pt x="624" y="648" on="1"/>
        <pt x="811" y="648" on="1"/>
        <pt x="806" y="611" on="1"/>
        <pt x="755" y="596" on="1"/>
        <pt x="505" y="-8" on="1"/>
        <pt x="461" y="-8" on="1"/>
        <pt x="392" y="430" on="1"/>
        <pt x="189" y="-8" on="1"/>
        <pt x="145" y="-8" on="1"/>
        <pt x="65" y="599" on="1"/>
      </contour>
    </TTGlyph>
    <TTGlyph name="Wacute" xMin="11" yMin="-8" xMax="811" yMax="836">
      <component glyphName=".ttfautohint" x="11" y="0" flags="0x0"/>
      <component glyphName="W" x="0" y="0" flags="0x0"/>
      <component glyphName="acutecomb.case" x="508" y="0" flags="0x0"/>
    </TTGlyph>
    <TTGlyph name="Wcircumflex" xMin="11" yMin="-8" xMax="811" yMax="834">
      <component glyphName=".ttfautohint" x="11" y="0" flags="0x0"/>
      <component glyphName="W" x="0" y="0" flags="0x0"/>
      <component glyphName="uni0302.case" x="511" y="0" flags="0x0"/>
    </TTGlyph>
    <TTGlyph name="Wdieresis" xMin="11" yMin="-8" xMax="811" yMax="819">
      <component glyphName=".ttfautohint" x="11" y="0" flags="0x0"/>
      <component glyphName="W" x="0" y="0" flags="0x0"/>
      <component glyphName="uni0308.case" x="529" y="0" flags="0x0"/>
    </TTGlyph>
    <TTGlyph name="Wgrave" xMin="11" yMin="-8" xMax="811" yMax="836">
      <component glyphName=".ttfautohint" x="11" y="0" flags="0x0"/>
      <component glyphName="W" x="0" y="0" flags="0x0"/>
      <component glyphName="gravecomb.case" x="438" y="0" flags="0x0"/>
    </TTGlyph>
    <TTGlyph name="X" xMin="-51" yMin="0" xMax="552" yMax="648">
      <contour>
        <pt x="10" y="51" on="1"/>
        <pt x="222" y="325" on="1"/>
        <pt x="99" y="598" on="1"/>
        <pt x="45" y="611" on="1"/>
        <pt x="49" y="648" on="1"/>
        <pt x="275" y="648" on="1"/>
        <pt x="271" y="611" on="1"/>
        <pt x="198" y="596" on="1"/>
        <pt x="198" y="580" on="1"/>
        <pt x="280" y="395" on="1"/>
        <pt x="427" y="585" on="1"/>
        <pt x="427" y="597" on="1"/>
        <pt x="360" y="611" on="1"/>
        <pt x="365" y="648" on="1"/>
        <pt x="552" y="648" on="1"/>
        <pt x="547" y="611" on="1"/>
        <pt x="499" y="597" on="1"/>
        <pt x="302" y="345" on="1"/>
        <pt x="434" y="49" on="1"/>
        <pt x="492" y="37" on="1"/>
        <pt x="489" y="0" on="1"/>
        <pt x="269" y="0" on="1"/>
        <pt x="272" y="37" on="1"/>
        <pt x="336" y="52" on="1"/>
        <pt x="336" y="75" on="1"/>
        <pt x="245" y="274" on="1"/>
        <pt x="82" y="63" on="1"/>
        <pt x="81" y="51" on="1"/>
        <pt x="148" y="37" on="1"/>
        <pt x="144" y="0" on="1"/>
        <pt x="-51" y="0" on="1"/>
        <pt x="-46" y="37" on="1"/>
      </contour>
    </TTGlyph>
    <TTGlyph name="Y" xMin="25" yMin="0" xMax="535" yMax="648">
      <contour>
        <pt x="181" y="51" on="1"/>
        <pt x="207" y="237" on="1"/>
        <pt x="79" y="599" on="1"/>
        <pt x="25" y="611" on="1"/>
        <pt x="29" y="648" on="1"/>
        <pt x="242" y="648" on="1"/>
        <pt x="238" y="611" on="1"/>
        <pt x="165" y="596" on="1"/>
        <pt x="165" y="573" on="1"/>
        <pt x="262" y="293" on="1"/>
        <pt x="273" y="293" on="1"/>
        <pt x="416" y="579" on="1"/>
        <pt x="416" y="596" on="1"/>
        <pt x="343" y="611" on="1"/>
        <pt x="348" y="648" on="1"/>
        <pt x="535" y="648" on="1"/>
        <pt x="530" y="611" on="1"/>
        <pt x="479" y="596" on="1"/>
        <pt x="284" y="232" on="1"/>
        <pt x="259" y="51" on="1"/>
        <pt x="327" y="37" on="1"/>
        <pt x="324" y="0" on="1"/>
        <pt x="105" y="0" on="1"/>
        <pt x="108" y="37" on="1"/>
      </contour>
    </TTGlyph>
    <TTGlyph name="Y.loclGUA" xMin="45" yMin="-14" xMax="655" yMax="648">
      <contour>
        <pt x="655" y="648" on="1"/>
        <pt x="648" y="604" on="1"/>
        <pt x="573" y="589" on="1"/>
        <pt x="525" y="249" on="1"/>
        <pt x="505" y="109" on="0"/>
        <pt x="370" y="-14" on="0"/>
        <pt x="254" y="-14" on="1"/>
        <pt x="145" y="-14" on="0"/>
        <pt x="46" y="44" on="1"/>
        <pt x="65" y="187" on="1"/>
        <pt x="112" y="187" on="1"/>
        <pt x="125" y="76" on="1"/>
        <pt x="190" y="37" on="0"/>
        <pt x="256" y="37" on="1"/>
        <pt x="337" y="37" on="0"/>
        <pt x="423" y="147" on="0"/>
        <pt x="436" y="236" on="1"/>
        <pt x="397" y="212" on="0"/>
        <pt x="319" y="189" on="0"/>
        <pt x="274" y="189" on="1"/>
        <pt x="179" y="189" on="0"/>
        <pt x="99" y="281" on="0"/>
        <pt x="99" y="369" on="1"/>
        <pt x="99" y="405" on="0"/>
        <pt x="105" y="447" on="1"/>
        <pt x="125" y="589" on="1"/>
        <pt x="45" y="604" on="1"/>
        <pt x="52" y="648" on="1"/>
        <pt x="303" y="648" on="1"/>
        <pt x="296" y="604" on="1"/>
        <pt x="212" y="589" on="1"/>
        <pt x="195" y="463" on="1"/>
        <pt x="188" y="412" on="0"/>
        <pt x="188" y="381" on="1"/>
        <pt x="188" y="318" on="0"/>
        <pt x="239" y="252" on="0"/>
        <pt x="300" y="252" on="1"/>
        <pt x="375" y="252" on="0"/>
        <pt x="447" y="309" on="1"/>
        <pt x="486" y="587" on="1"/>
        <pt x="393" y="604" on="1"/>
        <pt x="400" y="648" on="1"/>
      </contour>
    </TTGlyph>
    <TTGlyph name="Yacute" xMin="20" yMin="0" xMax="530" yMax="846">
      <contour>
        <pt x="386" y="846" on="1"/>
        <pt x="401" y="839" on="0"/>
        <pt x="420" y="811" on="0"/>
        <pt x="420" y="796" on="1"/>
        <pt x="420" y="778" on="0"/>
        <pt x="396" y="755" on="0"/>
        <pt x="370" y="745" on="1"/>
        <pt x="240" y="691" on="1"/>
        <pt x="218" y="726" on="1"/>
      </contour>
      <contour>
        <pt x="176" y="51" on="1"/>
        <pt x="202" y="237" on="1"/>
        <pt x="74" y="599" on="1"/>
        <pt x="20" y="611" on="1"/>
        <pt x="24" y="648" on="1"/>
        <pt x="235" y="648" on="1"/>
        <pt x="231" y="611" on="1"/>
        <pt x="158" y="596" on="1"/>
        <pt x="158" y="573" on="1"/>
        <pt x="252" y="293" on="1"/>
        <pt x="263" y="293" on="1"/>
        <pt x="411" y="579" on="1"/>
        <pt x="411" y="596" on="1"/>
        <pt x="338" y="611" on="1"/>
        <pt x="343" y="648" on="1"/>
        <pt x="530" y="648" on="1"/>
        <pt x="525" y="611" on="1"/>
        <pt x="474" y="596" on="1"/>
        <pt x="281" y="242" on="1"/>
        <pt x="254" y="51" on="1"/>
        <pt x="322" y="37" on="1"/>
        <pt x="319" y="0" on="1"/>
        <pt x="100" y="0" on="1"/>
        <pt x="103" y="37" on="1"/>
      </contour>
    </TTGlyph>
    <TTGlyph name="Yacute.loclGUA" xMin="45" yMin="-14" xMax="655" yMax="836">
      <component glyphName=".ttfautohint" x="45" y="0" flags="0x0"/>
      <component glyphName="Y.loclGUA" x="0" y="0" flags="0x0"/>
      <component glyphName="acutecomb.case" x="447" y="0" flags="0x0"/>
    </TTGlyph>
    <TTGlyph name="Ycircumflex" xMin="25" yMin="0" xMax="535" yMax="834">
      <component glyphName=".ttfautohint" x="25" y="0" flags="0x0"/>
      <component glyphName="Y" x="0" y="0" flags="0x0"/>
      <component glyphName="uni0302.case" x="380" y="0" flags="0x0"/>
    </TTGlyph>
    <TTGlyph name="Ycircumflex.loclGUA" xMin="45" yMin="-14" xMax="655" yMax="834">
      <component glyphName=".ttfautohint" x="45" y="0" flags="0x0"/>
      <component glyphName="Y.loclGUA" x="0" y="0" flags="0x0"/>
      <component glyphName="uni0302.case" x="450" y="0" flags="0x0"/>
    </TTGlyph>
    <TTGlyph name="Ydieresis" xMin="20" yMin="0" xMax="530" yMax="819">
      <contour>
        <pt x="175" y="703" on="0"/>
        <pt x="147" y="734" on="0"/>
        <pt x="147" y="759" on="1"/>
        <pt x="147" y="784" on="0"/>
        <pt x="178" y="819" on="0"/>
        <pt x="202" y="819" on="1"/>
        <pt x="225" y="819" on="0"/>
        <pt x="253" y="790" on="0"/>
        <pt x="253" y="765" on="1"/>
        <pt x="253" y="739" on="0"/>
        <pt x="223" y="703" on="0"/>
        <pt x="198" y="703" on="1"/>
      </contour>
      <contour>
        <pt x="386" y="703" on="0"/>
        <pt x="358" y="734" on="0"/>
        <pt x="358" y="759" on="1"/>
        <pt x="358" y="784" on="0"/>
        <pt x="389" y="819" on="0"/>
        <pt x="413" y="819" on="1"/>
        <pt x="436" y="819" on="0"/>
        <pt x="464" y="790" on="0"/>
        <pt x="464" y="765" on="1"/>
        <pt x="464" y="739" on="0"/>
        <pt x="434" y="703" on="0"/>
        <pt x="409" y="703" on="1"/>
      </contour>
      <contour>
        <pt x="176" y="51" on="1"/>
        <pt x="202" y="237" on="1"/>
        <pt x="74" y="599" on="1"/>
        <pt x="20" y="611" on="1"/>
        <pt x="24" y="648" on="1"/>
        <pt x="235" y="648" on="1"/>
        <pt x="231" y="611" on="1"/>
        <pt x="158" y="596" on="1"/>
        <pt x="158" y="573" on="1"/>
        <pt x="252" y="293" on="1"/>
        <pt x="263" y="293" on="1"/>
        <pt x="411" y="579" on="1"/>
        <pt x="411" y="596" on="1"/>
        <pt x="338" y="611" on="1"/>
        <pt x="343" y="648" on="1"/>
        <pt x="530" y="648" on="1"/>
        <pt x="525" y="611" on="1"/>
        <pt x="474" y="596" on="1"/>
        <pt x="281" y="242" on="1"/>
        <pt x="254" y="51" on="1"/>
        <pt x="322" y="37" on="1"/>
        <pt x="319" y="0" on="1"/>
        <pt x="100" y="0" on="1"/>
        <pt x="103" y="37" on="1"/>
      </contour>
    </TTGlyph>
    <TTGlyph name="Ydieresis.loclGUA" xMin="45" yMin="-14" xMax="655" yMax="819">
      <component glyphName=".ttfautohint" x="45" y="0" flags="0x0"/>
      <component glyphName="Y.loclGUA" x="0" y="0" flags="0x0"/>
      <component glyphName="uni0308.case" x="468" y="0" flags="0x0"/>
    </TTGlyph>
    <TTGlyph name="Ygrave" xMin="25" yMin="0" xMax="535" yMax="836">
      <component glyphName=".ttfautohint" x="25" y="0" flags="0x0"/>
      <component glyphName="Y" x="0" y="0" flags="0x0"/>
      <component glyphName="gravecomb.case" x="307" y="0" flags="0x0"/>
    </TTGlyph>
    <TTGlyph name="Ygrave.loclGUA" xMin="45" yMin="-14" xMax="655" yMax="836">
      <component glyphName=".ttfautohint" x="45" y="0" flags="0x0"/>
      <component glyphName="Y.loclGUA" x="0" y="0" flags="0x0"/>
      <component glyphName="gravecomb.case" x="377" y="0" flags="0x0"/>
    </TTGlyph>
    <TTGlyph name="Z" xMin="-9" yMin="0" xMax="498" yMax="648">
      <contour>
        <pt x="387" y="578" on="1"/>
        <pt x="375" y="600" on="1"/>
        <pt x="147" y="600" on="1"/>
        <pt x="106" y="496" on="1"/>
        <pt x="62" y="496" on="1"/>
        <pt x="84" y="648" on="1"/>
        <pt x="472" y="648" on="1"/>
        <pt x="498" y="604" on="1"/>
        <pt x="95" y="57" on="1"/>
        <pt x="100" y="45" on="1"/>
        <pt x="358" y="45" on="1"/>
        <pt x="399" y="149" on="1"/>
        <pt x="443" y="149" on="1"/>
        <pt x="423" y="0" on="1"/>
        <pt x="8" y="0" on="1"/>
        <pt x="-9" y="44" on="1"/>
      </contour>
    </TTGlyph>
    <TTGlyph name="Zacute" xMin="-13" yMin="0" xMax="494" yMax="836">
      <contour>
        <pt x="382" y="836" on="1"/>
        <pt x="397" y="829" on="0"/>
        <pt x="416" y="801" on="0"/>
        <pt x="416" y="786" on="1"/>
        <pt x="416" y="768" on="0"/>
        <pt x="392" y="745" on="0"/>
        <pt x="366" y="735" on="1"/>
        <pt x="236" y="681" on="1"/>
        <pt x="214" y="716" on="1"/>
      </contour>
      <contour>
        <pt x="383" y="578" on="1"/>
        <pt x="371" y="600" on="1"/>
        <pt x="143" y="600" on="1"/>
        <pt x="102" y="496" on="1"/>
        <pt x="58" y="496" on="1"/>
        <pt x="80" y="648" on="1"/>
        <pt x="468" y="648" on="1"/>
        <pt x="494" y="604" on="1"/>
        <pt x="91" y="57" on="1"/>
        <pt x="96" y="45" on="1"/>
        <pt x="354" y="45" on="1"/>
        <pt x="395" y="149" on="1"/>
        <pt x="439" y="149" on="1"/>
        <pt x="419" y="0" on="1"/>
        <pt x="4" y="0" on="1"/>
        <pt x="-13" y="44" on="1"/>
      </contour>
    </TTGlyph>
    <TTGlyph name="Zacute.loclPLK" xMin="-9" yMin="0" xMax="498" yMax="853">
      <contour>
        <pt x="390" y="853" on="1"/>
        <pt x="411" y="851" on="0"/>
        <pt x="441" y="821" on="0"/>
        <pt x="441" y="803" on="1"/>
        <pt x="441" y="781" on="0"/>
        <pt x="408" y="753" on="1"/>
        <pt x="315" y="668" on="1"/>
        <pt x="281" y="698" on="1"/>
      </contour>
      <contour>
        <pt x="387" y="578" on="1"/>
        <pt x="375" y="600" on="1"/>
        <pt x="147" y="600" on="1"/>
        <pt x="106" y="496" on="1"/>
        <pt x="62" y="496" on="1"/>
        <pt x="84" y="648" on="1"/>
        <pt x="472" y="648" on="1"/>
        <pt x="498" y="604" on="1"/>
        <pt x="95" y="57" on="1"/>
        <pt x="100" y="45" on="1"/>
        <pt x="358" y="45" on="1"/>
        <pt x="399" y="149" on="1"/>
        <pt x="443" y="149" on="1"/>
        <pt x="423" y="0" on="1"/>
        <pt x="8" y="0" on="1"/>
        <pt x="-9" y="44" on="1"/>
      </contour>
    </TTGlyph>
    <TTGlyph name="Zcaron" xMin="-13" yMin="0" xMax="494" yMax="838">
      <contour>
        <pt x="217" y="835" on="1"/>
        <pt x="315" y="766" on="1"/>
        <pt x="417" y="838" on="1"/>
        <pt x="442" y="805" on="1"/>
        <pt x="377" y="744" on="1"/>
        <pt x="319" y="689" on="0"/>
        <pt x="301" y="689" on="1"/>
        <pt x="289" y="689" on="0"/>
        <pt x="240" y="738" on="1"/>
        <pt x="182" y="797" on="1"/>
      </contour>
      <contour>
        <pt x="383" y="578" on="1"/>
        <pt x="371" y="600" on="1"/>
        <pt x="143" y="600" on="1"/>
        <pt x="102" y="496" on="1"/>
        <pt x="58" y="496" on="1"/>
        <pt x="80" y="648" on="1"/>
        <pt x="468" y="648" on="1"/>
        <pt x="494" y="604" on="1"/>
        <pt x="91" y="57" on="1"/>
        <pt x="96" y="45" on="1"/>
        <pt x="354" y="45" on="1"/>
        <pt x="395" y="149" on="1"/>
        <pt x="439" y="149" on="1"/>
        <pt x="419" y="0" on="1"/>
        <pt x="4" y="0" on="1"/>
        <pt x="-13" y="44" on="1"/>
      </contour>
    </TTGlyph>
    <TTGlyph name="Zdotaccent" xMin="-13" yMin="0" xMax="494" yMax="817">
      <contour>
        <pt x="259" y="699" on="0"/>
        <pt x="231" y="729" on="0"/>
        <pt x="231" y="751" on="1"/>
        <pt x="231" y="777" on="0"/>
        <pt x="262" y="817" on="0"/>
        <pt x="291" y="817" on="1"/>
        <pt x="314" y="817" on="0"/>
        <pt x="343" y="787" on="0"/>
        <pt x="343" y="763" on="1"/>
        <pt x="343" y="737" on="0"/>
        <pt x="311" y="699" on="0"/>
        <pt x="282" y="699" on="1"/>
      </contour>
      <contour>
        <pt x="383" y="578" on="1"/>
        <pt x="371" y="600" on="1"/>
        <pt x="143" y="600" on="1"/>
        <pt x="102" y="496" on="1"/>
        <pt x="58" y="496" on="1"/>
        <pt x="80" y="648" on="1"/>
        <pt x="468" y="648" on="1"/>
        <pt x="494" y="604" on="1"/>
        <pt x="91" y="57" on="1"/>
        <pt x="96" y="45" on="1"/>
        <pt x="354" y="45" on="1"/>
        <pt x="395" y="149" on="1"/>
        <pt x="439" y="149" on="1"/>
        <pt x="419" y="0" on="1"/>
        <pt x="4" y="0" on="1"/>
        <pt x="-13" y="44" on="1"/>
      </contour>
    </TTGlyph>
    <TTGlyph name="a" xMin="40" yMin="-9" xMax="444" yMax="517">
      <contour>
        <pt x="281" y="59" on="0"/>
        <pt x="200" y="-9" on="0"/>
        <pt x="158" y="-9" on="1"/>
        <pt x="40" y="-9" on="0"/>
        <pt x="40" y="150" on="1"/>
        <pt x="40" y="209" on="0"/>
        <pt x="89" y="382" on="0"/>
        <pt x="191" y="513" on="0"/>
        <pt x="265" y="513" on="1"/>
        <pt x="297" y="513" on="0"/>
        <pt x="360" y="492" on="0"/>
        <pt x="379" y="482" on="1"/>
        <pt x="404" y="517" on="1"/>
        <pt x="442" y="517" on="1"/>
        <pt x="371" y="66" on="1"/>
        <pt x="444" y="66" on="1"/>
        <pt x="444" y="27" on="1"/>
        <pt x="440" y="25" on="0"/>
        <pt x="412" y="10" on="0"/>
        <pt x="369" y="-4" on="0"/>
        <pt x="348" y="-4" on="1"/>
        <pt x="315" y="-4" on="0"/>
        <pt x="292" y="22" on="0"/>
        <pt x="292" y="46" on="1"/>
        <pt x="292" y="67" on="0"/>
        <pt x="310" y="104" on="1"/>
        <pt x="307" y="106" on="1"/>
      </contour>
      <contour>
        <pt x="289" y="453" on="0"/>
        <pt x="227" y="453" on="1"/>
        <pt x="203" y="453" on="0"/>
        <pt x="194" y="441" on="1"/>
        <pt x="163" y="397" on="0"/>
        <pt x="123" y="250" on="0"/>
        <pt x="123" y="171" on="1"/>
        <pt x="123" y="108" on="0"/>
        <pt x="147" y="50" on="0"/>
        <pt x="182" y="50" on="1"/>
        <pt x="213" y="50" on="0"/>
        <pt x="281" y="113" on="0"/>
        <pt x="309" y="154" on="1"/>
        <pt x="353" y="410" on="1"/>
      </contour>
    </TTGlyph>
    <TTGlyph name="aacute" xMin="40" yMin="-9" xMax="444" yMax="733">
      <contour>
        <pt x="376" y="733" on="1"/>
        <pt x="418" y="719" on="0"/>
        <pt x="418" y="681" on="1"/>
        <pt x="418" y="657" on="0"/>
        <pt x="364" y="624" on="1"/>
        <pt x="263" y="559" on="1"/>
        <pt x="237" y="591" on="1"/>
      </contour>
      <contour>
        <pt x="281" y="59" on="0"/>
        <pt x="200" y="-9" on="0"/>
        <pt x="158" y="-9" on="1"/>
        <pt x="40" y="-9" on="0"/>
        <pt x="40" y="150" on="1"/>
        <pt x="40" y="209" on="0"/>
        <pt x="89" y="382" on="0"/>
        <pt x="191" y="513" on="0"/>
        <pt x="265" y="513" on="1"/>
        <pt x="297" y="513" on="0"/>
        <pt x="362" y="491" on="0"/>
        <pt x="379" y="482" on="1"/>
        <pt x="404" y="517" on="1"/>
        <pt x="442" y="517" on="1"/>
        <pt x="371" y="66" on="1"/>
        <pt x="444" y="66" on="1"/>
        <pt x="444" y="27" on="1"/>
        <pt x="440" y="25" on="0"/>
        <pt x="412" y="10" on="0"/>
        <pt x="369" y="-4" on="0"/>
        <pt x="348" y="-4" on="1"/>
        <pt x="315" y="-4" on="0"/>
        <pt x="292" y="22" on="0"/>
        <pt x="292" y="46" on="1"/>
        <pt x="292" y="67" on="0"/>
        <pt x="310" y="104" on="1"/>
        <pt x="307" y="106" on="1"/>
      </contour>
      <contour>
        <pt x="289" y="453" on="0"/>
        <pt x="227" y="453" on="1"/>
        <pt x="203" y="453" on="0"/>
        <pt x="194" y="441" on="1"/>
        <pt x="163" y="397" on="0"/>
        <pt x="123" y="250" on="0"/>
        <pt x="123" y="171" on="1"/>
        <pt x="123" y="108" on="0"/>
        <pt x="147" y="50" on="0"/>
        <pt x="182" y="50" on="1"/>
        <pt x="213" y="50" on="0"/>
        <pt x="281" y="113" on="0"/>
        <pt x="309" y="154" on="1"/>
        <pt x="353" y="410" on="1"/>
      </contour>
    </TTGlyph>
    <TTGlyph name="abreve" xMin="40" yMin="-9" xMax="447" yMax="715">
      <contour>
        <pt x="447" y="690" on="0"/>
        <pt x="413" y="625" on="0"/>
        <pt x="342" y="568" on="0"/>
        <pt x="287" y="568" on="1"/>
        <pt x="247" y="568" on="0"/>
        <pt x="193" y="601" on="0"/>
        <pt x="166" y="649" on="0"/>
        <pt x="166" y="671" on="1"/>
        <pt x="166" y="693" on="0"/>
        <pt x="207" y="714" on="0"/>
        <pt x="229" y="714" on="1"/>
        <pt x="232" y="676" on="0"/>
        <pt x="262" y="628" on="0"/>
        <pt x="305" y="628" on="1"/>
        <pt x="338" y="628" on="0"/>
        <pt x="392" y="667" on="0"/>
        <pt x="426" y="712" on="0"/>
        <pt x="426" y="715" on="1"/>
        <pt x="447" y="697" on="1"/>
      </contour>
      <contour>
        <pt x="281" y="59" on="0"/>
        <pt x="200" y="-9" on="0"/>
        <pt x="158" y="-9" on="1"/>
        <pt x="40" y="-9" on="0"/>
        <pt x="40" y="150" on="1"/>
        <pt x="40" y="209" on="0"/>
        <pt x="89" y="382" on="0"/>
        <pt x="191" y="513" on="0"/>
        <pt x="265" y="513" on="1"/>
        <pt x="297" y="513" on="0"/>
        <pt x="362" y="491" on="0"/>
        <pt x="379" y="482" on="1"/>
        <pt x="404" y="517" on="1"/>
        <pt x="442" y="517" on="1"/>
        <pt x="371" y="66" on="1"/>
        <pt x="444" y="66" on="1"/>
        <pt x="444" y="27" on="1"/>
        <pt x="440" y="25" on="0"/>
        <pt x="412" y="10" on="0"/>
        <pt x="369" y="-4" on="0"/>
        <pt x="348" y="-4" on="1"/>
        <pt x="315" y="-4" on="0"/>
        <pt x="292" y="22" on="0"/>
        <pt x="292" y="46" on="1"/>
        <pt x="292" y="67" on="0"/>
        <pt x="310" y="104" on="1"/>
        <pt x="307" y="106" on="1"/>
      </contour>
      <contour>
        <pt x="289" y="453" on="0"/>
        <pt x="227" y="453" on="1"/>
        <pt x="203" y="453" on="0"/>
        <pt x="194" y="441" on="1"/>
        <pt x="163" y="397" on="0"/>
        <pt x="123" y="250" on="0"/>
        <pt x="123" y="171" on="1"/>
        <pt x="123" y="108" on="0"/>
        <pt x="147" y="50" on="0"/>
        <pt x="182" y="50" on="1"/>
        <pt x="213" y="50" on="0"/>
        <pt x="281" y="113" on="0"/>
        <pt x="309" y="154" on="1"/>
        <pt x="353" y="410" on="1"/>
      </contour>
    </TTGlyph>
    <TTGlyph name="acircumflex" xMin="40" yMin="-9" xMax="444" yMax="731">
      <contour>
        <pt x="271" y="695" on="0"/>
        <pt x="307" y="731" on="0"/>
        <pt x="316" y="731" on="1"/>
        <pt x="321" y="731" on="0"/>
        <pt x="334" y="719" on="0"/>
        <pt x="347" y="704" on="0"/>
        <pt x="352" y="698" on="1"/>
        <pt x="432" y="597" on="1"/>
        <pt x="402" y="562" on="1"/>
        <pt x="303" y="641" on="1"/>
        <pt x="192" y="565" on="1"/>
        <pt x="163" y="593" on="1"/>
        <pt x="266" y="690" on="1"/>
      </contour>
      <contour>
        <pt x="281" y="59" on="0"/>
        <pt x="200" y="-9" on="0"/>
        <pt x="158" y="-9" on="1"/>
        <pt x="40" y="-9" on="0"/>
        <pt x="40" y="150" on="1"/>
        <pt x="40" y="209" on="0"/>
        <pt x="89" y="382" on="0"/>
        <pt x="191" y="513" on="0"/>
        <pt x="265" y="513" on="1"/>
        <pt x="297" y="513" on="0"/>
        <pt x="362" y="491" on="0"/>
        <pt x="379" y="482" on="1"/>
        <pt x="404" y="517" on="1"/>
        <pt x="442" y="517" on="1"/>
        <pt x="371" y="66" on="1"/>
        <pt x="444" y="66" on="1"/>
        <pt x="444" y="27" on="1"/>
        <pt x="440" y="25" on="0"/>
        <pt x="412" y="10" on="0"/>
        <pt x="369" y="-4" on="0"/>
        <pt x="348" y="-4" on="1"/>
        <pt x="315" y="-4" on="0"/>
        <pt x="292" y="22" on="0"/>
        <pt x="292" y="46" on="1"/>
        <pt x="292" y="67" on="0"/>
        <pt x="310" y="104" on="1"/>
        <pt x="307" y="106" on="1"/>
      </contour>
      <contour>
        <pt x="289" y="453" on="0"/>
        <pt x="227" y="453" on="1"/>
        <pt x="203" y="453" on="0"/>
        <pt x="194" y="441" on="1"/>
        <pt x="163" y="397" on="0"/>
        <pt x="123" y="250" on="0"/>
        <pt x="123" y="171" on="1"/>
        <pt x="123" y="108" on="0"/>
        <pt x="147" y="50" on="0"/>
        <pt x="182" y="50" on="1"/>
        <pt x="213" y="50" on="0"/>
        <pt x="281" y="113" on="0"/>
        <pt x="309" y="154" on="1"/>
        <pt x="353" y="410" on="1"/>
      </contour>
    </TTGlyph>
    <TTGlyph name="acute" xMin="64" yMin="559" xMax="245" yMax="733">
      <contour>
        <pt x="203" y="733" on="1"/>
        <pt x="245" y="719" on="0"/>
        <pt x="245" y="681" on="1"/>
        <pt x="245" y="657" on="0"/>
        <pt x="191" y="624" on="1"/>
        <pt x="90" y="559" on="1"/>
        <pt x="64" y="591" on="1"/>
      </contour>
    </TTGlyph>
    <TTGlyph name="acutecomb" xMin="-138" yMin="559" xMax="43" yMax="733">
      <contour>
        <pt x="1" y="733" on="1"/>
        <pt x="43" y="719" on="0"/>
        <pt x="43" y="681" on="1"/>
        <pt x="43" y="657" on="0"/>
        <pt x="-11" y="624" on="1"/>
        <pt x="-112" y="559" on="1"/>
        <pt x="-138" y="591" on="1"/>
      </contour>
    </TTGlyph>
    <TTGlyph name="acutecomb.case" xMin="-127" yMin="681" xMax="75" yMax="836">
      <contour>
        <pt x="41" y="836" on="1"/>
        <pt x="56" y="829" on="0"/>
        <pt x="75" y="801" on="0"/>
        <pt x="75" y="786" on="1"/>
        <pt x="75" y="768" on="0"/>
        <pt x="51" y="745" on="0"/>
        <pt x="25" y="735" on="1"/>
        <pt x="-105" y="681" on="1"/>
        <pt x="-127" y="716" on="1"/>
      </contour>
    </TTGlyph>
    <TTGlyph name="adieresis" xMin="40" yMin="-9" xMax="444" yMax="706">
      <contour>
        <pt x="148" y="663" on="0"/>
        <pt x="181" y="706" on="0"/>
        <pt x="210" y="706" on="1"/>
        <pt x="231" y="706" on="0"/>
        <pt x="256" y="681" on="0"/>
        <pt x="256" y="659" on="1"/>
        <pt x="256" y="635" on="0"/>
        <pt x="220" y="594" on="0"/>
        <pt x="192" y="594" on="1"/>
        <pt x="172" y="594" on="0"/>
        <pt x="148" y="619" on="0"/>
        <pt x="148" y="637" on="1"/>
      </contour>
      <contour>
        <pt x="334" y="663" on="0"/>
        <pt x="368" y="706" on="0"/>
        <pt x="397" y="706" on="1"/>
        <pt x="417" y="706" on="0"/>
        <pt x="442" y="681" on="0"/>
        <pt x="442" y="659" on="1"/>
        <pt x="442" y="634" on="0"/>
        <pt x="407" y="594" on="0"/>
        <pt x="379" y="594" on="1"/>
        <pt x="359" y="594" on="0"/>
        <pt x="334" y="619" on="0"/>
        <pt x="334" y="637" on="1"/>
      </contour>
      <contour>
        <pt x="281" y="59" on="0"/>
        <pt x="200" y="-9" on="0"/>
        <pt x="158" y="-9" on="1"/>
        <pt x="40" y="-9" on="0"/>
        <pt x="40" y="150" on="1"/>
        <pt x="40" y="209" on="0"/>
        <pt x="89" y="382" on="0"/>
        <pt x="191" y="513" on="0"/>
        <pt x="265" y="513" on="1"/>
        <pt x="297" y="513" on="0"/>
        <pt x="362" y="491" on="0"/>
        <pt x="379" y="482" on="1"/>
        <pt x="404" y="517" on="1"/>
        <pt x="442" y="517" on="1"/>
        <pt x="371" y="66" on="1"/>
        <pt x="444" y="66" on="1"/>
        <pt x="444" y="27" on="1"/>
        <pt x="440" y="25" on="0"/>
        <pt x="412" y="10" on="0"/>
        <pt x="369" y="-4" on="0"/>
        <pt x="348" y="-4" on="1"/>
        <pt x="315" y="-4" on="0"/>
        <pt x="292" y="22" on="0"/>
        <pt x="292" y="46" on="1"/>
        <pt x="292" y="67" on="0"/>
        <pt x="310" y="104" on="1"/>
        <pt x="307" y="106" on="1"/>
      </contour>
      <contour>
        <pt x="289" y="453" on="0"/>
        <pt x="227" y="453" on="1"/>
        <pt x="203" y="453" on="0"/>
        <pt x="194" y="441" on="1"/>
        <pt x="163" y="397" on="0"/>
        <pt x="123" y="250" on="0"/>
        <pt x="123" y="171" on="1"/>
        <pt x="123" y="108" on="0"/>
        <pt x="147" y="50" on="0"/>
        <pt x="182" y="50" on="1"/>
        <pt x="213" y="50" on="0"/>
        <pt x="281" y="113" on="0"/>
        <pt x="309" y="154" on="1"/>
        <pt x="353" y="410" on="1"/>
      </contour>
    </TTGlyph>
    <TTGlyph name="ae" xMin="38" yMin="-9" xMax="631" yMax="513">
      <contour>
        <pt x="596" y="63" on="0"/>
        <pt x="547" y="24" on="0"/>
        <pt x="476" y="-9" on="0"/>
        <pt x="435" y="-9" on="1"/>
        <pt x="371" y="-9" on="0"/>
        <pt x="306" y="34" on="0"/>
        <pt x="297" y="89" on="1"/>
        <pt x="273" y="45" on="0"/>
        <pt x="198" y="-9" on="0"/>
        <pt x="156" y="-9" on="1"/>
        <pt x="38" y="-9" on="0"/>
        <pt x="38" y="150" on="1"/>
        <pt x="38" y="209" on="0"/>
        <pt x="87" y="382" on="0"/>
        <pt x="189" y="513" on="0"/>
        <pt x="263" y="513" on="1"/>
        <pt x="298" y="513" on="0"/>
        <pt x="378" y="480" on="0"/>
        <pt x="407" y="463" on="1"/>
        <pt x="459" y="513" on="0"/>
        <pt x="525" y="513" on="1"/>
        <pt x="577" y="513" on="0"/>
        <pt x="631" y="453" on="0"/>
        <pt x="631" y="416" on="1"/>
        <pt x="631" y="348" on="0"/>
        <pt x="548" y="259" on="0"/>
        <pt x="431" y="217" on="0"/>
        <pt x="375" y="214" on="1"/>
        <pt x="375" y="158" on="0"/>
        <pt x="385" y="93" on="0"/>
        <pt x="424" y="51" on="0"/>
        <pt x="466" y="51" on="1"/>
        <pt x="488" y="51" on="0"/>
        <pt x="538" y="70" on="0"/>
        <pt x="572" y="91" on="0"/>
        <pt x="577" y="94" on="1"/>
        <pt x="596" y="65" on="1"/>
      </contour>
      <contour>
        <pt x="297" y="231" on="0"/>
        <pt x="330" y="353" on="0"/>
        <pt x="358" y="401" on="1"/>
        <pt x="281" y="453" on="0"/>
        <pt x="225" y="453" on="1"/>
        <pt x="201" y="453" on="0"/>
        <pt x="192" y="441" on="1"/>
        <pt x="161" y="397" on="0"/>
        <pt x="121" y="250" on="0"/>
        <pt x="121" y="171" on="1"/>
        <pt x="121" y="108" on="0"/>
        <pt x="145" y="50" on="0"/>
        <pt x="180" y="50" on="1"/>
        <pt x="203" y="50" on="0"/>
        <pt x="254" y="86" on="0"/>
        <pt x="291" y="144" on="0"/>
        <pt x="294" y="173" on="1"/>
      </contour>
      <contour>
        <pt x="464" y="265" on="0"/>
        <pt x="555" y="342" on="0"/>
        <pt x="555" y="395" on="1"/>
        <pt x="555" y="453" on="0"/>
        <pt x="493" y="453" on="1"/>
        <pt x="472" y="453" on="0"/>
        <pt x="440" y="446" on="0"/>
        <pt x="436" y="439" on="1"/>
        <pt x="391" y="370" on="0"/>
        <pt x="377" y="255" on="1"/>
      </contour>
    </TTGlyph>
    <TTGlyph name="aeacute" xMin="38" yMin="-9" xMax="631" yMax="733">
      <component glyphName=".ttfautohint" x="38" y="0" flags="0x0"/>
      <component glyphName="ae" x="0" y="0" flags="0x0"/>
      <component glyphName="acutecomb" x="515" y="0" flags="0x0"/>
    </TTGlyph>
    <TTGlyph name="agrave" xMin="40" yMin="-9" xMax="444" yMax="733">
      <contour>
        <pt x="199" y="657" on="0"/>
        <pt x="199" y="681" on="1"/>
        <pt x="199" y="719" on="0"/>
        <pt x="241" y="733" on="1"/>
        <pt x="380" y="591" on="1"/>
        <pt x="354" y="559" on="1"/>
        <pt x="253" y="624" on="1"/>
      </contour>
      <contour>
        <pt x="281" y="59" on="0"/>
        <pt x="200" y="-9" on="0"/>
        <pt x="158" y="-9" on="1"/>
        <pt x="40" y="-9" on="0"/>
        <pt x="40" y="150" on="1"/>
        <pt x="40" y="209" on="0"/>
        <pt x="89" y="382" on="0"/>
        <pt x="191" y="513" on="0"/>
        <pt x="265" y="513" on="1"/>
        <pt x="297" y="513" on="0"/>
        <pt x="362" y="491" on="0"/>
        <pt x="379" y="482" on="1"/>
        <pt x="404" y="517" on="1"/>
        <pt x="442" y="517" on="1"/>
        <pt x="371" y="66" on="1"/>
        <pt x="444" y="66" on="1"/>
        <pt x="444" y="27" on="1"/>
        <pt x="440" y="25" on="0"/>
        <pt x="412" y="10" on="0"/>
        <pt x="369" y="-4" on="0"/>
        <pt x="348" y="-4" on="1"/>
        <pt x="315" y="-4" on="0"/>
        <pt x="292" y="22" on="0"/>
        <pt x="292" y="46" on="1"/>
        <pt x="292" y="67" on="0"/>
        <pt x="310" y="104" on="1"/>
        <pt x="307" y="106" on="1"/>
      </contour>
      <contour>
        <pt x="289" y="453" on="0"/>
        <pt x="227" y="453" on="1"/>
        <pt x="203" y="453" on="0"/>
        <pt x="194" y="441" on="1"/>
        <pt x="163" y="397" on="0"/>
        <pt x="123" y="250" on="0"/>
        <pt x="123" y="171" on="1"/>
        <pt x="123" y="108" on="0"/>
        <pt x="147" y="50" on="0"/>
        <pt x="182" y="50" on="1"/>
        <pt x="213" y="50" on="0"/>
        <pt x="281" y="113" on="0"/>
        <pt x="309" y="154" on="1"/>
        <pt x="353" y="410" on="1"/>
      </contour>
    </TTGlyph>
    <TTGlyph name="amacron" xMin="40" yMin="-9" xMax="451" yMax="677">
      <contour>
        <pt x="451" y="677" on="1"/>
        <pt x="443" y="614" on="1"/>
        <pt x="161" y="614" on="1"/>
        <pt x="169" y="677" on="1"/>
      </contour>
      <contour>
        <pt x="281" y="59" on="0"/>
        <pt x="200" y="-9" on="0"/>
        <pt x="158" y="-9" on="1"/>
        <pt x="40" y="-9" on="0"/>
        <pt x="40" y="150" on="1"/>
        <pt x="40" y="209" on="0"/>
        <pt x="89" y="382" on="0"/>
        <pt x="191" y="513" on="0"/>
        <pt x="265" y="513" on="1"/>
        <pt x="297" y="513" on="0"/>
        <pt x="362" y="491" on="0"/>
        <pt x="379" y="482" on="1"/>
        <pt x="404" y="517" on="1"/>
        <pt x="442" y="517" on="1"/>
        <pt x="371" y="66" on="1"/>
        <pt x="444" y="66" on="1"/>
        <pt x="444" y="27" on="1"/>
        <pt x="440" y="25" on="0"/>
        <pt x="412" y="10" on="0"/>
        <pt x="369" y="-4" on="0"/>
        <pt x="348" y="-4" on="1"/>
        <pt x="315" y="-4" on="0"/>
        <pt x="292" y="22" on="0"/>
        <pt x="292" y="46" on="1"/>
        <pt x="292" y="67" on="0"/>
        <pt x="310" y="104" on="1"/>
        <pt x="307" y="106" on="1"/>
      </contour>
      <contour>
        <pt x="289" y="453" on="0"/>
        <pt x="227" y="453" on="1"/>
        <pt x="203" y="453" on="0"/>
        <pt x="194" y="441" on="1"/>
        <pt x="163" y="397" on="0"/>
        <pt x="123" y="250" on="0"/>
        <pt x="123" y="171" on="1"/>
        <pt x="123" y="108" on="0"/>
        <pt x="147" y="50" on="0"/>
        <pt x="182" y="50" on="1"/>
        <pt x="213" y="50" on="0"/>
        <pt x="281" y="113" on="0"/>
        <pt x="309" y="154" on="1"/>
        <pt x="353" y="410" on="1"/>
      </contour>
    </TTGlyph>
    <TTGlyph name="ampersand" xMin="30" yMin="-89" xMax="666" yMax="649">
      <contour>
        <pt x="401" y="55" on="1"/>
        <pt x="329" y="-11" on="0"/>
        <pt x="221" y="-11" on="1"/>
        <pt x="134" y="-11" on="0"/>
        <pt x="30" y="57" on="0"/>
        <pt x="30" y="132" on="1"/>
        <pt x="30" y="206" on="0"/>
        <pt x="118" y="309" on="0"/>
        <pt x="168" y="337" on="1"/>
        <pt x="132" y="380" on="0"/>
        <pt x="101" y="439" on="0"/>
        <pt x="101" y="480" on="1"/>
        <pt x="101" y="522" on="0"/>
        <pt x="151" y="601" on="0"/>
        <pt x="237" y="649" on="0"/>
        <pt x="288" y="649" on="1"/>
        <pt x="351" y="649" on="0"/>
        <pt x="439" y="577" on="0"/>
        <pt x="439" y="521" on="1"/>
        <pt x="439" y="470" on="0"/>
        <pt x="412" y="428" on="1"/>
        <pt x="417" y="428" on="1"/>
        <pt x="444" y="424" on="1"/>
        <pt x="574" y="401" on="1"/>
        <pt x="647" y="438" on="1"/>
        <pt x="666" y="412" on="1"/>
        <pt x="627" y="368" on="1"/>
        <pt x="601" y="339" on="0"/>
        <pt x="565" y="339" on="1"/>
        <pt x="549" y="339" on="0"/>
        <pt x="528" y="342" on="0"/>
        <pt x="504" y="348" on="1"/>
        <pt x="505" y="340" on="0"/>
        <pt x="505" y="320" on="1"/>
        <pt x="505" y="265" on="0"/>
        <pt x="477" y="158" on="0"/>
        <pt x="449" y="114" on="1"/>
        <pt x="501" y="50" on="1"/>
        <pt x="508" y="40" on="0"/>
        <pt x="514" y="23" on="0"/>
        <pt x="514" y="11" on="1"/>
        <pt x="514" y="2" on="0"/>
        <pt x="512" y="-18" on="1"/>
        <pt x="504" y="-89" on="1"/>
        <pt x="464" y="-89" on="1"/>
        <pt x="458" y="-14" on="1"/>
      </contour>
      <contour>
        <pt x="442" y="215" on="0"/>
        <pt x="442" y="293" on="1"/>
        <pt x="442" y="330" on="0"/>
        <pt x="439" y="363" on="1"/>
        <pt x="391" y="375" on="1"/>
        <pt x="315" y="339" on="1"/>
        <pt x="297" y="365" on="1"/>
        <pt x="332" y="398" on="0"/>
        <pt x="361" y="437" on="0"/>
        <pt x="371" y="476" on="0"/>
        <pt x="371" y="509" on="1"/>
        <pt x="371" y="549" on="0"/>
        <pt x="326" y="597" on="0"/>
        <pt x="278" y="597" on="1"/>
        <pt x="231" y="597" on="0"/>
        <pt x="173" y="539" on="0"/>
        <pt x="173" y="500" on="1"/>
        <pt x="173" y="473" on="0"/>
        <pt x="199" y="422" on="0"/>
        <pt x="234" y="380" on="1"/>
        <pt x="414" y="157" on="1"/>
      </contour>
      <contour>
        <pt x="163" y="287" on="0"/>
        <pt x="111" y="211" on="0"/>
        <pt x="111" y="147" on="1"/>
        <pt x="111" y="97" on="0"/>
        <pt x="169" y="40" on="0"/>
        <pt x="242" y="40" on="1"/>
        <pt x="277" y="40" on="0"/>
        <pt x="342" y="67" on="0"/>
        <pt x="369" y="93" on="1"/>
        <pt x="193" y="306" on="1"/>
      </contour>
    </TTGlyph>
    <TTGlyph name="aogonek" xMin="40" yMin="-177" xMax="458" yMax="517">
      <contour>
        <pt x="458" y="-131" on="0"/>
        <pt x="427" y="-156" on="0"/>
        <pt x="380" y="-177" on="0"/>
        <pt x="353" y="-177" on="1"/>
        <pt x="278" y="-177" on="0"/>
        <pt x="278" y="-114" on="1"/>
        <pt x="278" y="-82" on="0"/>
        <pt x="315" y="-26" on="0"/>
        <pt x="347" y="-4" on="1"/>
        <pt x="315" y="-3" on="0"/>
        <pt x="292" y="23" on="0"/>
        <pt x="292" y="46" on="1"/>
        <pt x="292" y="67" on="0"/>
        <pt x="310" y="104" on="1"/>
        <pt x="307" y="106" on="1"/>
        <pt x="281" y="59" on="0"/>
        <pt x="200" y="-9" on="0"/>
        <pt x="158" y="-9" on="1"/>
        <pt x="40" y="-9" on="0"/>
        <pt x="40" y="150" on="1"/>
        <pt x="40" y="209" on="0"/>
        <pt x="89" y="382" on="0"/>
        <pt x="191" y="513" on="0"/>
        <pt x="265" y="513" on="1"/>
        <pt x="297" y="513" on="0"/>
        <pt x="362" y="491" on="0"/>
        <pt x="379" y="482" on="1"/>
        <pt x="404" y="517" on="1"/>
        <pt x="442" y="517" on="1"/>
        <pt x="371" y="66" on="1"/>
        <pt x="444" y="66" on="1"/>
        <pt x="444" y="27" on="1"/>
        <pt x="440" y="24" on="0"/>
        <pt x="421" y="15" on="0"/>
        <pt x="412" y="10" on="1"/>
        <pt x="391" y="0" on="0"/>
        <pt x="344" y="-52" on="0"/>
        <pt x="344" y="-86" on="1"/>
        <pt x="344" y="-105" on="0"/>
        <pt x="365" y="-126" on="0"/>
        <pt x="385" y="-126" on="1"/>
        <pt x="397" y="-126" on="0"/>
        <pt x="422" y="-117" on="0"/>
        <pt x="440" y="-108" on="0"/>
        <pt x="442" y="-106" on="1"/>
        <pt x="458" y="-130" on="1"/>
      </contour>
      <contour>
        <pt x="289" y="453" on="0"/>
        <pt x="227" y="453" on="1"/>
        <pt x="203" y="453" on="0"/>
        <pt x="194" y="441" on="1"/>
        <pt x="163" y="397" on="0"/>
        <pt x="123" y="250" on="0"/>
        <pt x="123" y="171" on="1"/>
        <pt x="123" y="108" on="0"/>
        <pt x="147" y="50" on="0"/>
        <pt x="182" y="50" on="1"/>
        <pt x="213" y="50" on="0"/>
        <pt x="281" y="113" on="0"/>
        <pt x="309" y="154" on="1"/>
        <pt x="353" y="410" on="1"/>
      </contour>
    </TTGlyph>
</ttFont>
